<svg width="275" height="190" viewBox="0 0 275 190" fill="none" xmlns="http://www.w3.org/2000/svg">
<path d="M113.289 111.75V182.75H2.5V111.75H113.289ZM56.4014 83L130.263 3.66877L204.125 83H56.4014ZM209.868 107C227.55 107 243.339 111.647 254.631 119.059C265.939 126.481 272.5 136.48 272.5 147.25C272.5 158.02 265.939 168.019 254.631 175.441C243.339 182.853 227.55 187.5 209.868 187.5C192.187 187.5 176.398 182.853 165.105 175.441C153.797 168.019 147.237 158.02 147.237 147.25C147.237 136.48 153.797 126.481 165.105 119.059C176.398 111.647 192.187 107 209.868 107Z" stroke="#E2BFB3" stroke-width="5"/>
</svg>
