<svg width="34" height="25" viewBox="0 0 34 25" fill="none" xmlns="http://www.w3.org/2000/svg">
<path d="M6.375 18.2292C6.93858 18.2292 7.47909 18.3938 7.8776 18.6868C8.27612 18.9798 8.5 19.3773 8.5 19.7917C8.5 20.2061 8.27612 20.6035 7.8776 20.8965C7.47909 21.1895 6.93858 21.3542 6.375 21.3542C5.81141 21.3542 5.27091 21.1895 4.8724 20.8965C4.47388 20.6035 4.25 20.2061 4.25 19.7917C4.25 19.3773 4.47388 18.9798 4.8724 18.6868C5.27091 18.3938 5.81141 18.2292 6.375 18.2292ZM28.3333 18.75C28.7091 18.75 29.0694 18.8597 29.3351 19.0551C29.6007 19.2504 29.75 19.5154 29.75 19.7917C29.75 20.0679 29.6007 20.3329 29.3351 20.5282C29.0694 20.7236 28.7091 20.8333 28.3333 20.8333H12.75C12.3743 20.8333 12.0139 20.7236 11.7483 20.5282C11.4826 20.3329 11.3333 20.0679 11.3333 19.7917C11.3333 19.5154 11.4826 19.2504 11.7483 19.0551C12.0139 18.8597 12.3743 18.75 12.75 18.75H28.3333ZM6.375 10.9375C6.93858 10.9375 7.47909 11.1021 7.8776 11.3951C8.27612 11.6882 8.5 12.0856 8.5 12.5C8.5 12.9144 8.27612 13.3118 7.8776 13.6049C7.47909 13.8979 6.93858 14.0625 6.375 14.0625C5.81141 14.0625 5.27091 13.8979 4.8724 13.6049C4.47388 13.3118 4.25 12.9144 4.25 12.5C4.25 12.0856 4.47388 11.6882 4.8724 11.3951C5.27091 11.1021 5.81141 10.9375 6.375 10.9375ZM28.3333 11.4583C28.6944 11.4586 29.0417 11.5603 29.3043 11.7425C29.5668 11.9248 29.7248 12.1739 29.746 12.439C29.7672 12.704 29.6499 12.965 29.4181 13.1686C29.1864 13.3722 28.8576 13.503 28.4991 13.5344L28.3333 13.5417H12.75C12.3889 13.5414 12.0416 13.4397 11.7791 13.2574C11.5165 13.0752 11.3585 12.8261 11.3373 12.561C11.3162 12.296 11.4335 12.035 11.6652 11.8314C11.897 11.6278 12.2257 11.497 12.5843 11.4656L12.75 11.4583H28.3333ZM6.375 3.64583C6.93858 3.64583 7.47909 3.81045 7.8776 4.10348C8.27612 4.3965 8.5 4.79393 8.5 5.20833C8.5 5.62273 8.27612 6.02016 7.8776 6.31319C7.47909 6.60621 6.93858 6.77083 6.375 6.77083C5.81141 6.77083 5.27091 6.60621 4.8724 6.31319C4.47388 6.02016 4.25 5.62273 4.25 5.20833C4.25 4.79393 4.47388 4.3965 4.8724 4.10348C5.27091 3.81045 5.81141 3.64583 6.375 3.64583ZM28.3333 4.16667C28.6944 4.16696 29.0417 4.26862 29.3043 4.45088C29.5668 4.63314 29.7248 4.88224 29.746 5.14729C29.7672 5.41233 29.6499 5.67331 29.4181 5.87691C29.1864 6.0805 28.8576 6.21135 28.4991 6.24271L28.3333 6.25H12.75C12.3889 6.2497 12.0416 6.14804 11.7791 5.96578C11.5165 5.78352 11.3585 5.53442 11.3373 5.26938C11.3162 5.00434 11.4335 4.74335 11.6652 4.53976C11.897 4.33616 12.2257 4.20532 12.5843 4.17396L12.75 4.16667H28.3333Z" fill="#E26C28"/>
</svg>
