<svg width="50" height="29" viewBox="0 0 50 29" fill="none" xmlns="http://www.w3.org/2000/svg">
<path d="M5.23493 11.6203C5.13377 11.5432 5.06029 11.4551 5.01883 11.3612C4.97738 11.2674 4.96878 11.1696 4.99356 11.0738C5.01834 10.978 5.07598 10.886 5.16309 10.8033C5.2502 10.7206 5.365 10.6489 5.50071 10.5924C5.63642 10.5359 5.79028 10.4957 5.95321 10.4743C6.11613 10.4528 6.28482 10.4506 6.44929 10.4676C6.61376 10.4846 6.77067 10.5206 6.91077 10.5734C7.05086 10.6262 7.17129 10.6947 7.26493 10.775C8.13493 11.4768 9.43993 12.1293 11.1049 12.6861C14.5374 13.8345 19.2299 14.5 24.2599 14.5C29.2899 14.5 33.9849 13.8345 37.4174 12.6861C39.0799 12.1293 40.3849 11.4768 41.2549 10.775C41.4482 10.6186 41.7406 10.5132 42.0679 10.482C42.3951 10.4507 42.7304 10.4961 42.9999 10.6082C43.2695 10.7203 43.4512 10.8899 43.5051 11.0797C43.559 11.2695 43.4807 11.464 43.2874 11.6203C42.1949 12.5019 40.6199 13.2878 38.6674 13.9418C34.8349 15.2236 29.7099 15.95 24.2599 15.95C18.8099 15.95 13.6849 15.225 9.85493 13.9418C7.89993 13.2878 6.32493 12.5019 5.23493 11.6218" fill="white"/>
<path d="M26.2499 15.95C26.2499 15.7577 26.1182 15.5733 25.8838 15.4373C25.6494 15.3014 25.3314 15.225 24.9999 15.225C24.6684 15.225 24.3505 15.3014 24.116 15.4373C23.8816 15.5733 23.7499 15.7577 23.7499 15.95V19.575C23.7499 19.7673 23.8816 19.9517 24.116 20.0877C24.3505 20.2236 24.6684 20.3 24.9999 20.3C25.3314 20.3 25.6494 20.2236 25.8838 20.0877C26.1182 19.9517 26.2499 19.7673 26.2499 19.575V15.95ZM15.0249 15.0829C15.0521 14.9869 15.1124 14.895 15.2021 14.8128C15.2919 14.7306 15.4092 14.6597 15.5472 14.6043C15.6852 14.549 15.8409 14.5103 16.0052 14.4906C16.1695 14.4709 16.339 14.4705 16.5035 14.4896C16.668 14.5087 16.8242 14.5468 16.9628 14.6016C17.1014 14.6565 17.2196 14.7269 17.3102 14.8088C17.4008 14.8907 17.4621 14.9823 17.4904 15.0782C17.5187 15.1742 17.5135 15.2724 17.4749 15.3671L16.2249 18.9921C16.1505 19.175 15.9564 19.3341 15.6837 19.4356C15.411 19.5372 15.081 19.5733 14.7632 19.5365C14.4454 19.4996 14.1648 19.3926 13.9804 19.238C13.796 19.0834 13.7223 18.8934 13.7749 18.7079L15.0249 15.0829ZM34.9749 15.0829C34.9005 14.9 34.7064 14.741 34.4337 14.6394C34.161 14.5378 33.831 14.5017 33.5132 14.5385C33.1954 14.5754 32.9148 14.6824 32.7304 14.837C32.546 14.9916 32.4723 15.1816 32.5249 15.3671L33.7749 18.9921C33.8494 19.175 34.0434 19.3341 34.3161 19.4356C34.5888 19.5372 34.9189 19.5733 35.2366 19.5365C35.5544 19.4996 35.8351 19.3926 36.0195 19.238C36.2038 19.0834 36.2775 18.8934 36.2249 18.7079L34.9749 15.0829ZM40.8849 12.5367C40.6502 12.4006 40.3319 12.3241 39.9999 12.3241C39.668 12.3241 39.3496 12.4006 39.1149 12.5367C38.8802 12.6728 38.7483 12.8575 38.7483 13.05C38.7483 13.2425 38.8802 13.4272 39.1149 13.5633L44.1149 16.4633C44.3496 16.5994 44.668 16.6759 44.9999 16.6759C45.3319 16.6759 45.6502 16.5994 45.8849 16.4633C46.1196 16.3272 46.2515 16.1425 46.2515 15.95C46.2515 15.7575 46.1196 15.5728 45.8849 15.4367L40.8849 12.5367ZM8.61992 12.5628C8.72872 12.4892 8.86186 12.429 9.01148 12.3858C9.16109 12.3425 9.32414 12.3171 9.49097 12.3111C9.6578 12.305 9.82503 12.3185 9.98276 12.3506C10.1405 12.3827 10.2855 12.4328 10.4093 12.498C10.533 12.5631 10.633 12.642 10.7032 12.73C10.7735 12.818 10.8126 12.9132 10.8182 13.0101C10.8239 13.107 10.796 13.2036 10.7361 13.2941C10.6763 13.3847 10.5858 13.4673 10.4699 13.5372L5.92492 16.4372C5.69942 16.5732 5.39137 16.6529 5.06622 16.6593C4.74106 16.6656 4.42443 16.5982 4.18358 16.4714C3.94274 16.3445 3.79665 16.1682 3.77636 15.9799C3.75607 15.7916 3.86318 15.6061 4.07492 15.4628L8.61992 12.5628Z" fill="white"/>
<path d="M2.87495 2.7231C2.63394 2.58312 2.49867 2.39334 2.4989 2.19552C2.49914 1.99769 2.63486 1.80802 2.8762 1.66823C3.11755 1.52844 3.44475 1.44998 3.78584 1.45012C4.12692 1.45026 4.45394 1.52897 4.69495 1.66895L47.1225 26.2769C47.3635 26.4167 47.4989 26.6063 47.4989 26.804C47.4989 27.0017 47.3635 27.1913 47.1224 27.3311C46.8814 27.4708 46.5546 27.5494 46.2137 27.5494C45.8729 27.5494 45.546 27.4708 45.305 27.3311L2.87495 2.7231Z" fill="white"/>
</svg>
