<svg width="284" height="75" viewBox="0 0 284 75" fill="none" xmlns="http://www.w3.org/2000/svg">
<g filter="url(#filter0_d_138_1989)">
<rect x="4" y="5.15308" width="276" height="61.8369" rx="30.9185" fill="url(#paint0_linear_138_1989)" fill-opacity="0.8"/>
<g style="mix-blend-mode:plus-darker">
<mask id="path-2-outside-1_138_1989" maskUnits="userSpaceOnUse" x="52.6547" y="12" width="182" height="49" fill="black">
<rect fill="white" x="52.6547" y="12" width="182" height="49"/>
<path d="M69.7147 48L63.4367 36.605H61.6737V48H54.3207V17.814H66.6617C69.041 17.814 71.062 18.2297 72.7247 19.061C74.416 19.8923 75.6773 21.039 76.5087 22.501C77.34 23.9343 77.7557 25.5397 77.7557 27.317C77.7557 29.3237 77.1823 31.1153 76.0357 32.692C74.9177 34.2687 73.255 35.3867 71.0477 36.046L78.0137 48H69.7147ZM61.6737 31.402H66.2317C67.579 31.402 68.5823 31.0723 69.2417 30.413C69.9297 29.7537 70.2737 28.822 70.2737 27.618C70.2737 26.4713 69.9297 25.5683 69.2417 24.909C68.5823 24.2497 67.579 23.92 66.2317 23.92H61.6737V31.402ZM104.989 35.616C104.989 36.304 104.946 37.0207 104.86 37.766H88.2194C88.3341 39.2567 88.8071 40.4033 89.6384 41.206C90.4984 41.98 91.5448 42.367 92.7774 42.367C94.6121 42.367 95.8878 41.593 96.6044 40.045H104.43C104.029 41.6217 103.298 43.0407 102.237 44.302C101.205 45.5633 99.9011 46.5523 98.3244 47.269C96.7478 47.9857 94.9848 48.344 93.0354 48.344C90.6848 48.344 88.5921 47.8423 86.7574 46.839C84.9228 45.8357 83.4894 44.4023 82.4574 42.539C81.4254 40.6757 80.9094 38.497 80.9094 36.003C80.9094 33.509 81.4111 31.3303 82.4144 29.467C83.4464 27.6037 84.8798 26.1703 86.7144 25.167C88.5491 24.1637 90.6561 23.662 93.0354 23.662C95.3574 23.662 97.4214 24.1493 99.2274 25.124C101.033 26.0987 102.438 27.489 103.441 29.295C104.473 31.101 104.989 33.208 104.989 35.616ZM97.4644 33.681C97.4644 32.4197 97.0344 31.4163 96.1744 30.671C95.3144 29.9257 94.2394 29.553 92.9494 29.553C91.7168 29.553 90.6704 29.9113 89.8104 30.628C88.9791 31.3447 88.4631 32.3623 88.2624 33.681H97.4644ZM117.985 23.662C119.676 23.662 121.152 24.006 122.414 24.694C123.704 25.382 124.693 26.285 125.381 27.403V24.006H132.734V47.957C132.734 50.1643 132.289 52.1567 131.401 53.934C130.541 55.74 129.208 57.1733 127.402 58.234C125.624 59.2947 123.403 59.825 120.737 59.825C117.182 59.825 114.301 58.9793 112.094 57.288C109.886 55.6253 108.625 53.3607 108.31 50.494H115.577C115.806 51.4113 116.351 52.128 117.211 52.644C118.071 53.1887 119.131 53.461 120.393 53.461C121.912 53.461 123.116 53.0167 124.005 52.128C124.922 51.268 125.381 49.8777 125.381 47.957V44.56C124.664 45.678 123.675 46.5953 122.414 47.312C121.152 48 119.676 48.344 117.985 48.344C116.007 48.344 114.215 47.8423 112.61 46.839C111.004 45.807 109.729 44.3593 108.783 42.496C107.865 40.604 107.407 38.4253 107.407 35.96C107.407 33.4947 107.865 31.3303 108.783 29.467C109.729 27.6037 111.004 26.1703 112.61 25.167C114.215 24.1637 116.007 23.662 117.985 23.662ZM125.381 36.003C125.381 34.1683 124.865 32.7207 123.833 31.66C122.829 30.5993 121.597 30.069 120.135 30.069C118.673 30.069 117.426 30.5993 116.394 31.66C115.39 32.692 114.889 34.1253 114.889 35.96C114.889 37.7947 115.39 39.2567 116.394 40.346C117.426 41.4067 118.673 41.937 120.135 41.937C121.597 41.937 122.829 41.4067 123.833 40.346C124.865 39.2853 125.381 37.8377 125.381 36.003ZM141.751 21.512C140.461 21.512 139.4 21.1393 138.569 20.394C137.766 19.62 137.365 18.674 137.365 17.556C137.365 16.4093 137.766 15.4633 138.569 14.718C139.4 13.944 140.461 13.557 141.751 13.557C143.012 13.557 144.044 13.944 144.847 14.718C145.678 15.4633 146.094 16.4093 146.094 17.556C146.094 18.674 145.678 19.62 144.847 20.394C144.044 21.1393 143.012 21.512 141.751 21.512ZM145.406 24.006V48H138.053V24.006H145.406ZM160.496 48.344C158.403 48.344 156.54 47.9857 154.906 47.269C153.272 46.5523 151.982 45.5777 151.036 44.345C150.09 43.0837 149.559 41.679 149.445 40.131H156.712C156.798 40.9623 157.185 41.636 157.873 42.152C158.561 42.668 159.406 42.926 160.41 42.926C161.327 42.926 162.029 42.754 162.517 42.41C163.033 42.0373 163.291 41.5643 163.291 40.991C163.291 40.303 162.932 39.8013 162.216 39.486C161.499 39.142 160.338 38.7693 158.733 38.368C157.013 37.9667 155.579 37.551 154.433 37.121C153.286 36.6623 152.297 35.96 151.466 35.014C150.634 34.0393 150.219 32.735 150.219 31.101C150.219 29.725 150.591 28.478 151.337 27.36C152.111 26.2133 153.229 25.3103 154.691 24.651C156.181 23.9917 157.944 23.662 159.98 23.662C162.99 23.662 165.355 24.4073 167.075 25.898C168.823 27.3887 169.827 29.3667 170.085 31.832H163.291C163.176 31.0007 162.803 30.3413 162.173 29.854C161.571 29.3667 160.768 29.123 159.765 29.123C158.905 29.123 158.245 29.295 157.787 29.639C157.328 29.9543 157.099 30.3987 157.099 30.972C157.099 31.66 157.457 32.176 158.174 32.52C158.919 32.864 160.066 33.208 161.614 33.552C163.391 34.0107 164.839 34.4693 165.957 34.928C167.075 35.358 168.049 36.0747 168.881 37.078C169.741 38.0527 170.185 39.3713 170.214 41.034C170.214 42.4387 169.812 43.7 169.01 44.818C168.236 45.9073 167.103 46.7673 165.613 47.398C164.151 48.0287 162.445 48.344 160.496 48.344ZM188.085 41.765V48H184.344C181.678 48 179.6 47.355 178.109 46.065C176.619 44.7463 175.873 42.6107 175.873 39.658V30.112H172.949V24.006H175.873V18.158H183.226V24.006H188.042V30.112H183.226V39.744C183.226 40.4607 183.398 40.9767 183.742 41.292C184.086 41.6073 184.66 41.765 185.462 41.765H188.085ZM214.799 35.616C214.799 36.304 214.756 37.0207 214.67 37.766H198.029C198.144 39.2567 198.617 40.4033 199.448 41.206C200.308 41.98 201.354 42.367 202.587 42.367C204.422 42.367 205.697 41.593 206.414 40.045H214.24C213.839 41.6217 213.108 43.0407 212.047 44.302C211.015 45.5633 209.711 46.5523 208.134 47.269C206.557 47.9857 204.794 48.344 202.845 48.344C200.494 48.344 198.402 47.8423 196.567 46.839C194.732 45.8357 193.299 44.4023 192.267 42.539C191.235 40.6757 190.719 38.497 190.719 36.003C190.719 33.509 191.221 31.3303 192.224 29.467C193.256 27.6037 194.689 26.1703 196.524 25.167C198.359 24.1637 200.466 23.662 202.845 23.662C205.167 23.662 207.231 24.1493 209.037 25.124C210.843 26.0987 212.248 27.489 213.251 29.295C214.283 31.101 214.799 33.208 214.799 35.616ZM207.274 33.681C207.274 32.4197 206.844 31.4163 205.984 30.671C205.124 29.9257 204.049 29.553 202.759 29.553C201.526 29.553 200.48 29.9113 199.62 30.628C198.789 31.3447 198.273 32.3623 198.072 33.681H207.274ZM226.031 28.005C226.891 26.6863 227.966 25.6543 229.256 24.909C230.546 24.135 231.979 23.748 233.556 23.748V31.531H231.535C229.7 31.531 228.324 31.9323 227.407 32.735C226.49 33.509 226.031 34.885 226.031 36.863V48H218.678V24.006H226.031V28.005Z"/>
</mask>
<path d="M69.7147 48L63.4367 36.605H61.6737V48H54.3207V17.814H66.6617C69.041 17.814 71.062 18.2297 72.7247 19.061C74.416 19.8923 75.6773 21.039 76.5087 22.501C77.34 23.9343 77.7557 25.5397 77.7557 27.317C77.7557 29.3237 77.1823 31.1153 76.0357 32.692C74.9177 34.2687 73.255 35.3867 71.0477 36.046L78.0137 48H69.7147ZM61.6737 31.402H66.2317C67.579 31.402 68.5823 31.0723 69.2417 30.413C69.9297 29.7537 70.2737 28.822 70.2737 27.618C70.2737 26.4713 69.9297 25.5683 69.2417 24.909C68.5823 24.2497 67.579 23.92 66.2317 23.92H61.6737V31.402ZM104.989 35.616C104.989 36.304 104.946 37.0207 104.86 37.766H88.2194C88.3341 39.2567 88.8071 40.4033 89.6384 41.206C90.4984 41.98 91.5448 42.367 92.7774 42.367C94.6121 42.367 95.8878 41.593 96.6044 40.045H104.43C104.029 41.6217 103.298 43.0407 102.237 44.302C101.205 45.5633 99.9011 46.5523 98.3244 47.269C96.7478 47.9857 94.9848 48.344 93.0354 48.344C90.6848 48.344 88.5921 47.8423 86.7574 46.839C84.9228 45.8357 83.4894 44.4023 82.4574 42.539C81.4254 40.6757 80.9094 38.497 80.9094 36.003C80.9094 33.509 81.4111 31.3303 82.4144 29.467C83.4464 27.6037 84.8798 26.1703 86.7144 25.167C88.5491 24.1637 90.6561 23.662 93.0354 23.662C95.3574 23.662 97.4214 24.1493 99.2274 25.124C101.033 26.0987 102.438 27.489 103.441 29.295C104.473 31.101 104.989 33.208 104.989 35.616ZM97.4644 33.681C97.4644 32.4197 97.0344 31.4163 96.1744 30.671C95.3144 29.9257 94.2394 29.553 92.9494 29.553C91.7168 29.553 90.6704 29.9113 89.8104 30.628C88.9791 31.3447 88.4631 32.3623 88.2624 33.681H97.4644ZM117.985 23.662C119.676 23.662 121.152 24.006 122.414 24.694C123.704 25.382 124.693 26.285 125.381 27.403V24.006H132.734V47.957C132.734 50.1643 132.289 52.1567 131.401 53.934C130.541 55.74 129.208 57.1733 127.402 58.234C125.624 59.2947 123.403 59.825 120.737 59.825C117.182 59.825 114.301 58.9793 112.094 57.288C109.886 55.6253 108.625 53.3607 108.31 50.494H115.577C115.806 51.4113 116.351 52.128 117.211 52.644C118.071 53.1887 119.131 53.461 120.393 53.461C121.912 53.461 123.116 53.0167 124.005 52.128C124.922 51.268 125.381 49.8777 125.381 47.957V44.56C124.664 45.678 123.675 46.5953 122.414 47.312C121.152 48 119.676 48.344 117.985 48.344C116.007 48.344 114.215 47.8423 112.61 46.839C111.004 45.807 109.729 44.3593 108.783 42.496C107.865 40.604 107.407 38.4253 107.407 35.96C107.407 33.4947 107.865 31.3303 108.783 29.467C109.729 27.6037 111.004 26.1703 112.61 25.167C114.215 24.1637 116.007 23.662 117.985 23.662ZM125.381 36.003C125.381 34.1683 124.865 32.7207 123.833 31.66C122.829 30.5993 121.597 30.069 120.135 30.069C118.673 30.069 117.426 30.5993 116.394 31.66C115.39 32.692 114.889 34.1253 114.889 35.96C114.889 37.7947 115.39 39.2567 116.394 40.346C117.426 41.4067 118.673 41.937 120.135 41.937C121.597 41.937 122.829 41.4067 123.833 40.346C124.865 39.2853 125.381 37.8377 125.381 36.003ZM141.751 21.512C140.461 21.512 139.4 21.1393 138.569 20.394C137.766 19.62 137.365 18.674 137.365 17.556C137.365 16.4093 137.766 15.4633 138.569 14.718C139.4 13.944 140.461 13.557 141.751 13.557C143.012 13.557 144.044 13.944 144.847 14.718C145.678 15.4633 146.094 16.4093 146.094 17.556C146.094 18.674 145.678 19.62 144.847 20.394C144.044 21.1393 143.012 21.512 141.751 21.512ZM145.406 24.006V48H138.053V24.006H145.406ZM160.496 48.344C158.403 48.344 156.54 47.9857 154.906 47.269C153.272 46.5523 151.982 45.5777 151.036 44.345C150.09 43.0837 149.559 41.679 149.445 40.131H156.712C156.798 40.9623 157.185 41.636 157.873 42.152C158.561 42.668 159.406 42.926 160.41 42.926C161.327 42.926 162.029 42.754 162.517 42.41C163.033 42.0373 163.291 41.5643 163.291 40.991C163.291 40.303 162.932 39.8013 162.216 39.486C161.499 39.142 160.338 38.7693 158.733 38.368C157.013 37.9667 155.579 37.551 154.433 37.121C153.286 36.6623 152.297 35.96 151.466 35.014C150.634 34.0393 150.219 32.735 150.219 31.101C150.219 29.725 150.591 28.478 151.337 27.36C152.111 26.2133 153.229 25.3103 154.691 24.651C156.181 23.9917 157.944 23.662 159.98 23.662C162.99 23.662 165.355 24.4073 167.075 25.898C168.823 27.3887 169.827 29.3667 170.085 31.832H163.291C163.176 31.0007 162.803 30.3413 162.173 29.854C161.571 29.3667 160.768 29.123 159.765 29.123C158.905 29.123 158.245 29.295 157.787 29.639C157.328 29.9543 157.099 30.3987 157.099 30.972C157.099 31.66 157.457 32.176 158.174 32.52C158.919 32.864 160.066 33.208 161.614 33.552C163.391 34.0107 164.839 34.4693 165.957 34.928C167.075 35.358 168.049 36.0747 168.881 37.078C169.741 38.0527 170.185 39.3713 170.214 41.034C170.214 42.4387 169.812 43.7 169.01 44.818C168.236 45.9073 167.103 46.7673 165.613 47.398C164.151 48.0287 162.445 48.344 160.496 48.344ZM188.085 41.765V48H184.344C181.678 48 179.6 47.355 178.109 46.065C176.619 44.7463 175.873 42.6107 175.873 39.658V30.112H172.949V24.006H175.873V18.158H183.226V24.006H188.042V30.112H183.226V39.744C183.226 40.4607 183.398 40.9767 183.742 41.292C184.086 41.6073 184.66 41.765 185.462 41.765H188.085ZM214.799 35.616C214.799 36.304 214.756 37.0207 214.67 37.766H198.029C198.144 39.2567 198.617 40.4033 199.448 41.206C200.308 41.98 201.354 42.367 202.587 42.367C204.422 42.367 205.697 41.593 206.414 40.045H214.24C213.839 41.6217 213.108 43.0407 212.047 44.302C211.015 45.5633 209.711 46.5523 208.134 47.269C206.557 47.9857 204.794 48.344 202.845 48.344C200.494 48.344 198.402 47.8423 196.567 46.839C194.732 45.8357 193.299 44.4023 192.267 42.539C191.235 40.6757 190.719 38.497 190.719 36.003C190.719 33.509 191.221 31.3303 192.224 29.467C193.256 27.6037 194.689 26.1703 196.524 25.167C198.359 24.1637 200.466 23.662 202.845 23.662C205.167 23.662 207.231 24.1493 209.037 25.124C210.843 26.0987 212.248 27.489 213.251 29.295C214.283 31.101 214.799 33.208 214.799 35.616ZM207.274 33.681C207.274 32.4197 206.844 31.4163 205.984 30.671C205.124 29.9257 204.049 29.553 202.759 29.553C201.526 29.553 200.48 29.9113 199.62 30.628C198.789 31.3447 198.273 32.3623 198.072 33.681H207.274ZM226.031 28.005C226.891 26.6863 227.966 25.6543 229.256 24.909C230.546 24.135 231.979 23.748 233.556 23.748V31.531H231.535C229.7 31.531 228.324 31.9323 227.407 32.735C226.49 33.509 226.031 34.885 226.031 36.863V48H218.678V24.006H226.031V28.005Z" fill="#E26C28"/>
<path d="M69.7147 48L68.8388 48.4826L69.1239 49H69.7147V48ZM63.4367 36.605L64.3125 36.1224L64.0274 35.605H63.4367V36.605ZM61.6737 36.605V35.605H60.6737V36.605H61.6737ZM61.6737 48V49H62.6737V48H61.6737ZM54.3207 48H53.3207V49H54.3207V48ZM54.3207 17.814V16.814H53.3207V17.814H54.3207ZM72.7247 19.061L72.2774 19.9554L72.2835 19.9584L72.7247 19.061ZM76.5087 22.501L75.6393 22.9953L75.6436 23.0027L76.5087 22.501ZM76.0357 32.692L75.2269 32.1038L75.2199 32.1136L76.0357 32.692ZM71.0477 36.046L70.7615 35.0878L69.5438 35.4515L70.1837 36.5495L71.0477 36.046ZM78.0137 48V49H79.7538L78.8777 47.4965L78.0137 48ZM61.6737 31.402H60.6737V32.402H61.6737V31.402ZM69.2417 30.413L68.5498 29.691L68.5421 29.6984L68.5346 29.7059L69.2417 30.413ZM69.2417 24.909L68.5346 25.6161L68.5421 25.6236L68.5498 25.631L69.2417 24.909ZM61.6737 23.92V22.92H60.6737V23.92H61.6737ZM70.5905 47.5174L64.3125 36.1224L62.5608 37.0876L68.8388 48.4826L70.5905 47.5174ZM63.4367 35.605H61.6737V37.605H63.4367V35.605ZM60.6737 36.605V48H62.6737V36.605H60.6737ZM61.6737 47H54.3207V49H61.6737V47ZM55.3207 48V17.814H53.3207V48H55.3207ZM54.3207 18.814H66.6617V16.814H54.3207V18.814ZM66.6617 18.814C68.9279 18.814 70.787 19.2102 72.2775 19.9554L73.1719 18.1666C71.337 17.2491 69.1541 16.814 66.6617 16.814V18.814ZM72.2835 19.9584C73.8175 20.7124 74.9188 21.7282 75.6394 22.9953L77.378 22.0067C76.4358 20.3498 75.0145 19.0722 73.1658 18.1635L72.2835 19.9584ZM75.6436 23.0027C76.3801 24.2726 76.7557 25.7026 76.7557 27.317H78.7557C78.7557 25.3767 78.2999 23.5961 77.3737 21.9993L75.6436 23.0027ZM76.7557 27.317C76.7557 29.119 76.2454 30.7034 75.2269 32.1038L76.8444 33.2802C78.1192 31.5273 78.7557 29.5284 78.7557 27.317H76.7557ZM75.2199 32.1136C74.2546 33.4749 72.7974 34.4797 70.7615 35.0878L71.3339 37.0042C73.7126 36.2936 75.5807 35.0624 76.8514 33.2704L75.2199 32.1136ZM70.1837 36.5495L77.1497 48.5035L78.8777 47.4965L71.9117 35.5425L70.1837 36.5495ZM78.0137 47H69.7147V49H78.0137V47ZM61.6737 32.402H66.2317V30.402H61.6737V32.402ZM66.2317 32.402C67.7259 32.402 69.0322 32.0367 69.9488 31.1201L68.5346 29.7059C68.1325 30.108 67.4321 30.402 66.2317 30.402V32.402ZM69.9336 31.135C70.8673 30.2402 71.2737 29.0185 71.2737 27.618H69.2737C69.2737 28.6255 68.992 29.2672 68.5498 29.691L69.9336 31.135ZM71.2737 27.618C71.2737 26.2584 70.8577 25.0726 69.9336 24.187L68.5498 25.631C69.0017 26.0641 69.2737 26.6843 69.2737 27.618H71.2737ZM69.9488 24.2019C69.0322 23.2853 67.7259 22.92 66.2317 22.92V24.92C67.4321 24.92 68.1325 25.214 68.5346 25.6161L69.9488 24.2019ZM66.2317 22.92H61.6737V24.92H66.2317V22.92ZM60.6737 23.92V31.402H62.6737V23.92H60.6737ZM104.86 37.766V38.766H105.752L105.854 37.8806L104.86 37.766ZM88.2194 37.766V36.766H87.1396L87.2224 37.8427L88.2194 37.766ZM89.6384 41.206L88.9439 41.9254L88.9565 41.9376L88.9695 41.9493L89.6384 41.206ZM96.6044 40.045V39.045H95.9654L95.697 39.6249L96.6044 40.045ZM104.43 40.045L105.4 40.2917L105.717 39.045H104.43V40.045ZM102.237 44.302L101.472 43.6583L101.463 43.6688L102.237 44.302ZM98.3244 47.269L98.7382 48.1794L98.3244 47.269ZM86.7574 46.839L86.2776 47.7164L86.2776 47.7164L86.7574 46.839ZM82.4574 42.539L83.3322 42.0545L83.3322 42.0545L82.4574 42.539ZM82.4144 29.467L81.5396 28.9825L81.534 28.9929L82.4144 29.467ZM86.7144 25.167L87.1943 26.0444L87.1943 26.0444L86.7144 25.167ZM99.2274 25.124L98.7525 26.004L98.7525 26.004L99.2274 25.124ZM103.441 29.295L102.567 29.7807L102.573 29.7911L103.441 29.295ZM97.4644 33.681V34.681H98.4644V33.681H97.4644ZM96.1744 30.671L96.8294 29.9153L96.8294 29.9153L96.1744 30.671ZM89.8104 30.628L89.1703 29.8598L89.1638 29.8651L89.1575 29.8706L89.8104 30.628ZM88.2624 33.681L87.2738 33.5306L87.0988 34.681H88.2624V33.681ZM103.989 35.616C103.989 36.2624 103.949 36.9407 103.867 37.6514L105.854 37.8806C105.944 37.1006 105.989 36.3456 105.989 35.616H103.989ZM104.86 36.766H88.2194V38.766H104.86V36.766ZM87.2224 37.8427C87.3502 39.5039 87.8898 40.9077 88.9439 41.9254L90.333 40.4866C89.7245 39.899 89.3181 39.0095 89.2165 37.6893L87.2224 37.8427ZM88.9695 41.9493C90.0258 42.9 91.3154 43.367 92.7774 43.367V41.367C91.7742 41.367 90.9711 41.06 90.3074 40.4627L88.9695 41.9493ZM92.7774 43.367C93.8358 43.367 94.8024 43.1429 95.6289 42.6414C96.4601 42.1371 97.0824 41.3928 97.5119 40.4651L95.697 39.6249C95.4098 40.2452 95.0359 40.6619 94.5915 40.9316C94.1423 41.2041 93.5538 41.367 92.7774 41.367V43.367ZM96.6044 41.045H104.43V39.045H96.6044V41.045ZM103.461 39.7983C103.098 41.2271 102.437 42.5108 101.472 43.6584L103.003 44.9456C104.159 43.5705 104.961 42.0163 105.4 40.2917L103.461 39.7983ZM101.463 43.6688C100.535 44.8039 99.3566 45.7014 97.9106 46.3586L98.7382 48.1794C100.446 47.4033 101.876 46.3228 103.011 44.9352L101.463 43.6688ZM97.9106 46.3586C96.4794 47.0092 94.86 47.344 93.0354 47.344V49.344C95.1096 49.344 97.0162 48.9621 98.7382 48.1794L97.9106 46.3586ZM93.0354 47.344C90.8313 47.344 88.9073 46.8749 87.2373 45.9616L86.2776 47.7164C88.2769 48.8097 90.5382 49.344 93.0354 49.344V47.344ZM87.2373 45.9616C85.572 45.051 84.2743 43.7554 83.3322 42.0545L81.5827 43.0235C82.7046 45.0493 84.2735 46.6204 86.2776 47.7164L87.2373 45.9616ZM83.3322 42.0545C82.3954 40.363 81.9094 38.3566 81.9094 36.003H79.9094C79.9094 38.6374 80.4555 40.9884 81.5827 43.0235L83.3322 42.0545ZM81.9094 36.003C81.9094 33.6449 82.383 31.6347 83.2949 29.9411L81.534 28.9929C80.4393 31.0259 79.9094 33.3731 79.9094 36.003H81.9094ZM83.2892 29.9515C84.2313 28.2506 85.529 26.955 87.1943 26.0444L86.2346 24.2896C84.2305 25.3856 82.6616 26.9567 81.5397 28.9825L83.2892 29.9515ZM87.1943 26.0444C88.8625 25.132 90.8004 24.662 93.0354 24.662V22.662C90.5118 22.662 88.2357 23.1953 86.2346 24.2896L87.1943 26.0444ZM93.0354 24.662C95.2137 24.662 97.1107 25.118 98.7525 26.004L99.7024 24.244C97.7322 23.1807 95.5012 22.662 93.0354 22.662V24.662ZM98.7525 26.004C100.389 26.8874 101.656 28.1403 102.567 29.7806L104.316 28.8094C103.22 26.8377 101.678 25.3099 99.7024 24.244L98.7525 26.004ZM102.573 29.7911C103.506 31.4237 103.989 33.3543 103.989 35.616H105.989C105.989 33.0617 105.441 30.7783 104.31 28.7989L102.573 29.7911ZM98.4644 33.681C98.4644 32.1649 97.9339 30.8725 96.8294 29.9153L95.5195 31.4267C96.135 31.9601 96.4644 32.6744 96.4644 33.681H98.4644ZM96.8294 29.9153C95.7632 28.9913 94.4458 28.553 92.9494 28.553V30.553C94.0331 30.553 94.8656 30.86 95.5195 31.4267L96.8294 29.9153ZM92.9494 28.553C91.5081 28.553 90.2285 28.9779 89.1703 29.8598L90.4506 31.3962C91.1124 30.8448 91.9254 30.553 92.9494 30.553V28.553ZM89.1575 29.8706C88.1087 30.7748 87.5023 32.0289 87.2738 33.5306L89.2511 33.8314C89.4239 32.6958 89.8496 31.9146 90.4634 31.3854L89.1575 29.8706ZM88.2624 34.681H97.4644V32.681H88.2624V34.681ZM122.414 24.694L121.935 25.5719L121.943 25.5764L122.414 24.694ZM125.381 27.403L124.529 27.9271L126.381 30.936V27.403H125.381ZM125.381 24.006V23.006H124.381V24.006H125.381ZM132.734 24.006H133.734V23.006H132.734V24.006ZM131.401 53.934L130.506 53.4868L130.502 53.4954L130.498 53.5041L131.401 53.934ZM127.402 58.234L126.895 57.3717L126.889 57.3753L127.402 58.234ZM112.094 57.288L112.702 56.4942L112.695 56.4892L112.094 57.288ZM108.31 50.494V49.494H107.193L107.316 50.6033L108.31 50.494ZM115.577 50.494L116.547 50.2515L116.357 49.494H115.577V50.494ZM117.211 52.644L117.746 51.7992L117.735 51.7927L117.725 51.7865L117.211 52.644ZM124.005 52.128L123.321 51.3985L123.309 51.4095L123.297 51.4209L124.005 52.128ZM125.381 44.56H126.381V41.147L124.539 44.0203L125.381 44.56ZM122.414 47.312L122.892 48.1899L122.9 48.1857L122.908 48.1815L122.414 47.312ZM112.61 46.839L112.069 47.6802L112.08 47.687L112.61 46.839ZM108.783 42.496L107.883 42.9323L107.887 42.9405L107.891 42.9487L108.783 42.496ZM108.783 29.467L107.891 29.0143L107.885 29.0253L108.783 29.467ZM112.61 25.167L113.14 26.015L113.14 26.015L112.61 25.167ZM123.833 31.66L123.106 32.3473L123.116 32.3574L123.833 31.66ZM116.394 31.66L115.677 30.9626L115.677 30.9629L116.394 31.66ZM116.394 40.346L115.658 41.0235L115.667 41.0335L115.677 41.0434L116.394 40.346ZM123.833 40.346L123.116 39.6486L123.106 39.6588L123.833 40.346ZM117.985 24.662C119.538 24.662 120.844 24.9771 121.935 25.5719L122.892 23.8161C121.46 23.0349 119.813 22.662 117.985 22.662V24.662ZM121.943 25.5764C123.095 26.1906 123.944 26.9769 124.529 27.9271L126.232 26.8789C125.441 25.5931 124.312 24.5734 122.884 23.8116L121.943 25.5764ZM126.381 27.403V24.006H124.381V27.403H126.381ZM125.381 25.006H132.734V23.006H125.381V25.006ZM131.734 24.006V47.957H133.734V24.006H131.734ZM131.734 47.957C131.734 50.0265 131.318 51.8631 130.506 53.4868L132.295 54.3812C133.26 52.4502 133.734 50.3022 133.734 47.957H131.734ZM130.498 53.5041C129.728 55.1208 128.537 56.4073 126.895 57.3717L127.908 59.0963C129.878 57.9394 131.353 56.3592 132.303 54.3639L130.498 53.5041ZM126.889 57.3753C125.305 58.3204 123.273 58.825 120.737 58.825V60.825C123.532 60.825 125.943 60.2689 127.914 59.0927L126.889 57.3753ZM120.737 58.825C117.34 58.825 114.691 58.0185 112.702 56.4942L111.485 58.0818C113.911 59.9401 117.024 60.825 120.737 60.825V58.825ZM112.695 56.4892C110.719 55.0004 109.59 52.9907 109.304 50.3847L107.316 50.6033C107.66 53.7306 109.054 56.2502 111.492 58.0868L112.695 56.4892ZM108.31 51.494H115.577V49.494H108.31V51.494ZM114.606 50.7365C114.904 51.928 115.624 52.8582 116.696 53.5015L117.725 51.7865C117.077 51.3978 116.707 50.8947 116.547 50.2515L114.606 50.7365ZM116.675 53.4888C117.73 54.1566 118.987 54.461 120.393 54.461V52.461C119.275 52.461 118.411 52.2207 117.746 51.7992L116.675 53.4888ZM120.393 54.461C122.118 54.461 123.597 53.9494 124.712 52.8351L123.297 51.4209C122.634 52.084 121.706 52.461 120.393 52.461V54.461ZM124.688 52.8575C125.893 51.7283 126.381 50.0096 126.381 47.957H124.381C124.381 49.7457 123.951 50.8077 123.321 51.3985L124.688 52.8575ZM126.381 47.957V44.56H124.381V47.957H126.381ZM124.539 44.0203C123.917 44.9895 123.053 45.7984 121.92 46.4425L122.908 48.1815C124.297 47.3922 125.41 46.3665 126.222 45.0997L124.539 44.0203ZM121.935 46.4341C120.844 47.0289 119.538 47.344 117.985 47.344V49.344C119.813 49.344 121.46 48.9711 122.892 48.1899L121.935 46.4341ZM117.985 47.344C116.185 47.344 114.579 46.8904 113.14 45.991L112.08 47.687C113.851 48.7942 115.828 49.344 117.985 49.344V47.344ZM113.15 45.9978C111.708 45.0708 110.548 43.7638 109.674 42.0433L107.891 42.9487C108.909 44.9549 110.3 46.5432 112.069 47.6802L113.15 45.9978ZM109.682 42.0597C108.841 40.3253 108.407 38.3001 108.407 35.96H106.407C106.407 38.5505 106.889 40.8827 107.883 42.9323L109.682 42.0597ZM108.407 35.96C108.407 33.6194 108.842 31.6112 109.68 29.9087L107.885 29.0253C106.889 31.0495 106.407 33.3699 106.407 35.96H108.407ZM109.674 29.9197C110.547 28.2012 111.704 26.9121 113.14 26.015L112.08 24.319C110.304 25.4286 108.91 27.0061 107.891 29.0143L109.674 29.9197ZM113.14 26.015C114.579 25.1156 116.185 24.662 117.985 24.662V22.662C115.828 22.662 113.851 23.2118 112.08 24.319L113.14 26.015ZM126.381 36.003C126.381 33.9737 125.804 32.2524 124.549 30.9626L123.116 32.3574C123.925 33.1889 124.381 34.3629 124.381 36.003H126.381ZM124.559 30.9728C123.366 29.7122 121.871 29.069 120.135 29.069V31.069C121.322 31.069 122.292 31.4865 123.106 32.3472L124.559 30.9728ZM120.135 29.069C118.399 29.069 116.894 29.7112 115.677 30.9626L117.11 32.3574C117.957 31.4875 118.946 31.069 120.135 31.069V29.069ZM115.677 30.9629C114.446 32.2291 113.889 33.9397 113.889 35.96H115.889C115.889 34.311 116.335 33.1549 117.111 32.3571L115.677 30.9629ZM113.889 35.96C113.889 37.983 114.446 39.708 115.658 41.0235L117.129 39.6685C116.334 38.8053 115.889 37.6064 115.889 35.96H113.889ZM115.677 41.0434C116.894 42.2948 118.399 42.937 120.135 42.937V40.937C118.946 40.937 117.957 40.5185 117.11 39.6486L115.677 41.0434ZM120.135 42.937C121.871 42.937 123.366 42.2938 124.559 41.0332L123.106 39.6588C122.292 40.5195 121.322 40.937 120.135 40.937V42.937ZM124.549 41.0434C125.804 39.7536 126.381 38.0323 126.381 36.003H124.381C124.381 37.6431 123.925 38.8171 123.116 39.6486L124.549 41.0434ZM138.569 20.394L137.875 21.1138L137.888 21.1264L137.902 21.1386L138.569 20.394ZM138.569 14.718L139.25 15.4508L139.251 15.4499L138.569 14.718ZM144.847 14.718L144.153 15.4378L144.166 15.4504L144.18 15.4626L144.847 14.718ZM144.847 20.394L145.528 21.1268L145.529 21.1259L144.847 20.394ZM145.406 24.006H146.406V23.006H145.406V24.006ZM145.406 48V49H146.406V48H145.406ZM138.053 48H137.053V49H138.053V48ZM138.053 24.006V23.006H137.053V24.006H138.053ZM141.751 20.512C140.667 20.512 139.856 20.205 139.237 19.6494L137.902 21.1386C138.945 22.0737 140.255 22.512 141.751 22.512V20.512ZM139.263 19.6742C138.657 19.0892 138.365 18.4033 138.365 17.556H136.365C136.365 18.9447 136.876 20.1508 137.875 21.1138L139.263 19.6742ZM138.365 17.556C138.365 16.6727 138.661 15.9971 139.25 15.4508L137.889 13.9852C136.872 14.9295 136.365 16.1459 136.365 17.556H138.365ZM139.251 15.4499C139.871 14.8718 140.677 14.557 141.751 14.557V12.557C140.245 12.557 138.929 13.0162 137.888 13.9861L139.251 15.4499ZM141.751 14.557C142.79 14.557 143.562 14.8676 144.153 15.4378L145.541 13.9982C144.527 13.0204 143.235 12.557 141.751 12.557V14.557ZM144.18 15.4626C144.793 16.0125 145.094 16.6847 145.094 17.556H147.094C147.094 16.1339 146.564 14.9142 145.515 13.9734L144.18 15.4626ZM145.094 17.556C145.094 18.3914 144.798 19.0738 144.166 19.6621L145.529 21.1259C146.559 20.1662 147.094 18.9566 147.094 17.556H145.094ZM144.167 19.6612C143.577 20.2088 142.801 20.512 141.751 20.512V22.512C143.224 22.512 144.512 22.0699 145.528 21.1268L144.167 19.6612ZM144.406 24.006V48H146.406V24.006H144.406ZM145.406 47H138.053V49H145.406V47ZM139.053 48V24.006H137.053V48H139.053ZM138.053 25.006H145.406V23.006H138.053V25.006ZM154.906 47.269L155.307 46.3532L155.307 46.3532L154.906 47.269ZM151.036 44.345L150.236 44.945L150.242 44.9538L151.036 44.345ZM149.445 40.131V39.131H148.368L148.447 40.2049L149.445 40.131ZM156.712 40.131L157.706 40.0281L157.614 39.131H156.712V40.131ZM157.873 42.152L158.473 41.352L158.473 41.352L157.873 42.152ZM162.517 42.41L163.093 43.227L163.102 43.2207L162.517 42.41ZM162.216 39.486L161.783 40.3875L161.798 40.3947L161.813 40.4013L162.216 39.486ZM158.733 38.368L158.975 37.3979L158.968 37.3959L158.96 37.3942L158.733 38.368ZM154.433 37.121L154.061 38.0495L154.071 38.0535L154.082 38.0573L154.433 37.121ZM151.466 35.014L150.705 35.6629L150.71 35.6686L150.715 35.6741L151.466 35.014ZM151.337 27.36L150.508 26.8005L150.505 26.8053L151.337 27.36ZM154.691 24.651L154.286 23.7364L154.28 23.7394L154.691 24.651ZM167.075 25.898L166.42 26.6537L166.426 26.659L167.075 25.898ZM170.085 31.832V32.832H171.195L171.079 31.7279L170.085 31.832ZM163.291 31.832L162.3 31.9686L162.419 32.832H163.291V31.832ZM162.173 29.854L161.544 30.6312L161.552 30.6384L161.561 30.6453L162.173 29.854ZM157.787 29.639L158.353 30.463L158.37 30.4514L158.387 30.439L157.787 29.639ZM158.174 32.52L157.741 33.4215L157.748 33.4248L157.755 33.428L158.174 32.52ZM161.614 33.552L161.864 32.5837L161.847 32.5795L161.831 32.5758L161.614 33.552ZM165.957 34.928L165.577 35.8532L165.587 35.8574L165.598 35.8613L165.957 34.928ZM168.881 37.078L168.111 37.716L168.121 37.728L168.131 37.7396L168.881 37.078ZM170.214 41.034H171.214V41.0254L171.214 41.0168L170.214 41.034ZM169.01 44.818L168.197 44.2348L168.195 44.2388L169.01 44.818ZM165.613 47.398L165.223 46.477L165.217 46.4798L165.613 47.398ZM160.496 47.344C158.518 47.344 156.795 47.0056 155.307 46.3532L154.504 48.1848C156.285 48.9658 158.288 49.344 160.496 49.344V47.344ZM155.307 46.3532C153.805 45.6941 152.658 44.8165 151.829 43.7362L150.242 44.9538C151.305 46.3389 152.739 47.4106 154.504 48.1848L155.307 46.3532ZM151.836 43.745C151.003 42.634 150.542 41.4113 150.442 40.0571L148.447 40.2049C148.576 41.9467 149.177 43.5333 150.236 44.945L151.836 43.745ZM149.445 41.131H156.712V39.131H149.445V41.131ZM155.717 40.2339C155.833 41.3514 156.369 42.2743 157.273 42.952L158.473 41.352C158 40.9977 157.763 40.5732 157.706 40.0281L155.717 40.2339ZM157.273 42.952C158.162 43.6186 159.227 43.926 160.41 43.926V41.926C159.585 41.926 158.96 41.7174 158.473 41.352L157.273 42.952ZM160.41 43.926C161.43 43.926 162.369 43.7385 163.093 43.227L161.94 41.593C161.69 41.7695 161.224 41.926 160.41 41.926V43.926ZM163.102 43.2207C163.845 42.684 164.291 41.9244 164.291 40.991H162.291C162.291 41.2043 162.22 41.3906 161.931 41.5993L163.102 43.2207ZM164.291 40.991C164.291 40.4638 164.15 39.9574 163.836 39.5175C163.527 39.0859 163.098 38.7815 162.618 38.5707L161.813 40.4013C162.051 40.5058 162.158 40.61 162.208 40.68C162.252 40.7418 162.291 40.8302 162.291 40.991H164.291ZM162.648 38.5845C161.835 38.1942 160.592 37.802 158.975 37.3979L158.49 39.3381C160.084 39.7367 161.163 40.0898 161.783 40.3875L162.648 38.5845ZM158.96 37.3942C157.265 36.9988 155.877 36.5945 154.784 36.1847L154.082 38.0573C155.282 38.5075 156.76 38.9346 158.505 39.3418L158.96 37.3942ZM154.804 36.1925C153.806 35.7934 152.947 35.1842 152.217 34.3539L150.715 35.6741C151.648 36.7357 152.766 37.5313 154.061 38.0495L154.804 36.1925ZM152.227 34.3651C151.588 33.6166 151.219 32.5643 151.219 31.101H149.219C149.219 32.9057 149.681 34.462 150.705 35.6629L152.227 34.3651ZM151.219 31.101C151.219 29.9174 151.536 28.8643 152.169 27.9147L150.505 26.8053C149.647 28.0917 149.219 29.5326 149.219 31.101H151.219ZM152.166 27.9195C152.82 26.9498 153.782 26.158 155.102 25.5626L154.28 23.7394C152.676 24.4627 151.401 25.4768 150.508 26.8005L152.166 27.9195ZM155.095 25.5655C156.431 24.9747 158.05 24.662 159.98 24.662V22.662C157.839 22.662 155.932 23.0086 154.286 23.7365L155.095 25.5655ZM159.98 24.662C162.828 24.662 164.933 25.3655 166.42 26.6537L167.73 25.1423C165.776 23.4492 163.152 22.662 159.98 22.662V24.662ZM166.426 26.659C167.963 27.9694 168.857 29.704 169.09 31.9361L171.079 31.7279C170.797 29.0294 169.684 26.808 167.723 25.137L166.426 26.659ZM170.085 30.832H163.291V32.832H170.085V30.832ZM164.281 31.6954C164.133 30.6198 163.634 29.7193 162.784 29.0627L161.561 30.6453C161.973 30.9633 162.219 31.3815 162.3 31.9686L164.281 31.6954ZM162.802 29.0768C161.975 28.4074 160.929 28.123 159.765 28.123V30.123C160.608 30.123 161.166 30.3259 161.544 30.6312L162.802 29.0768ZM159.765 28.123C158.791 28.123 157.886 28.3147 157.187 28.839L158.387 30.439C158.605 30.2753 159.018 30.123 159.765 30.123V28.123ZM157.22 28.815C156.481 29.3234 156.099 30.0812 156.099 30.972H158.099C158.099 30.7161 158.176 30.5852 158.353 30.463L157.22 28.815ZM156.099 30.972C156.099 31.4996 156.24 32.004 156.546 32.4454C156.847 32.8785 157.267 33.1942 157.741 33.4215L158.606 31.6185C158.363 31.5018 158.246 31.3875 158.189 31.3046C158.137 31.23 158.099 31.1324 158.099 30.972H156.099ZM157.755 33.428C158.6 33.8179 159.831 34.1802 161.397 34.5282L161.831 32.5758C160.301 32.2358 159.238 31.91 158.593 31.612L157.755 33.428ZM161.364 34.5203C163.117 34.9727 164.517 35.4182 165.577 35.8532L166.336 34.0028C165.16 33.5204 163.665 33.0486 161.864 32.5837L161.364 34.5203ZM165.598 35.8613C166.542 36.2245 167.379 36.8328 168.111 37.716L169.651 36.44C168.72 35.3165 167.608 34.4915 166.316 33.9947L165.598 35.8613ZM168.131 37.7396C168.794 38.4909 169.188 39.5583 169.214 41.0512L171.214 41.0168C171.182 39.1844 170.688 37.6144 169.631 36.4164L168.131 37.7396ZM169.214 41.034C169.214 42.234 168.875 43.2905 168.197 44.2348L169.822 45.4012C170.749 44.1095 171.214 42.6433 171.214 41.034H169.214ZM168.195 44.2388C167.549 45.1478 166.579 45.9033 165.223 46.477L166.002 48.319C167.628 47.6314 168.923 46.6669 169.825 45.3972L168.195 44.2388ZM165.217 46.4798C163.904 47.0458 162.339 47.344 160.496 47.344V49.344C162.552 49.344 164.397 49.0115 166.009 48.3162L165.217 46.4798ZM188.085 41.765H189.085V40.765H188.085V41.765ZM188.085 48V49H189.085V48H188.085ZM178.109 46.065L177.447 46.814L177.455 46.8212L178.109 46.065ZM175.873 30.112H176.873V29.112H175.873V30.112ZM172.949 30.112H171.949V31.112H172.949V30.112ZM172.949 24.006V23.006H171.949V24.006H172.949ZM175.873 24.006V25.006H176.873V24.006H175.873ZM175.873 18.158V17.158H174.873V18.158H175.873ZM183.226 18.158H184.226V17.158H183.226V18.158ZM183.226 24.006H182.226V25.006H183.226V24.006ZM188.042 24.006H189.042V23.006H188.042V24.006ZM188.042 30.112V31.112H189.042V30.112H188.042ZM183.226 30.112V29.112H182.226V30.112H183.226ZM183.742 41.292L183.067 42.0292L183.067 42.0292L183.742 41.292ZM187.085 41.765V48H189.085V41.765H187.085ZM188.085 47H184.344V49H188.085V47ZM184.344 47C181.833 47 180.017 46.3936 178.764 45.3088L177.455 46.8212C179.183 48.3164 181.523 49 184.344 49V47ZM178.772 45.316C177.582 44.2636 176.873 42.4644 176.873 39.658H174.873C174.873 42.7569 175.655 45.2291 177.447 46.814L178.772 45.316ZM176.873 39.658V30.112H174.873V39.658H176.873ZM175.873 29.112H172.949V31.112H175.873V29.112ZM173.949 30.112V24.006H171.949V30.112H173.949ZM172.949 25.006H175.873V23.006H172.949V25.006ZM176.873 24.006V18.158H174.873V24.006H176.873ZM175.873 19.158H183.226V17.158H175.873V19.158ZM182.226 18.158V24.006H184.226V18.158H182.226ZM183.226 25.006H188.042V23.006H183.226V25.006ZM187.042 24.006V30.112H189.042V24.006H187.042ZM188.042 29.112H183.226V31.112H188.042V29.112ZM182.226 30.112V39.744H184.226V30.112H182.226ZM182.226 39.744C182.226 40.592 182.427 41.4429 183.067 42.0292L184.418 40.5548C184.37 40.5104 184.226 40.3294 184.226 39.744H182.226ZM183.067 42.0292C183.689 42.5995 184.575 42.765 185.462 42.765V40.765C184.744 40.765 184.484 40.6152 184.418 40.5548L183.067 42.0292ZM185.462 42.765H188.085V40.765H185.462V42.765ZM214.67 37.766V38.766H215.561L215.663 37.8806L214.67 37.766ZM198.029 37.766V36.766H196.949L197.032 37.8427L198.029 37.766ZM199.448 41.206L198.753 41.9254L198.766 41.9376L198.779 41.9493L199.448 41.206ZM206.414 40.045V39.045H205.775L205.507 39.6249L206.414 40.045ZM214.24 40.045L215.209 40.2917L215.526 39.045H214.24V40.045ZM212.047 44.302L211.282 43.6583L211.273 43.6688L212.047 44.302ZM208.134 47.269L208.548 48.1794L208.134 47.269ZM196.567 46.839L196.087 47.7164L196.087 47.7164L196.567 46.839ZM192.267 42.539L193.142 42.0545L193.142 42.0545L192.267 42.539ZM192.224 29.467L191.349 28.9825L191.344 28.9929L192.224 29.467ZM196.524 25.167L197.004 26.0444L197.004 26.0444L196.524 25.167ZM209.037 25.124L208.562 26.004L208.562 26.004L209.037 25.124ZM213.251 29.295L212.377 29.7807L212.383 29.7911L213.251 29.295ZM207.274 33.681V34.681H208.274V33.681H207.274ZM205.984 30.671L206.639 29.9153L206.639 29.9153L205.984 30.671ZM199.62 30.628L198.98 29.8598L198.973 29.8651L198.967 29.8706L199.62 30.628ZM198.072 33.681L197.083 33.5306L196.908 34.681H198.072V33.681ZM213.799 35.616C213.799 36.2624 213.759 36.9407 213.677 37.6514L215.663 37.8806C215.753 37.1006 215.799 36.3456 215.799 35.616H213.799ZM214.67 36.766H198.029V38.766H214.67V36.766ZM197.032 37.8427C197.16 39.5039 197.699 40.9077 198.753 41.9254L200.143 40.4866C199.534 39.899 199.128 39.0095 199.026 37.6893L197.032 37.8427ZM198.779 41.9493C199.835 42.9 201.125 43.367 202.587 43.367V41.367C201.584 41.367 200.781 41.06 200.117 40.4627L198.779 41.9493ZM202.587 43.367C203.645 43.367 204.612 43.1429 205.438 42.6414C206.27 42.1371 206.892 41.3928 207.321 40.4651L205.507 39.6249C205.219 40.2452 204.845 40.6619 204.401 40.9316C203.952 41.2041 203.363 41.367 202.587 41.367V43.367ZM206.414 41.045H214.24V39.045H206.414V41.045ZM213.271 39.7983C212.907 41.2271 212.247 42.5108 211.282 43.6584L212.812 44.9456C213.969 43.5705 214.77 42.0163 215.209 40.2917L213.271 39.7983ZM211.273 43.6688C210.344 44.8039 209.166 45.7014 207.72 46.3586L208.548 48.1794C210.255 47.4033 211.686 46.3228 212.821 44.9352L211.273 43.6688ZM207.72 46.3586C206.289 47.0092 204.67 47.344 202.845 47.344V49.344C204.919 49.344 206.826 48.9621 208.548 48.1794L207.72 46.3586ZM202.845 47.344C200.641 47.344 198.717 46.8749 197.047 45.9616L196.087 47.7164C198.087 48.8097 200.348 49.344 202.845 49.344V47.344ZM197.047 45.9616C195.382 45.051 194.084 43.7554 193.142 42.0545L191.392 43.0235C192.514 45.0493 194.083 46.6204 196.087 47.7164L197.047 45.9616ZM193.142 42.0545C192.205 40.363 191.719 38.3566 191.719 36.003H189.719C189.719 38.6374 190.265 40.9884 191.392 43.0235L193.142 42.0545ZM191.719 36.003C191.719 33.6449 192.193 31.6347 193.104 29.9411L191.344 28.9929C190.249 31.0259 189.719 33.3731 189.719 36.003H191.719ZM193.099 29.9515C194.041 28.2506 195.339 26.955 197.004 26.0444L196.044 24.2896C194.04 25.3856 192.471 26.9567 191.349 28.9825L193.099 29.9515ZM197.004 26.0444C198.672 25.132 200.61 24.662 202.845 24.662V22.662C200.321 22.662 198.045 23.1953 196.044 24.2896L197.004 26.0444ZM202.845 24.662C205.023 24.662 206.92 25.118 208.562 26.004L209.512 24.244C207.542 23.1807 205.311 22.662 202.845 22.662V24.662ZM208.562 26.004C210.199 26.8874 211.466 28.1403 212.377 29.7806L214.125 28.8094C213.03 26.8377 211.487 25.3099 209.512 24.244L208.562 26.004ZM212.383 29.7911C213.316 31.4237 213.799 33.3543 213.799 35.616H215.799C215.799 33.0617 215.25 30.7783 214.119 28.7989L212.383 29.7911ZM208.274 33.681C208.274 32.1649 207.743 30.8725 206.639 29.9153L205.329 31.4267C205.945 31.9601 206.274 32.6744 206.274 33.681H208.274ZM206.639 29.9153C205.573 28.9913 204.255 28.553 202.759 28.553V30.553C203.843 30.553 204.675 30.86 205.329 31.4267L206.639 29.9153ZM202.759 28.553C201.318 28.553 200.038 28.9779 198.98 29.8598L200.26 31.3962C200.922 30.8448 201.735 30.553 202.759 30.553V28.553ZM198.967 29.8706C197.918 30.7748 197.312 32.0289 197.083 33.5306L199.061 33.8314C199.233 32.6958 199.659 31.9146 200.273 31.3854L198.967 29.8706ZM198.072 34.681H207.274V32.681H198.072V34.681ZM226.031 28.005H225.031V31.3689L226.869 28.5513L226.031 28.005ZM229.256 24.909L229.756 25.7749L229.764 25.7707L229.771 25.7665L229.256 24.909ZM233.556 23.748H234.556V22.748H233.556V23.748ZM233.556 31.531V32.531H234.556V31.531H233.556ZM227.407 32.735L228.052 33.4993L228.059 33.4935L228.066 33.4876L227.407 32.735ZM226.031 48V49H227.031V48H226.031ZM218.678 48H217.678V49H218.678V48ZM218.678 24.006V23.006H217.678V24.006H218.678ZM226.031 24.006H227.031V23.006H226.031V24.006ZM226.869 28.5513C227.648 27.3565 228.61 26.4372 229.756 25.7749L228.756 24.0431C227.322 24.8715 226.134 26.0162 225.193 27.4587L226.869 28.5513ZM229.771 25.7665C230.898 25.0903 232.152 24.748 233.556 24.748V22.748C231.807 22.748 230.195 23.1797 228.742 24.0515L229.771 25.7665ZM232.556 23.748V31.531H234.556V23.748H232.556ZM233.556 30.531H231.535V32.531H233.556V30.531ZM231.535 30.531C229.577 30.531 227.921 30.9565 226.749 31.9824L228.066 33.4876C228.728 32.9081 229.824 32.531 231.535 32.531V30.531ZM226.762 31.9707C225.508 33.0288 225.031 34.7767 225.031 36.863H227.031C227.031 34.9933 227.471 33.9892 228.052 33.4993L226.762 31.9707ZM225.031 36.863V48H227.031V36.863H225.031ZM226.031 47H218.678V49H226.031V47ZM219.678 48V24.006H217.678V48H219.678ZM218.678 25.006H226.031V23.006H218.678V25.006ZM225.031 24.006V28.005H227.031V24.006H225.031Z" fill="#FFBE98" mask="url(#path-2-outside-1_138_1989)"/>
</g>
</g>
<defs>
<filter id="filter0_d_138_1989" x="0" y="5.15308" width="284" height="69.8369" filterUnits="userSpaceOnUse" color-interpolation-filters="sRGB">
<feFlood flood-opacity="0" result="BackgroundImageFix"/>
<feColorMatrix in="SourceAlpha" type="matrix" values="0 0 0 0 0 0 0 0 0 0 0 0 0 0 0 0 0 0 127 0" result="hardAlpha"/>
<feOffset dy="4"/>
<feGaussianBlur stdDeviation="2"/>
<feComposite in2="hardAlpha" operator="out"/>
<feColorMatrix type="matrix" values="0 0 0 0 0 0 0 0 0 0 0 0 0 0 0 0 0 0 0.25 0"/>
<feBlend mode="normal" in2="BackgroundImageFix" result="effect1_dropShadow_138_1989"/>
<feBlend mode="normal" in="SourceGraphic" in2="effect1_dropShadow_138_1989" result="shape"/>
</filter>
<linearGradient id="paint0_linear_138_1989" x1="4" y1="36.0715" x2="280" y2="36.0715" gradientUnits="userSpaceOnUse">
<stop stop-color="#FFBE98"/>
<stop offset="1" stop-color="#E2BFB3"/>
</linearGradient>
</defs>
</svg>
