<svg width="79" height="62" viewBox="0 0 79 62" fill="none" xmlns="http://www.w3.org/2000/svg">
<path d="M27.1562 0C19.954 0 13.0467 3.26606 7.95388 9.07969C2.8611 14.8933 0 22.7783 0 31C0 39.2217 2.8611 47.1067 7.95388 52.9203C13.0467 58.7339 19.954 62 27.1562 62H51.8438C59.046 62 65.9533 58.7339 71.0461 52.9203C76.1389 47.1067 79 39.2217 79 31C79 22.7783 76.1389 14.8933 71.0461 9.07969C65.9533 3.26606 59.046 0 51.8438 0H27.1562ZM19.75 19.7273C19.75 18.9798 20.0101 18.263 20.4731 17.7345C20.9361 17.206 21.564 16.9091 22.2188 16.9091C22.8735 16.9091 23.5014 17.206 23.9644 17.7345C24.4274 18.263 24.6875 18.9798 24.6875 19.7273V28.1818H32.0938C32.7485 28.1818 33.3764 28.4787 33.8394 29.0072C34.3024 29.5358 34.5625 30.2526 34.5625 31C34.5625 31.7474 34.3024 32.4642 33.8394 32.9928C33.3764 33.5213 32.7485 33.8182 32.0938 33.8182H24.6875V42.2727C24.6875 43.0202 24.4274 43.737 23.9644 44.2655C23.5014 44.794 22.8735 45.0909 22.2188 45.0909C21.564 45.0909 20.9361 44.794 20.4731 44.2655C20.0101 43.737 19.75 43.0202 19.75 42.2727V33.8182H12.3438C11.689 33.8182 11.0611 33.5213 10.5981 32.9928C10.1351 32.4642 9.875 31.7474 9.875 31C9.875 30.2526 10.1351 29.5358 10.5981 29.0072C11.0611 28.4787 11.689 28.1818 12.3438 28.1818H19.75V19.7273ZM64.1875 22.5455C64.1875 24.0403 63.6673 25.4739 62.7413 26.531C61.8154 27.588 60.5595 28.1818 59.25 28.1818C57.9405 28.1818 56.6846 27.588 55.7587 26.531C54.8327 25.4739 54.3125 24.0403 54.3125 22.5455C54.3125 21.0506 54.8327 19.617 55.7587 18.5599C56.6846 17.5029 57.9405 16.9091 59.25 16.9091C60.5595 16.9091 61.8154 17.5029 62.7413 18.5599C63.6673 19.617 64.1875 21.0506 64.1875 22.5455ZM49.375 45.0909C48.0655 45.0909 46.8096 44.4971 45.8837 43.4401C44.9577 42.383 44.4375 40.9494 44.4375 39.4545C44.4375 37.9597 44.9577 36.5261 45.8837 35.469C46.8096 34.412 48.0655 33.8182 49.375 33.8182C50.6845 33.8182 51.9404 34.412 52.8663 35.469C53.7923 36.5261 54.3125 37.9597 54.3125 39.4545C54.3125 40.9494 53.7923 42.383 52.8663 43.4401C51.9404 44.4971 50.6845 45.0909 49.375 45.0909Z" fill="#E2BFB3"/>
</svg>
