<svg width="46" height="37" viewBox="0 0 46 37" fill="none" xmlns="http://www.w3.org/2000/svg">
<rect x="2" y="2" width="42" height="33" rx="7" stroke="#E2BFB3" stroke-width="4"/>
<rect x="2" y="2" width="42" height="33" rx="7" stroke="#E26C28" stroke-width="4"/>
<g style="mix-blend-mode:plus-darker">
<path d="M7.16671 24.0417H6.66671V24.5417V26.9583V27.4583H7.16671H38.8334H39.3334V26.9583V24.5417V24.0417H38.8334H7.16671ZM8.78606 20.1055L9.14876 20.2652L9.38705 19.9486L10.3334 18.6911L11.2797 19.9486L11.518 20.2652L11.8807 20.1055L13.939 19.1993L14.5164 18.9451L14.137 18.441L13.3938 17.4533H15.0834H15.5834V16.9533V15.1408V14.6408H15.0834H13.3979L14.1361 13.6665L14.5183 13.162L13.939 12.907L11.8807 12.0007L11.5192 11.8416L11.2807 12.1564L10.3334 13.4067L9.38607 12.1564L9.14754 11.8416L8.78606 12.0007L6.72773 12.907L6.14843 13.162L6.53068 13.6665L7.26889 14.6408H5.58337H5.08337V15.1408V16.9533V17.4533H5.58337H7.27299L6.5297 18.441L6.15036 18.9451L6.72773 19.1993L8.78606 20.1055ZM19.1964 18.441L18.817 18.9451L19.3944 19.1993L21.4527 20.1055L21.8154 20.2652L22.0537 19.9486L23 18.6911L23.9464 19.9486L24.1847 20.2652L24.5474 20.1055L26.6057 19.1993L27.1831 18.9451L26.8037 18.441L26.0604 17.4533H27.75H28.25V16.9533V15.1408V14.6408H27.75H26.0645L26.8027 13.6665L27.185 13.162L26.6057 12.907L24.5474 12.0007L24.1859 11.8416L23.9473 12.1564L23 13.4067L22.0527 12.1564L21.8142 11.8416L21.4527 12.0007L19.3944 12.907L18.8151 13.162L19.1973 13.6665L19.9356 14.6408H18.25H17.75V15.1408V16.9533V17.4533H18.25H19.9397L19.1964 18.441ZM40.9167 15.1408V14.6408H40.4167H38.7312L39.4694 13.6665L39.8517 13.162L39.2724 12.907L37.214 12.0007L36.8525 11.8416L36.614 12.1564L35.6667 13.4067L34.7194 12.1564L34.4809 11.8416L34.1194 12.0007L32.0611 12.907L31.4818 13.162L31.864 13.6665L32.6022 14.6408H30.9167H30.4167V15.1408V16.9533V17.4533H30.9167H32.6063L31.863 18.441L31.4837 18.9451L32.0611 19.1993L34.1194 20.1055L34.4821 20.2652L34.7204 19.9486L35.6667 18.6911L36.613 19.9486L36.8513 20.2652L37.214 20.1055L39.2724 19.1993L39.8497 18.9451L39.4704 18.441L38.7271 17.4533H40.4167H40.9167V16.9533V15.1408Z" fill="#E26C28"/>
<path d="M7.16671 24.0417H6.66671V24.5417V26.9583V27.4583H7.16671H38.8334H39.3334V26.9583V24.5417V24.0417H38.8334H7.16671ZM8.78606 20.1055L9.14876 20.2652L9.38705 19.9486L10.3334 18.6911L11.2797 19.9486L11.518 20.2652L11.8807 20.1055L13.939 19.1993L14.5164 18.9451L14.137 18.441L13.3938 17.4533H15.0834H15.5834V16.9533V15.1408V14.6408H15.0834H13.3979L14.1361 13.6665L14.5183 13.162L13.939 12.907L11.8807 12.0007L11.5192 11.8416L11.2807 12.1564L10.3334 13.4067L9.38607 12.1564L9.14754 11.8416L8.78606 12.0007L6.72773 12.907L6.14843 13.162L6.53068 13.6665L7.26889 14.6408H5.58337H5.08337V15.1408V16.9533V17.4533H5.58337H7.27299L6.5297 18.441L6.15036 18.9451L6.72773 19.1993L8.78606 20.1055ZM19.1964 18.441L18.817 18.9451L19.3944 19.1993L21.4527 20.1055L21.8154 20.2652L22.0537 19.9486L23 18.6911L23.9464 19.9486L24.1847 20.2652L24.5474 20.1055L26.6057 19.1993L27.1831 18.9451L26.8037 18.441L26.0604 17.4533H27.75H28.25V16.9533V15.1408V14.6408H27.75H26.0645L26.8027 13.6665L27.185 13.162L26.6057 12.907L24.5474 12.0007L24.1859 11.8416L23.9473 12.1564L23 13.4067L22.0527 12.1564L21.8142 11.8416L21.4527 12.0007L19.3944 12.907L18.8151 13.162L19.1973 13.6665L19.9356 14.6408H18.25H17.75V15.1408V16.9533V17.4533H18.25H19.9397L19.1964 18.441ZM40.9167 15.1408V14.6408H40.4167H38.7312L39.4694 13.6665L39.8517 13.162L39.2724 12.907L37.214 12.0007L36.8525 11.8416L36.614 12.1564L35.6667 13.4067L34.7194 12.1564L34.4809 11.8416L34.1194 12.0007L32.0611 12.907L31.4818 13.162L31.864 13.6665L32.6022 14.6408H30.9167H30.4167V15.1408V16.9533V17.4533H30.9167H32.6063L31.863 18.441L31.4837 18.9451L32.0611 19.1993L34.1194 20.1055L34.4821 20.2652L34.7204 19.9486L35.6667 18.6911L36.613 19.9486L36.8513 20.2652L37.214 20.1055L39.2724 19.1993L39.8497 18.9451L39.4704 18.441L38.7271 17.4533H40.4167H40.9167V16.9533V15.1408Z" stroke="#E26C28"/>
</g>
</svg>
