<svg width="57" height="42" viewBox="0 0 57 42" fill="none" xmlns="http://www.w3.org/2000/svg">
<g style="mix-blend-mode:plus-darker">
<path d="M28.7498 23.9331L49.6666 11.8657V35.5H7.33329V11.8657L28.2501 23.9331L28.5 24.0772L28.7498 23.9331ZM56.0833 6C56.0833 2.93693 53.3835 0.5 50.1666 0.5H6.83329C3.61642 0.5 0.916626 2.93693 0.916626 6V36C0.916626 39.0631 3.61642 41.5 6.83329 41.5H50.1666C53.3835 41.5 56.0833 39.0631 56.0833 36V6ZM28.5 17.9228L8.70052 6.5H48.2994L28.5 17.9228Z" fill="#E2BFB3"/>
<path d="M28.7498 23.9331L49.6666 11.8657V35.5H7.33329V11.8657L28.2501 23.9331L28.5 24.0772L28.7498 23.9331ZM56.0833 6C56.0833 2.93693 53.3835 0.5 50.1666 0.5H6.83329C3.61642 0.5 0.916626 2.93693 0.916626 6V36C0.916626 39.0631 3.61642 41.5 6.83329 41.5H50.1666C53.3835 41.5 56.0833 39.0631 56.0833 36V6ZM28.5 17.9228L8.70052 6.5H48.2994L28.5 17.9228Z" fill="#E26C28"/>
<path d="M28.7498 23.9331L49.6666 11.8657V35.5H7.33329V11.8657L28.2501 23.9331L28.5 24.0772L28.7498 23.9331ZM56.0833 6C56.0833 2.93693 53.3835 0.5 50.1666 0.5H6.83329C3.61642 0.5 0.916626 2.93693 0.916626 6V36C0.916626 39.0631 3.61642 41.5 6.83329 41.5H50.1666C53.3835 41.5 56.0833 39.0631 56.0833 36V6ZM28.5 17.9228L8.70052 6.5H48.2994L28.5 17.9228Z" stroke="#E2BFB3"/>
</g>
</svg>
