<svg width="48" height="38" viewBox="0 0 48 38" fill="none" xmlns="http://www.w3.org/2000/svg">
<g style="mix-blend-mode:plus-darker">
<g clip-path="url(#clip0_138_1977)">
<mask id="mask0_138_1977" style="mask-type:luminance" maskUnits="userSpaceOnUse" x="0" y="0" width="48" height="38">
<path d="M0 0H48V38H0V0Z" fill="white"/>
</mask>
<g mask="url(#mask0_138_1977)">
<path fill-rule="evenodd" clip-rule="evenodd" d="M48 0H0V38H48V0ZM26.42 27.5183C20.76 25.2225 16.12 21.565 13.24 17.0842L17.64 13.6008C18.2 13.1575 18.36 12.54 18.14 11.9858C17.3813 10.1619 16.9964 8.2536 17 6.33333C17 5.4625 16.1 4.75 15 4.75H8C6.9 4.75 6 5.4625 6 6.33333C6 21.2008 21.22 33.25 40 33.25C41.1 33.25 42 32.5375 42 31.6667V26.1408C42 25.27 41.1 24.5575 40 24.5575C37.52 24.5575 35.1 24.2408 32.86 23.655C32.16 23.465 31.36 23.6075 30.82 24.035L26.42 27.5183Z" fill="#E2BFB3"/>
<path fill-rule="evenodd" clip-rule="evenodd" d="M48 0H0V38H48V0ZM26.42 27.5183C20.76 25.2225 16.12 21.565 13.24 17.0842L17.64 13.6008C18.2 13.1575 18.36 12.54 18.14 11.9858C17.3813 10.1619 16.9964 8.2536 17 6.33333C17 5.4625 16.1 4.75 15 4.75H8C6.9 4.75 6 5.4625 6 6.33333C6 21.2008 21.22 33.25 40 33.25C41.1 33.25 42 32.5375 42 31.6667V26.1408C42 25.27 41.1 24.5575 40 24.5575C37.52 24.5575 35.1 24.2408 32.86 23.655C32.16 23.465 31.36 23.6075 30.82 24.035L26.42 27.5183Z" fill="#E26C28"/>
</g>
</g>
</g>
<defs>
<clipPath id="clip0_138_1977">
<rect width="48" height="38" rx="5" fill="white"/>
</clipPath>
</defs>
</svg>
