<svg width="80" height="80" viewBox="0 0 80 80" fill="none" xmlns="http://www.w3.org/2000/svg">
<circle cx="40" cy="40" r="40" fill="#E26C28"/>
<g style="mix-blend-mode:multiply">
<path d="M10 18C10 15.2386 12.2386 13 15 13H66C68.7614 13 71 15.2386 71 18V59C71 61.7614 68.7614 64 66 64H15C12.2386 64 10 61.7614 10 59V18ZM21.7778 17.6364C19.0164 17.6364 16.7778 19.8749 16.7778 22.6364V54.3636C16.7778 57.1251 19.0164 59.3636 21.7778 59.3636H59.2222C61.9836 59.3636 64.2222 57.1251 64.2222 54.3636V22.6364C64.2222 19.8749 61.9836 17.6364 59.2222 17.6364H21.7778ZM26.9444 29.2273C26.9444 27.947 27.9823 26.9091 29.2626 26.9091H51.7374C53.0177 26.9091 54.0556 27.947 54.0556 29.2273V29.2273C54.0556 30.5076 53.0177 31.5455 51.7374 31.5455H29.2626C27.9823 31.5455 26.9444 30.5076 26.9444 29.2273V29.2273ZM26.9444 38.5C26.9444 37.2197 27.9823 36.1818 29.2626 36.1818H51.7374C53.0177 36.1818 54.0556 37.2197 54.0556 38.5V38.5C54.0556 39.7803 53.0177 40.8182 51.7374 40.8182H29.2626C27.9823 40.8182 26.9444 39.7803 26.9444 38.5V38.5ZM26.9444 47.7727C26.9444 46.4924 27.9823 45.4545 29.2626 45.4545H51.7374C53.0177 45.4545 54.0556 46.4924 54.0556 47.7727V47.7727C54.0556 49.053 53.0177 50.0909 51.7374 50.0909H29.2626C27.9823 50.0909 26.9444 49.053 26.9444 47.7727V47.7727Z" fill="#B8A59F"/>
<path d="M15 13.5H66C68.4853 13.5 70.5 15.5147 70.5 18V59C70.5 61.4853 68.4853 63.5 66 63.5H15C12.5147 63.5 10.5 61.4853 10.5 59V18C10.5 15.5147 12.5147 13.5 15 13.5ZM16.2778 22.6364V54.3636C16.2778 57.4012 18.7402 59.8636 21.7778 59.8636H59.2222C62.2598 59.8636 64.7222 57.4012 64.7222 54.3636V22.6364C64.7222 19.5988 62.2598 17.1364 59.2222 17.1364H21.7778C18.7402 17.1364 16.2778 19.5988 16.2778 22.6364ZM29.2626 27.4091H51.7374C52.7415 27.4091 53.5556 28.2231 53.5556 29.2273C53.5556 30.2314 52.7415 31.0455 51.7374 31.0455H29.2626C28.2585 31.0455 27.4444 30.2314 27.4444 29.2273C27.4444 28.2231 28.2585 27.4091 29.2626 27.4091ZM29.2626 36.6818H51.7374C52.7415 36.6818 53.5556 37.4958 53.5556 38.5C53.5556 39.5042 52.7415 40.3182 51.7374 40.3182H29.2626C28.2585 40.3182 27.4444 39.5042 27.4444 38.5C27.4444 37.4958 28.2585 36.6818 29.2626 36.6818ZM29.2626 45.9545H51.7374C52.7415 45.9545 53.5556 46.7686 53.5556 47.7727C53.5556 48.7769 52.7415 49.5909 51.7374 49.5909H29.2626C28.2585 49.5909 27.4444 48.7769 27.4444 47.7727C27.4444 46.7686 28.2585 45.9545 29.2626 45.9545Z" stroke="#656565" stroke-opacity="0.5"/>
</g>
</svg>
