<svg width="30" height="32" viewBox="0 0 30 32" fill="none" xmlns="http://www.w3.org/2000/svg">
<path d="M29.506 28.9591L22.9179 21.9292C24.8932 19.1836 25.8155 15.7393 25.4975 12.2952C25.1796 8.85097 23.6452 5.66474 21.2058 3.3828C18.7663 1.10086 15.6044 -0.105904 12.3615 0.00730101C9.11854 0.120506 6.03738 1.5452 3.74304 3.99239C1.44869 6.43957 0.112979 9.72599 0.00684501 13.185C-0.0992893 16.644 1.03211 20.0165 3.17152 22.6185C5.31093 25.2204 8.29817 26.857 11.5272 27.1961C14.7563 27.5352 17.9854 26.5515 20.5595 24.4446L27.1532 31.479C27.3081 31.6442 27.4919 31.7752 27.6942 31.8646C27.8965 31.954 28.1134 32 28.3324 32C28.5514 32 28.7682 31.954 28.9706 31.8646C29.1729 31.7752 29.3567 31.6442 29.5116 31.479C29.6664 31.3139 29.7893 31.1178 29.8731 30.902C29.9569 30.6862 30 30.4549 30 30.2213C30 29.9877 29.9569 29.7564 29.8731 29.5406C29.7893 29.3248 29.6664 29.1287 29.5116 28.9636L29.506 28.9591ZM3.35743 13.6429C3.35743 11.6529 3.91069 9.70754 4.94725 8.05287C5.9838 6.39821 7.4571 5.10856 9.18083 4.347C10.9046 3.58545 12.8013 3.38619 14.6312 3.77443C16.4611 4.16267 18.142 5.12096 19.4613 6.52814C20.7806 7.93531 21.679 9.72816 22.043 11.68C22.407 13.6318 22.2202 15.6549 21.5062 17.4934C20.7922 19.332 19.5831 20.9034 18.0318 22.0091C16.4804 23.1147 14.6566 23.7048 12.7908 23.7048C10.2897 23.702 7.8918 22.6411 6.12325 20.7547C4.3547 18.8683 3.36 16.3107 3.35743 13.6429Z" fill="white"/>
</svg>
