<svg width="30" height="32" viewBox="0 0 30 32" fill="none" xmlns="http://www.w3.org/2000/svg">
<path d="M5.60571 32C4.64571 32 3.82857 31.6807 3.15429 31.0422C2.48 30.4037 2.14286 29.6306 2.14286 28.7229V3.59163H0V1.56246H8.57143V0H21.4286V1.56246H30V3.59163H27.8571V28.7229C27.8571 29.6563 27.5271 30.4362 26.8671 31.0625C26.2071 31.6889 25.3829 32.0014 24.3943 32H5.60571ZM25.7143 3.59163H4.28571V28.7229C4.28571 29.0868 4.40929 29.3858 4.65643 29.6198C4.90357 29.8538 5.22 29.9708 5.60571 29.9708H24.3964C24.725 29.9708 25.0271 29.841 25.3029 29.5812C25.5786 29.3215 25.7157 29.0347 25.7143 28.7209V3.59163ZM10.3029 25.9125H12.4457V7.64997H10.3029V25.9125ZM17.5543 25.9125H19.6971V7.64997H17.5543V25.9125Z" fill="white"/>
</svg>
