<svg width="126" height="31" viewBox="0 0 126 31" fill="none" xmlns="http://www.w3.org/2000/svg">
<path d="M32.5199 28.3936L32.5456 28.4175L32.5495 28.4202C32.6627 28.5305 32.7512 28.6574 32.8121 28.7938C32.8771 28.9392 32.91 29.0937 32.91 29.2486C32.91 29.4035 32.8771 29.5579 32.8121 29.7033C32.7471 29.8489 32.6506 29.9838 32.5261 30.0991C32.4016 30.2145 32.2518 30.3079 32.0843 30.3722C31.9168 30.4365 31.7361 30.47 31.5528 30.47C31.3696 30.47 31.1889 30.4365 31.0214 30.3722C30.8539 30.3079 30.704 30.2145 30.5795 30.0991L23.2364 23.2911L22.9381 23.0146L22.6067 23.2504C19.8401 25.2182 16.3635 26.1404 12.8829 25.8228C9.40248 25.5051 6.19046 23.9727 3.89521 21.5468C1.60107 19.1221 0.394021 15.9869 0.507312 12.7782C0.620609 9.56939 2.04648 6.51259 4.5084 4.23058C6.97138 1.94757 10.286 0.612882 13.7817 0.506836C17.2775 0.400789 20.6805 1.53177 23.3008 3.66189C25.9201 5.79118 27.5591 8.75661 27.8985 11.9522C28.2379 15.1473 27.2545 18.3476 25.1377 20.9045L24.8363 21.2685L25.1829 21.5899L32.5199 28.3936ZM3.23906 13.2038L3.23906 13.2044C3.24208 15.9314 4.41247 18.5375 6.47936 20.4534C8.54498 22.368 11.3381 23.439 14.2443 23.4418H14.2447C16.4134 23.4418 18.5361 22.8459 20.3446 21.7257C22.1535 20.6054 23.5694 19.0092 24.4072 17.1344C25.2453 15.259 25.4653 13.1929 25.0374 11.1991C24.6097 9.20575 23.5549 7.38033 22.0133 5.95132C20.472 4.52268 18.5127 3.55354 16.385 3.16123C14.2573 2.76893 12.0515 2.96999 10.0452 3.74031C8.03868 4.51069 6.3177 5.81757 5.10398 7.50129C3.88987 9.18555 3.23906 11.1701 3.23906 13.2038Z" fill="white" stroke="white"/>
<path d="M79.2857 8.01227L79.2858 8.01234C79.486 8.19789 79.6426 8.4161 79.7487 8.65343C79.8547 8.89065 79.9087 9.1434 79.9087 9.39762C79.9087 9.65184 79.8547 9.90459 79.7487 10.1418C79.6426 10.3791 79.486 10.5973 79.2858 10.7829L79.2858 10.7829L58.6874 29.8762L58.6859 29.8776C58.4869 30.0636 58.2479 30.2129 57.9819 30.3151C57.7159 30.4174 57.4294 30.47 57.1395 30.4691H57.138H49.6727C49.0848 30.4691 48.5278 30.2523 48.1227 29.8768C47.719 29.5025 47.5 29.0034 47.5 28.4917L47.5 21.5719L47.5 21.5702C47.4991 21.3165 47.5526 21.0642 47.6585 20.8275C47.7644 20.5908 47.9212 20.3732 48.1219 20.1887L48.1234 20.1873L68.7217 1.09251L68.7218 1.09248C68.922 0.906824 69.1618 0.757729 69.4282 0.655405C69.6947 0.553069 69.9815 0.5 70.272 0.5C70.5624 0.5 70.8492 0.553069 71.1157 0.655405C71.3821 0.757729 71.6219 0.906824 71.8221 1.09248L72.1603 0.727784L71.8221 1.09248L79.2857 8.01227ZM49.8858 20.6927L49.49 21.0595L49.8859 21.4262L52.6739 24.0089L53.0137 24.3237L53.3535 24.0088L67.5006 10.897L67.8963 10.5303L67.5006 10.1636L64.7126 7.5793L64.3727 7.26423L64.0328 7.5793L49.8858 20.6927ZM50.0126 23.6826L49.1727 22.9041V24.0493V28.4917V28.9917H49.6727H54.4653H55.7402L54.8052 28.125L50.0126 23.6826ZM57.351 28.3458L57.6909 28.6609L58.0308 28.3458L72.1779 15.2325L72.5735 14.8658L72.1779 14.4991L69.3899 11.9148L69.05 11.5997L68.7101 11.9148L54.563 25.0282L54.1674 25.3949L54.563 25.7616L57.351 28.3458ZM73.3874 13.4812L73.7274 13.7964L74.0673 13.4812L78.0764 9.76347L78.4718 9.39673L78.0762 9.03011L70.611 2.11187L70.2711 1.79688L69.9312 2.11191L65.9221 5.82806L65.5265 6.19476L65.9221 6.56146L73.3874 13.4812Z" fill="white" stroke="white"/>
<mask id="path-3-inside-1_138_2512" fill="white">
<path d="M108.529 11.6138H110.617V23.2275H108.529V11.6138ZM114.793 11.6138H116.881V23.2275H114.793V11.6138Z"/>
</mask>
<path d="M108.529 11.6138H110.617V23.2275H108.529V11.6138ZM114.793 11.6138H116.881V23.2275H114.793V11.6138Z" fill="white"/>
<path d="M108.529 11.6138V3.61377H100.529V11.6138H108.529ZM110.617 11.6138H118.617V3.61377H110.617V11.6138ZM110.617 23.2275V31.2275H118.617V23.2275H110.617ZM108.529 23.2275H100.529V31.2275H108.529V23.2275ZM114.793 11.6138V3.61377H106.793V11.6138H114.793ZM116.881 11.6138H124.881V3.61377H116.881V11.6138ZM116.881 23.2275V31.2275H124.881V23.2275H116.881ZM114.793 23.2275H106.793V31.2275H114.793V23.2275ZM108.529 19.6138H110.617V3.61377H108.529V19.6138ZM102.617 11.6138V23.2275H118.617V11.6138H102.617ZM110.617 15.2275H108.529V31.2275H110.617V15.2275ZM116.529 23.2275V11.6138H100.529V23.2275H116.529ZM114.793 19.6138H116.881V3.61377H114.793V19.6138ZM108.881 11.6138V23.2275H124.881V11.6138H108.881ZM116.881 15.2275H114.793V31.2275H116.881V15.2275ZM122.793 23.2275V11.6138H106.793V23.2275H122.793Z" fill="white" mask="url(#path-3-inside-1_138_2512)"/>
<mask id="path-5-inside-2_138_2512" fill="white">
<path d="M100.176 5.80692V7.74254H102.264V27.0988C102.264 27.6122 102.484 28.1045 102.876 28.4675C103.268 28.8305 103.799 29.0344 104.353 29.0344H121.058C121.611 29.0344 122.142 28.8305 122.534 28.4675C122.926 28.1045 123.146 27.6122 123.146 27.0988V7.74254H125.234V5.80692H100.176ZM104.353 27.0988V7.74254H121.058V27.0988H104.353ZM108.529 1.93567H116.881V3.87129H108.529V1.93567Z"/>
</mask>
<path d="M100.176 5.80692V7.74254H102.264V27.0988C102.264 27.6122 102.484 28.1045 102.876 28.4675C103.268 28.8305 103.799 29.0344 104.353 29.0344H121.058C121.611 29.0344 122.142 28.8305 122.534 28.4675C122.926 28.1045 123.146 27.6122 123.146 27.0988V7.74254H125.234V5.80692H100.176ZM104.353 27.0988V7.74254H121.058V27.0988H104.353ZM108.529 1.93567H116.881V3.87129H108.529V1.93567Z" fill="white"/>
<path d="M100.176 5.80692V-2.19308H92.1763V5.80692H100.176ZM100.176 7.74254H92.1763V15.7425H100.176V7.74254ZM102.264 7.74254H110.264V-0.257456H102.264V7.74254ZM102.264 27.0988L94.2644 27.0988L102.264 27.0988ZM123.146 7.74254V-0.257456H115.146V7.74254H123.146ZM125.234 7.74254V15.7425H133.234V7.74254H125.234ZM125.234 5.80692H133.234V-2.19308H125.234V5.80692ZM104.353 27.0988H96.3525V35.0988H104.353V27.0988ZM104.353 7.74254V-0.257456H96.3525V7.74254H104.353ZM121.058 7.74254H129.058V-0.257456H121.058V7.74254ZM121.058 27.0988V35.0988H129.058V27.0988H121.058ZM108.529 1.93567V-6.06433H100.529V1.93567H108.529ZM116.881 1.93567H124.881V-6.06433H116.881V1.93567ZM116.881 3.87129V11.8713H124.881V3.87129H116.881ZM108.529 3.87129H100.529V11.8713H108.529V3.87129ZM92.1763 5.80692V7.74254H108.176V5.80692H92.1763ZM100.176 15.7425H102.264V-0.257456H100.176V15.7425ZM94.2644 7.74254V27.0988H110.264V7.74254H94.2644ZM94.2644 27.0988C94.2644 29.9381 95.4867 32.5262 97.4374 34.3345L108.315 22.6004C109.482 23.6827 110.264 25.2862 110.264 27.0988L94.2644 27.0988ZM97.4374 34.3345C99.3678 36.1239 101.865 37.0344 104.353 37.0344V21.0344C105.733 21.0344 107.167 21.5371 108.315 22.6004L97.4374 34.3345ZM104.353 37.0344H121.058V21.0344H104.353V37.0344ZM121.058 37.0344C123.546 37.0344 126.042 36.1239 127.973 34.3345L117.095 22.6004C118.243 21.5371 119.677 21.0344 121.058 21.0344V37.0344ZM127.973 34.3345C129.923 32.5262 131.146 29.9381 131.146 27.0988H115.146C115.146 25.2862 115.928 23.6827 117.095 22.6004L127.973 34.3345ZM131.146 27.0988V7.74254H115.146V27.0988H131.146ZM123.146 15.7425H125.234V-0.257456H123.146V15.7425ZM133.234 7.74254V5.80692H117.234V7.74254H133.234ZM125.234 -2.19308H100.176V13.8069H125.234V-2.19308ZM112.353 27.0988V7.74254H96.3525V27.0988H112.353ZM104.353 15.7425H121.058V-0.257456H104.353V15.7425ZM113.058 7.74254V27.0988H129.058V7.74254H113.058ZM121.058 19.0988H104.353V35.0988H121.058V19.0988ZM108.529 9.93567H116.881V-6.06433H108.529V9.93567ZM108.881 1.93567V3.87129H124.881V1.93567H108.881ZM116.881 -4.12871H108.529V11.8713H116.881V-4.12871ZM116.529 3.87129V1.93567H100.529V3.87129H116.529Z" fill="white" mask="url(#path-5-inside-2_138_2512)"/>
</svg>
