<svg width="84" height="73" viewBox="0 0 84 73" fill="none" xmlns="http://www.w3.org/2000/svg">
<g clip-path="url(#clip0_139_791)">
<path d="M2.63451 63.7744C1.2573 62.5775 0.5 60.9705 0.5 59.3125V27.375C0.5 25.717 1.2573 24.11 2.63451 22.9131C4.01394 21.7143 5.89813 21.0312 7.875 21.0312H76.125C78.1019 21.0312 79.9861 21.7143 81.3655 22.9131C82.7427 24.11 83.5 25.717 83.5 27.375V59.3125C83.5 60.9705 82.7427 62.5775 81.3655 63.7744C79.9861 64.9732 78.1019 65.6562 76.125 65.6562H7.875C5.89813 65.6562 4.01394 64.9732 2.63451 63.7744ZM11.5968 14.9232C11.2042 14.582 11 14.1355 11 13.6875C11 13.2395 11.2042 12.793 11.5968 12.4518C11.9917 12.1087 12.5405 11.9062 13.125 11.9062H70.875C71.4595 11.9062 72.0083 12.1087 72.4032 12.4518C72.7958 12.793 73 13.2395 73 13.6875C73 14.1355 72.7958 14.582 72.4032 14.9232C72.0083 15.2663 71.4595 15.4688 70.875 15.4688H13.125C12.5405 15.4688 11.9917 15.2663 11.5968 14.9232ZM22.0968 5.79819C21.7042 5.45696 21.5 5.01046 21.5 4.5625C21.5 4.11454 21.7042 3.66804 22.0968 3.32681C22.4917 2.98366 23.0405 2.78125 23.625 2.78125H60.375C60.9595 2.78125 61.5083 2.98366 61.9032 3.32681C62.2958 3.66804 62.5 4.11454 62.5 4.5625C62.5 5.01046 62.2958 5.45696 61.9032 5.79819C61.5083 6.14134 60.9595 6.34375 60.375 6.34375H23.625C23.0405 6.34375 22.4917 6.14134 22.0968 5.79819Z" fill="#E2BFB3" stroke="#E2BFB3"/>
</g>
<defs>
<clipPath id="clip0_139_791">
<rect width="84" height="73" fill="white"/>
</clipPath>
</defs>
</svg>
