<svg width="37" height="26" viewBox="0 0 37 26" fill="none" xmlns="http://www.w3.org/2000/svg">
<path d="M4.08263 4.15728C6.37498 1.81424 9.48171 0.5 12.7188 0.5H24.2812C27.5183 0.5 30.625 1.81424 32.9174 4.15728C35.2101 6.50068 36.5 9.68131 36.5 13C36.5 16.3187 35.2101 19.4993 32.9174 21.8427C30.625 24.1858 27.5183 25.5 24.2812 25.5H12.7188C9.48171 25.5 6.37498 24.1858 4.08263 21.8427C1.78993 19.4993 0.5 16.3187 0.5 13C0.5 9.68131 1.78993 6.50068 4.08263 4.15728ZM9.23126 7.08739C8.9219 7.40359 8.75 7.83017 8.75 8.27273V11.3182H5.78125C5.33841 11.3182 4.91598 11.4981 4.60626 11.8147C4.2969 12.1309 4.125 12.5574 4.125 13C4.125 13.4426 4.2969 13.8691 4.60626 14.1853C4.91598 14.5019 5.33841 14.6818 5.78125 14.6818H8.75V17.7273C8.75 18.1698 8.9219 18.5964 9.23126 18.9126C9.54098 19.2292 9.96341 19.4091 10.4062 19.4091C10.8491 19.4091 11.2715 19.2292 11.5812 18.9126C11.8906 18.5964 12.0625 18.1698 12.0625 17.7273V14.6818H15.0312C15.4741 14.6818 15.8965 14.5019 16.2062 14.1853C16.5156 13.8691 16.6875 13.4426 16.6875 13C16.6875 12.5574 16.5156 12.1309 16.2062 11.8147C15.8965 11.4981 15.4741 11.3182 15.0312 11.3182H12.0625V8.27273C12.0625 7.83017 11.8906 7.40359 11.5812 7.08739C11.2715 6.77082 10.8491 6.59091 10.4062 6.59091C9.96341 6.59091 9.54098 6.77082 9.23126 7.08739ZM29.7426 11.4756C30.2688 10.9377 30.5625 10.2105 30.5625 9.45455C30.5625 8.69855 30.2688 7.97137 29.7426 7.43354C29.216 6.89533 28.4995 6.59091 27.75 6.59091C27.0005 6.59091 26.284 6.89533 25.7574 7.43354C25.2312 7.97137 24.9375 8.69855 24.9375 9.45455C24.9375 10.2105 25.2312 10.9377 25.7574 11.4756C26.284 12.0138 27.0005 12.3182 27.75 12.3182C28.4995 12.3182 29.216 12.0138 29.7426 11.4756ZM21.1324 18.5665C21.659 19.1047 22.3755 19.4091 23.125 19.4091C23.8745 19.4091 24.591 19.1047 25.1176 18.5665C25.6438 18.0286 25.9375 17.3015 25.9375 16.5455C25.9375 15.7895 25.6438 15.0623 25.1176 14.5244C24.591 13.9862 23.8745 13.6818 23.125 13.6818C22.3755 13.6818 21.659 13.9862 21.1324 14.5244C20.6062 15.0623 20.3125 15.7895 20.3125 16.5455C20.3125 17.3015 20.6062 18.0286 21.1324 18.5665Z" fill="#FEECE2" stroke="white"/>
</svg>
