<svg width="284" height="73" viewBox="0 0 284 73" fill="none" xmlns="http://www.w3.org/2000/svg">
<g filter="url(#filter0_d_138_1989)">
<rect x="4" y="3.15308" width="276" height="61.8369" rx="30.9185" fill="url(#paint0_linear_138_1989)" fill-opacity="0.8"/>
<g style="mix-blend-mode:plus-darker">
<mask id="path-2-outside-1_138_1989" maskUnits="userSpaceOnUse" x="84" y="12" width="117" height="49" fill="black">
<rect fill="white" x="84" y="12" width="117" height="49"/>
<path d="M93.019 42.324H102.651V48H85.666V17.814H93.019V42.324ZM117.08 48.344C114.73 48.344 112.608 47.8423 110.716 46.839C108.853 45.8357 107.377 44.4023 106.287 42.539C105.227 40.6757 104.696 38.497 104.696 36.003C104.696 33.5377 105.241 31.3733 106.33 29.51C107.42 27.618 108.91 26.1703 110.802 25.167C112.694 24.1637 114.816 23.662 117.166 23.662C119.517 23.662 121.638 24.1637 123.53 25.167C125.422 26.1703 126.913 27.618 128.002 29.51C129.092 31.3733 129.636 33.5377 129.636 36.003C129.636 38.4683 129.077 40.647 127.959 42.539C126.87 44.4023 125.365 45.8357 123.444 46.839C121.552 47.8423 119.431 48.344 117.08 48.344ZM117.08 41.98C118.485 41.98 119.675 41.464 120.649 40.432C121.653 39.4 122.154 37.9237 122.154 36.003C122.154 34.0823 121.667 32.606 120.692 31.574C119.746 30.542 118.571 30.026 117.166 30.026C115.733 30.026 114.543 30.542 113.597 31.574C112.651 32.5773 112.178 34.0537 112.178 36.003C112.178 37.9237 112.637 39.4 113.554 40.432C114.5 41.464 115.676 41.98 117.08 41.98ZM142.653 23.662C144.344 23.662 145.821 24.006 147.082 24.694C148.372 25.382 149.361 26.285 150.049 27.403V24.006H157.402V47.957C157.402 50.1643 156.958 52.1567 156.069 53.934C155.209 55.74 153.876 57.1733 152.07 58.234C150.293 59.2947 148.071 59.825 145.405 59.825C141.85 59.825 138.969 58.9793 136.762 57.288C134.555 55.6253 133.293 53.3607 132.978 50.494H140.245C140.474 51.4113 141.019 52.128 141.879 52.644C142.739 53.1887 143.8 53.461 145.061 53.461C146.58 53.461 147.784 53.0167 148.673 52.128C149.59 51.268 150.049 49.8777 150.049 47.957V44.56C149.332 45.678 148.343 46.5953 147.082 47.312C145.821 48 144.344 48.344 142.653 48.344C140.675 48.344 138.883 47.8423 137.278 46.839C135.673 45.807 134.397 44.3593 133.451 42.496C132.534 40.604 132.075 38.4253 132.075 35.96C132.075 33.4947 132.534 31.3303 133.451 29.467C134.397 27.6037 135.673 26.1703 137.278 25.167C138.883 24.1637 140.675 23.662 142.653 23.662ZM150.049 36.003C150.049 34.1683 149.533 32.7207 148.501 31.66C147.498 30.5993 146.265 30.069 144.803 30.069C143.341 30.069 142.094 30.5993 141.062 31.66C140.059 32.692 139.557 34.1253 139.557 35.96C139.557 37.7947 140.059 39.2567 141.062 40.346C142.094 41.4067 143.341 41.937 144.803 41.937C146.265 41.937 147.498 41.4067 148.501 40.346C149.533 39.2853 150.049 37.8377 150.049 36.003ZM166.42 21.512C165.13 21.512 164.069 21.1393 163.238 20.394C162.435 19.62 162.034 18.674 162.034 17.556C162.034 16.4093 162.435 15.4633 163.238 14.718C164.069 13.944 165.13 13.557 166.42 13.557C167.681 13.557 168.713 13.944 169.516 14.718C170.347 15.4633 170.763 16.4093 170.763 17.556C170.763 18.674 170.347 19.62 169.516 20.394C168.713 21.1393 167.681 21.512 166.42 21.512ZM170.075 24.006V48H162.722V24.006H170.075ZM190.023 23.748C192.833 23.748 195.069 24.6653 196.731 26.5C198.423 28.306 199.268 30.8 199.268 33.982V48H191.958V34.971C191.958 33.3657 191.543 32.1187 190.711 31.23C189.88 30.3413 188.762 29.897 187.357 29.897C185.953 29.897 184.835 30.3413 184.003 31.23C183.172 32.1187 182.756 33.3657 182.756 34.971V48H175.403V24.006H182.756V27.188C183.502 26.1273 184.505 25.296 185.766 24.694C187.028 24.0633 188.447 23.748 190.023 23.748Z"/>
</mask>
<path d="M93.019 42.324H102.651V48H85.666V17.814H93.019V42.324ZM117.08 48.344C114.73 48.344 112.608 47.8423 110.716 46.839C108.853 45.8357 107.377 44.4023 106.287 42.539C105.227 40.6757 104.696 38.497 104.696 36.003C104.696 33.5377 105.241 31.3733 106.33 29.51C107.42 27.618 108.91 26.1703 110.802 25.167C112.694 24.1637 114.816 23.662 117.166 23.662C119.517 23.662 121.638 24.1637 123.53 25.167C125.422 26.1703 126.913 27.618 128.002 29.51C129.092 31.3733 129.636 33.5377 129.636 36.003C129.636 38.4683 129.077 40.647 127.959 42.539C126.87 44.4023 125.365 45.8357 123.444 46.839C121.552 47.8423 119.431 48.344 117.08 48.344ZM117.08 41.98C118.485 41.98 119.675 41.464 120.649 40.432C121.653 39.4 122.154 37.9237 122.154 36.003C122.154 34.0823 121.667 32.606 120.692 31.574C119.746 30.542 118.571 30.026 117.166 30.026C115.733 30.026 114.543 30.542 113.597 31.574C112.651 32.5773 112.178 34.0537 112.178 36.003C112.178 37.9237 112.637 39.4 113.554 40.432C114.5 41.464 115.676 41.98 117.08 41.98ZM142.653 23.662C144.344 23.662 145.821 24.006 147.082 24.694C148.372 25.382 149.361 26.285 150.049 27.403V24.006H157.402V47.957C157.402 50.1643 156.958 52.1567 156.069 53.934C155.209 55.74 153.876 57.1733 152.07 58.234C150.293 59.2947 148.071 59.825 145.405 59.825C141.85 59.825 138.969 58.9793 136.762 57.288C134.555 55.6253 133.293 53.3607 132.978 50.494H140.245C140.474 51.4113 141.019 52.128 141.879 52.644C142.739 53.1887 143.8 53.461 145.061 53.461C146.58 53.461 147.784 53.0167 148.673 52.128C149.59 51.268 150.049 49.8777 150.049 47.957V44.56C149.332 45.678 148.343 46.5953 147.082 47.312C145.821 48 144.344 48.344 142.653 48.344C140.675 48.344 138.883 47.8423 137.278 46.839C135.673 45.807 134.397 44.3593 133.451 42.496C132.534 40.604 132.075 38.4253 132.075 35.96C132.075 33.4947 132.534 31.3303 133.451 29.467C134.397 27.6037 135.673 26.1703 137.278 25.167C138.883 24.1637 140.675 23.662 142.653 23.662ZM150.049 36.003C150.049 34.1683 149.533 32.7207 148.501 31.66C147.498 30.5993 146.265 30.069 144.803 30.069C143.341 30.069 142.094 30.5993 141.062 31.66C140.059 32.692 139.557 34.1253 139.557 35.96C139.557 37.7947 140.059 39.2567 141.062 40.346C142.094 41.4067 143.341 41.937 144.803 41.937C146.265 41.937 147.498 41.4067 148.501 40.346C149.533 39.2853 150.049 37.8377 150.049 36.003ZM166.42 21.512C165.13 21.512 164.069 21.1393 163.238 20.394C162.435 19.62 162.034 18.674 162.034 17.556C162.034 16.4093 162.435 15.4633 163.238 14.718C164.069 13.944 165.13 13.557 166.42 13.557C167.681 13.557 168.713 13.944 169.516 14.718C170.347 15.4633 170.763 16.4093 170.763 17.556C170.763 18.674 170.347 19.62 169.516 20.394C168.713 21.1393 167.681 21.512 166.42 21.512ZM170.075 24.006V48H162.722V24.006H170.075ZM190.023 23.748C192.833 23.748 195.069 24.6653 196.731 26.5C198.423 28.306 199.268 30.8 199.268 33.982V48H191.958V34.971C191.958 33.3657 191.543 32.1187 190.711 31.23C189.88 30.3413 188.762 29.897 187.357 29.897C185.953 29.897 184.835 30.3413 184.003 31.23C183.172 32.1187 182.756 33.3657 182.756 34.971V48H175.403V24.006H182.756V27.188C183.502 26.1273 184.505 25.296 185.766 24.694C187.028 24.0633 188.447 23.748 190.023 23.748Z" fill="#E26C28"/>
<path d="M93.019 42.324H92.019V43.324H93.019V42.324ZM102.651 42.324H103.651V41.324H102.651V42.324ZM102.651 48V49H103.651V48H102.651ZM85.666 48H84.666V49H85.666V48ZM85.666 17.814V16.814H84.666V17.814H85.666ZM93.019 17.814H94.019V16.814H93.019V17.814ZM93.019 43.324H102.651V41.324H93.019V43.324ZM101.651 42.324V48H103.651V42.324H101.651ZM102.651 47H85.666V49H102.651V47ZM86.666 48V17.814H84.666V48H86.666ZM85.666 18.814H93.019V16.814H85.666V18.814ZM92.019 17.814V42.324H94.019V17.814H92.019ZM110.716 46.839L110.242 47.7195L110.248 47.7225L110.716 46.839ZM106.287 42.539L105.418 43.0337L105.424 43.0437L106.287 42.539ZM106.33 29.51L107.194 30.0147L107.197 30.009L106.33 29.51ZM110.802 25.167L111.271 26.0505L111.271 26.0505L110.802 25.167ZM123.53 25.167L123.062 26.0505L123.062 26.0505L123.53 25.167ZM128.002 29.51L127.136 30.009L127.139 30.0147L128.002 29.51ZM127.959 42.539L127.098 42.0303L127.096 42.0343L127.959 42.539ZM123.444 46.839L122.981 45.9526L122.976 45.9555L123.444 46.839ZM120.649 40.432L119.932 39.7349L119.927 39.7401L119.922 39.7454L120.649 40.432ZM120.692 31.574L119.955 32.2497L119.96 32.2552L119.965 32.2606L120.692 31.574ZM113.597 31.574L114.325 32.2601L114.334 32.2497L113.597 31.574ZM113.554 40.432L112.807 41.0964L112.812 41.1021L112.817 41.1077L113.554 40.432ZM117.08 47.344C114.877 47.344 112.919 46.8751 111.185 45.9555L110.248 47.7225C112.298 48.8096 114.582 49.344 117.08 49.344V47.344ZM111.19 45.9585C109.492 45.0441 108.149 43.7423 107.15 42.0343L105.424 43.0437C106.604 45.0623 108.214 46.6272 110.242 47.7195L111.19 45.9585ZM107.156 42.0443C106.195 40.3547 105.696 38.3521 105.696 36.003H103.696C103.696 38.6419 104.259 40.9966 105.418 43.0337L107.156 42.0443ZM105.696 36.003C105.696 33.6894 106.206 31.7042 107.193 30.0147L105.467 29.0053C104.276 31.0425 103.696 33.3859 103.696 36.003H105.696ZM107.197 30.009C108.194 28.2767 109.548 26.9638 111.271 26.0505L110.334 24.2835C108.272 25.3768 106.645 26.9593 105.464 29.011L107.197 30.009ZM111.271 26.0505C113.005 25.1309 114.963 24.662 117.166 24.662V22.662C114.668 22.662 112.384 23.1964 110.334 24.2835L111.271 26.0505ZM117.166 24.662C119.37 24.662 121.328 25.1309 123.062 26.0505L123.999 24.2835C121.949 23.1964 119.664 22.662 117.166 22.662V24.662ZM123.062 26.0505C124.784 26.9638 126.138 28.2767 127.136 30.009L128.869 29.011C127.688 26.9593 126.06 25.3768 123.999 24.2835L123.062 26.0505ZM127.139 30.0147C128.127 31.7042 128.636 33.6894 128.636 36.003H130.636C130.636 33.3859 130.056 31.0425 128.865 29.0053L127.139 30.0147ZM128.636 36.003C128.636 38.3117 128.114 40.3105 127.098 42.0303L128.82 43.0477C130.04 40.9835 130.636 38.625 130.636 36.003H128.636ZM127.096 42.0343C126.102 43.7346 124.736 45.036 122.981 45.9527L123.907 47.7253C125.994 46.6353 127.638 45.07 128.822 43.0437L127.096 42.0343ZM122.976 45.9555C121.242 46.8751 119.284 47.344 117.08 47.344V49.344C119.578 49.344 121.863 48.8096 123.913 47.7225L122.976 45.9555ZM117.08 42.98C118.763 42.98 120.215 42.3482 121.376 41.1186L119.922 39.7454C119.134 40.5798 118.206 40.98 117.08 40.98V42.98ZM121.366 41.1291C122.605 39.8548 123.154 38.0945 123.154 36.003H121.154C121.154 37.7529 120.7 38.9452 119.932 39.7349L121.366 41.1291ZM123.154 36.003C123.154 33.9188 122.623 32.1625 121.419 30.8874L119.965 32.2606C120.71 33.0495 121.154 34.2458 121.154 36.003H123.154ZM121.429 30.8983C120.293 29.6589 118.85 29.026 117.166 29.026V31.026C118.292 31.026 119.199 31.4251 119.955 32.2497L121.429 30.8983ZM117.166 29.026C115.46 29.026 114.001 29.6541 112.86 30.8983L114.334 32.2497C115.086 31.4299 116.006 31.026 117.166 31.026V29.026ZM112.87 30.888C111.688 32.1417 111.178 33.9044 111.178 36.003H113.178C113.178 34.203 113.615 33.013 114.325 32.26L112.87 30.888ZM111.178 36.003C111.178 38.0728 111.673 39.8206 112.807 41.0964L114.302 39.7676C113.601 38.9794 113.178 37.7745 113.178 36.003H111.178ZM112.817 41.1077C113.953 42.3471 115.396 42.98 117.08 42.98V40.98C115.955 40.98 115.047 40.5809 114.291 39.7563L112.817 41.1077ZM147.082 24.694L146.603 25.5719L146.612 25.5764L147.082 24.694ZM150.049 27.403L149.197 27.9271L151.049 30.936V27.403H150.049ZM150.049 24.006V23.006H149.049V24.006H150.049ZM157.402 24.006H158.402V23.006H157.402V24.006ZM156.069 53.934L155.175 53.4868L155.17 53.4954L155.166 53.5041L156.069 53.934ZM152.07 58.234L151.564 57.3717L151.558 57.3753L152.07 58.234ZM136.762 57.288L137.37 56.4942L137.364 56.4892L136.762 57.288ZM132.978 50.494V49.494H131.862L131.984 50.6033L132.978 50.494ZM140.245 50.494L141.215 50.2515L141.026 49.494H140.245V50.494ZM141.879 52.644L142.414 51.7992L142.404 51.7927L142.394 51.7865L141.879 52.644ZM148.673 52.128L147.989 51.3985L147.977 51.4095L147.966 51.4209L148.673 52.128ZM150.049 44.56H151.049V41.147L149.207 44.0203L150.049 44.56ZM147.082 47.312L147.561 48.1899L147.569 48.1857L147.576 48.1815L147.082 47.312ZM137.278 46.839L136.737 47.6802L136.748 47.687L137.278 46.839ZM133.451 42.496L132.551 42.9323L132.555 42.9405L132.559 42.9487L133.451 42.496ZM133.451 29.467L132.559 29.0143L132.554 29.0253L133.451 29.467ZM137.278 25.167L137.808 26.015L137.808 26.015L137.278 25.167ZM148.501 31.66L147.775 32.3473L147.784 32.3574L148.501 31.66ZM141.062 31.66L140.345 30.9626L140.345 30.9629L141.062 31.66ZM141.062 40.346L140.327 41.0235L140.336 41.0335L140.345 41.0434L141.062 40.346ZM148.501 40.346L147.784 39.6486L147.775 39.6588L148.501 40.346ZM142.653 24.662C144.207 24.662 145.513 24.9771 146.603 25.5719L147.561 23.8161C146.129 23.0349 144.482 22.662 142.653 22.662V24.662ZM146.612 25.5764C147.763 26.1906 148.613 26.9769 149.197 27.9271L150.901 26.8789C150.109 25.5931 148.981 24.5734 147.553 23.8116L146.612 25.5764ZM151.049 27.403V24.006H149.049V27.403H151.049ZM150.049 25.006H157.402V23.006H150.049V25.006ZM156.402 24.006V47.957H158.402V24.006H156.402ZM156.402 47.957C156.402 50.0265 155.987 51.8631 155.175 53.4868L156.964 54.3812C157.929 52.4502 158.402 50.3022 158.402 47.957H156.402ZM155.166 53.5041C154.396 55.1208 153.206 56.4073 151.564 57.3717L152.577 59.0963C154.546 57.9394 156.022 56.3592 156.972 54.3639L155.166 53.5041ZM151.558 57.3753C149.974 58.3204 147.942 58.825 145.405 58.825V60.825C148.201 60.825 150.612 60.2689 152.583 59.0927L151.558 57.3753ZM145.405 58.825C142.009 58.825 139.36 58.0185 137.37 56.4942L136.154 58.0818C138.579 59.9401 141.692 60.825 145.405 60.825V58.825ZM137.364 56.4892C135.387 55.0004 134.259 52.9907 133.972 50.3847L131.984 50.6033C132.328 53.7306 133.722 56.2502 136.16 58.0868L137.364 56.4892ZM132.978 51.494H140.245V49.494H132.978V51.494ZM139.275 50.7365C139.573 51.928 140.292 52.8582 141.365 53.5015L142.394 51.7865C141.746 51.3978 141.376 50.8947 141.215 50.2515L139.275 50.7365ZM141.344 53.4888C142.398 54.1566 143.656 54.461 145.061 54.461V52.461C143.944 52.461 143.08 52.2207 142.414 51.7992L141.344 53.4888ZM145.061 54.461C146.786 54.461 148.266 53.9494 149.38 52.8351L147.966 51.4209C147.303 52.084 146.374 52.461 145.061 52.461V54.461ZM149.357 52.8575C150.562 51.7283 151.049 50.0096 151.049 47.957H149.049C149.049 49.7457 148.619 50.8077 147.989 51.3985L149.357 52.8575ZM151.049 47.957V44.56H149.049V47.957H151.049ZM149.207 44.0203C148.586 44.9895 147.722 45.7984 146.588 46.4425L147.576 48.1815C148.965 47.3922 150.079 46.3665 150.891 45.0997L149.207 44.0203ZM146.603 46.4341C145.513 47.0289 144.207 47.344 142.653 47.344V49.344C144.482 49.344 146.129 48.9711 147.561 48.1899L146.603 46.4341ZM142.653 47.344C140.854 47.344 139.247 46.8904 137.808 45.991L136.748 47.687C138.52 48.7942 140.496 49.344 142.653 49.344V47.344ZM137.819 45.9978C136.377 45.0708 135.216 43.7638 134.343 42.0433L132.559 42.9487C133.578 44.9549 134.969 46.5432 136.737 47.6802L137.819 45.9978ZM134.351 42.0597C133.51 40.3253 133.075 38.3001 133.075 35.96H131.075C131.075 38.5505 131.558 40.8827 132.551 42.9323L134.351 42.0597ZM133.075 35.96C133.075 33.6194 133.51 31.6112 134.348 29.9087L132.554 29.0253C131.557 31.0495 131.075 33.3699 131.075 35.96H133.075ZM134.343 29.9197C135.215 28.2012 136.373 26.9121 137.808 26.015L136.748 24.319C134.973 25.4286 133.579 27.0061 132.559 29.0143L134.343 29.9197ZM137.808 26.015C139.247 25.1156 140.854 24.662 142.653 24.662V22.662C140.496 22.662 138.52 23.2118 136.748 24.319L137.808 26.015ZM151.049 36.003C151.049 33.9737 150.473 32.2524 149.218 30.9626L147.784 32.3574C148.593 33.1889 149.049 34.3629 149.049 36.003H151.049ZM149.228 30.9728C148.035 29.7122 146.54 29.069 144.803 29.069V31.069C145.991 31.069 146.96 31.4865 147.775 32.3472L149.228 30.9728ZM144.803 29.069C143.067 29.069 141.563 29.7112 140.345 30.9626L141.779 32.3574C142.625 31.4875 143.615 31.069 144.803 31.069V29.069ZM140.345 30.9629C139.114 32.2291 138.557 33.9397 138.557 35.96H140.557C140.557 34.311 141.003 33.1549 141.779 32.3571L140.345 30.9629ZM138.557 35.96C138.557 37.983 139.115 39.708 140.327 41.0235L141.798 39.6685C141.003 38.8053 140.557 37.6064 140.557 35.96H138.557ZM140.345 41.0434C141.563 42.2948 143.067 42.937 144.803 42.937V40.937C143.615 40.937 142.625 40.5185 141.779 39.6486L140.345 41.0434ZM144.803 42.937C146.54 42.937 148.035 42.2938 149.228 41.0332L147.775 39.6588C146.96 40.5195 145.991 40.937 144.803 40.937V42.937ZM149.218 41.0434C150.473 39.7536 151.049 38.0323 151.049 36.003H149.049C149.049 37.6431 148.593 38.8171 147.784 39.6486L149.218 41.0434ZM163.238 20.394L162.544 21.1138L162.557 21.1264L162.57 21.1386L163.238 20.394ZM163.238 14.718L163.918 15.4508L163.919 15.4499L163.238 14.718ZM169.516 14.718L168.822 15.4378L168.835 15.4504L168.848 15.4626L169.516 14.718ZM169.516 20.394L170.196 21.1268L170.197 21.1259L169.516 20.394ZM170.075 24.006H171.075V23.006H170.075V24.006ZM170.075 48V49H171.075V48H170.075ZM162.722 48H161.722V49H162.722V48ZM162.722 24.006V23.006H161.722V24.006H162.722ZM166.42 20.512C165.335 20.512 164.525 20.205 163.905 19.6494L162.57 21.1386C163.613 22.0737 164.924 22.512 166.42 22.512V20.512ZM163.932 19.6742C163.325 19.0892 163.034 18.4033 163.034 17.556H161.034C161.034 18.9447 161.545 20.1508 162.544 21.1138L163.932 19.6742ZM163.034 17.556C163.034 16.6727 163.33 15.9971 163.918 15.4508L162.557 13.9852C161.54 14.9295 161.034 16.1459 161.034 17.556H163.034ZM163.919 15.4499C164.54 14.8718 165.346 14.557 166.42 14.557V12.557C164.914 12.557 163.598 13.0162 162.556 13.9861L163.919 15.4499ZM166.42 14.557C167.459 14.557 168.23 14.8676 168.822 15.4378L170.21 13.9982C169.196 13.0204 167.903 12.557 166.42 12.557V14.557ZM168.848 15.4626C169.461 16.0125 169.763 16.6847 169.763 17.556H171.763C171.763 16.1339 171.233 14.9142 170.183 13.9734L168.848 15.4626ZM169.763 17.556C169.763 18.3914 169.466 19.0738 168.834 19.6621L170.197 21.1259C171.228 20.1662 171.763 18.9566 171.763 17.556H169.763ZM168.835 19.6612C168.246 20.2088 167.47 20.512 166.42 20.512V22.512C167.892 22.512 169.18 22.0699 170.196 21.1268L168.835 19.6612ZM169.075 24.006V48H171.075V24.006H169.075ZM170.075 47H162.722V49H170.075V47ZM163.722 48V24.006H161.722V48H163.722ZM162.722 25.006H170.075V23.006H162.722V25.006ZM196.731 26.5L195.99 27.1715L195.996 27.1776L196.001 27.1836L196.731 26.5ZM199.268 48V49H200.268V48H199.268ZM191.958 48H190.958V49H191.958V48ZM190.711 31.23L189.981 31.9132L189.981 31.9132L190.711 31.23ZM184.003 31.23L184.734 31.9132L184.734 31.9132L184.003 31.23ZM182.756 48V49H183.756V48H182.756ZM175.403 48H174.403V49H175.403V48ZM175.403 24.006V23.006H174.403V24.006H175.403ZM182.756 24.006H183.756V23.006H182.756V24.006ZM182.756 27.188H181.756V30.3504L183.574 27.7629L182.756 27.188ZM185.766 24.694L186.197 25.5965L186.205 25.5925L186.214 25.5884L185.766 24.694ZM190.023 24.748C192.592 24.748 194.544 25.5753 195.99 27.1715L197.472 25.8285C195.594 23.7554 193.073 22.748 190.023 22.748V24.748ZM196.001 27.1836C197.474 28.7558 198.268 30.9787 198.268 33.982H200.268C200.268 30.6213 199.371 27.8562 197.461 25.8164L196.001 27.1836ZM198.268 33.982V48H200.268V33.982H198.268ZM199.268 47H191.958V49H199.268V47ZM192.958 48V34.971H190.958V48H192.958ZM192.958 34.971C192.958 33.1951 192.496 31.6737 191.442 30.5468L189.981 31.9132C190.59 32.5637 190.958 33.5362 190.958 34.971H192.958ZM191.442 30.5468C190.391 29.4243 188.992 28.897 187.357 28.897V30.897C188.532 30.897 189.369 31.2584 189.981 31.9132L191.442 30.5468ZM187.357 28.897C185.723 28.897 184.323 29.4243 183.273 30.5468L184.734 31.9132C185.346 31.2584 186.183 30.897 187.357 30.897V28.897ZM183.273 30.5468C182.219 31.6737 181.756 33.1951 181.756 34.971H183.756C183.756 33.5362 184.125 32.5637 184.734 31.9132L183.273 30.5468ZM181.756 34.971V48H183.756V34.971H181.756ZM182.756 47H175.403V49H182.756V47ZM176.403 48V24.006H174.403V48H176.403ZM175.403 25.006H182.756V23.006H175.403V25.006ZM181.756 24.006V27.188H183.756V24.006H181.756ZM183.574 27.7629C184.213 26.8539 185.078 26.1304 186.197 25.5965L185.336 23.7915C183.932 24.4616 182.79 25.4008 181.938 26.6131L183.574 27.7629ZM186.214 25.5884C187.32 25.035 188.583 24.748 190.023 24.748V22.748C188.31 22.748 186.735 23.0916 185.319 23.7996L186.214 25.5884Z" fill="#FFBE98" mask="url(#path-2-outside-1_138_1989)"/>
</g>
</g>
<defs>
<filter id="filter0_d_138_1989" x="0" y="3.15308" width="284" height="69.8369" filterUnits="userSpaceOnUse" color-interpolation-filters="sRGB">
<feFlood flood-opacity="0" result="BackgroundImageFix"/>
<feColorMatrix in="SourceAlpha" type="matrix" values="0 0 0 0 0 0 0 0 0 0 0 0 0 0 0 0 0 0 127 0" result="hardAlpha"/>
<feOffset dy="4"/>
<feGaussianBlur stdDeviation="2"/>
<feComposite in2="hardAlpha" operator="out"/>
<feColorMatrix type="matrix" values="0 0 0 0 0 0 0 0 0 0 0 0 0 0 0 0 0 0 0.25 0"/>
<feBlend mode="normal" in2="BackgroundImageFix" result="effect1_dropShadow_138_1989"/>
<feBlend mode="normal" in="SourceGraphic" in2="effect1_dropShadow_138_1989" result="shape"/>
</filter>
<linearGradient id="paint0_linear_138_1989" x1="4" y1="34.0715" x2="280" y2="34.0715" gradientUnits="userSpaceOnUse">
<stop stop-color="#FFBE98"/>
<stop offset="1" stop-color="#E2BFB3"/>
</linearGradient>
</defs>
</svg>
