<svg width="47" height="32" viewBox="0 0 47 32" fill="none" xmlns="http://www.w3.org/2000/svg">
<path d="M5.78755 5.75209C8.53503 3.03118 12.2645 1.5 16.1562 1.5H30.8438C34.7355 1.5 38.465 3.03118 41.2125 5.75209C43.9594 8.47252 45.5 12.1591 45.5 16C45.5 19.8409 43.9594 23.5275 41.2125 26.2479C38.465 28.9688 34.7355 30.5 30.8438 30.5H16.1562C12.2645 30.5 8.53503 28.9688 5.78755 26.2479C3.04056 23.5275 1.5 19.8409 1.5 16C1.5 12.1591 3.04056 8.47252 5.78755 5.75209ZM11.1247 8.0875C10.5664 8.64044 10.25 9.39349 10.25 10.1818V13.0455H7.34375C6.56107 13.0455 5.80754 13.3532 5.24969 13.9057C4.69136 14.4586 4.375 15.2117 4.375 16C4.375 16.7883 4.69136 17.5414 5.24969 18.0943C5.80754 18.6468 6.56107 18.9545 7.34375 18.9545H10.25V21.8182C10.25 22.6065 10.5664 23.3596 11.1247 23.9125C11.6825 24.465 12.4361 24.7727 13.2188 24.7727C14.0014 24.7727 14.755 24.465 15.3128 23.9125C15.8711 23.3596 16.1875 22.6065 16.1875 21.8182V18.9545H19.0938C19.8764 18.9545 20.63 18.6468 21.1878 18.0943C21.7462 17.5414 22.0625 16.7883 22.0625 16C22.0625 15.2117 21.7461 14.4586 21.1878 13.9057C20.63 13.3532 19.8764 13.0455 19.0938 13.0455H16.1875V10.1818C16.1875 9.39349 15.8711 8.64044 15.3128 8.0875C14.755 7.53505 14.0014 7.22727 13.2188 7.22727C12.4361 7.22727 11.6825 7.53505 11.1247 8.0875ZM38.3826 14.7592C39.2164 13.9335 39.6875 12.8105 39.6875 11.6364C39.6875 10.4623 39.2164 9.33924 38.3826 8.51353C37.5493 7.6883 36.4222 7.22727 35.25 7.22727C34.0778 7.22727 32.9507 7.6883 32.1174 8.51353C31.2836 9.33924 30.8125 10.4623 30.8125 11.6364C30.8125 12.8105 31.2836 13.9335 32.1174 14.7592C32.9507 15.5844 34.0778 16.0455 35.25 16.0455C36.4222 16.0455 37.5493 15.5844 38.3826 14.7592ZM26.2424 23.4865C27.0757 24.3117 28.2028 24.7727 29.375 24.7727C30.5472 24.7727 31.6743 24.3117 32.5076 23.4865C33.3414 22.6608 33.8125 21.5377 33.8125 20.3636C33.8125 19.1895 33.3414 18.0665 32.5076 17.2408C31.6743 16.4156 30.5472 15.9545 29.375 15.9545C28.2028 15.9545 27.0757 16.4156 26.2424 17.2408C25.4086 18.0665 24.9375 19.1895 24.9375 20.3636C24.9375 21.5377 25.4086 22.6608 26.2424 23.4865Z" fill="#FEECE2" stroke="#FEECE2" stroke-width="3"/>
</svg>
