<svg width="50" height="29" viewBox="0 0 50 29" fill="none" xmlns="http://www.w3.org/2000/svg">
<path d="M49.7959 13.6593C49.7213 13.5195 47.9555 10.1621 44.0549 6.8219C38.836 2.3597 32.2584 0 25.0015 0C17.7446 0 11.167 2.3597 5.95416 6.8219C2.05357 10.1621 0.287729 13.5195 0.207097 13.6593C0.070532 13.9245 0 14.2111 0 14.5009C0 14.7906 0.070532 15.0772 0.207097 15.3424C0.281681 15.4839 2.04753 18.8396 5.95013 22.1798C11.167 26.642 17.7446 29 25.0015 29C32.2584 29 38.836 26.642 44.0468 22.1798C47.9494 18.8396 49.7153 15.4839 49.7899 15.3424C49.9274 15.0776 49.9989 14.7912 50 14.5014C50.001 14.2116 49.9315 13.9248 49.7959 13.6593ZM40.5111 19.3558C36.1832 23.0049 30.9663 24.8571 25.0015 24.8571C19.0367 24.8571 13.8198 23.0049 9.49794 19.354C7.7973 17.9131 6.33442 16.28 5.14985 14.5C6.33476 12.7207 7.79762 11.0883 9.49794 9.64768C13.8218 5.99506 19.0367 4.14286 25.0015 4.14286C30.9663 4.14286 36.1812 5.99506 40.5051 9.64768C42.2056 11.0881 43.6684 12.7206 44.8532 14.5C43.6684 16.2799 42.2055 17.9129 40.5051 19.354L40.5111 19.3558ZM25.0015 6.90476C23.2473 6.90476 21.5324 7.35021 20.0739 8.18479C18.6153 9.01937 17.4784 10.2056 16.8071 11.5934C16.1358 12.9813 15.9602 14.5084 16.3024 15.9818C16.6446 17.4551 17.4894 18.8084 18.7298 19.8706C19.9702 20.9329 21.5506 21.6562 23.2711 21.9493C24.9917 22.2424 26.775 22.0919 28.3957 21.5171C30.0164 20.9422 31.4017 19.9687 32.3763 18.7197C33.3509 17.4707 33.871 16.0022 33.871 14.5C33.8684 12.4863 32.9331 10.5558 31.2703 9.13188C29.6075 7.70799 27.353 6.90705 25.0015 6.90476ZM25.0015 17.9524C24.2041 17.9524 23.4247 17.7499 22.7617 17.3706C22.0987 16.9912 21.5819 16.452 21.2768 15.8212C20.9716 15.1903 20.8918 14.4962 21.0474 13.8265C21.2029 13.1568 21.5869 12.5416 22.1507 12.0588C22.7146 11.576 23.4329 11.2472 24.215 11.114C24.997 10.9807 25.8077 11.0491 26.5443 11.3104C27.281 11.5717 27.9107 12.0142 28.3537 12.582C28.7967 13.1497 29.0331 13.8172 29.0331 14.5C29.0331 15.4156 28.6084 16.2938 27.8523 16.9412C27.0962 17.5886 26.0708 17.9524 25.0015 17.9524Z" fill="white"/>
</svg>
