<svg width="46" height="40" viewBox="0 0 46 40" fill="none" xmlns="http://www.w3.org/2000/svg">
<g clip-path="url(#clip0_138_1898)">
<g style="mix-blend-mode:plus-darker">
<path d="M25.0042 25.5927L40.9697 15.783V34.9444H8.51519V15.783L24.4807 25.5927L24.7425 25.7535L25.0042 25.5927ZM46.1516 10.7778C46.1516 8.23252 44.0378 6.16667 41.4697 6.16667H8.01519C5.44712 6.16667 3.33337 8.23253 3.33337 10.7778V35.4444C3.33337 37.9897 5.44712 40.0556 8.01519 40.0556H41.4697C44.0378 40.0556 46.1516 37.9897 46.1516 35.4444V10.7778ZM24.7425 20.4687L9.78405 11.2778H39.7009L24.7425 20.4687Z" fill="#E2BFB3"/>
<path d="M25.0042 25.5927L40.9697 15.783V34.9444H8.51519V15.783L24.4807 25.5927L24.7425 25.7535L25.0042 25.5927ZM46.1516 10.7778C46.1516 8.23252 44.0378 6.16667 41.4697 6.16667H8.01519C5.44712 6.16667 3.33337 8.23253 3.33337 10.7778V35.4444C3.33337 37.9897 5.44712 40.0556 8.01519 40.0556H41.4697C44.0378 40.0556 46.1516 37.9897 46.1516 35.4444V10.7778ZM24.7425 20.4687L9.78405 11.2778H39.7009L24.7425 20.4687Z" fill="#E26C28"/>
<path d="M25.0042 25.5927L40.9697 15.783V34.9444H8.51519V15.783L24.4807 25.5927L24.7425 25.7535L25.0042 25.5927ZM46.1516 10.7778C46.1516 8.23252 44.0378 6.16667 41.4697 6.16667H8.01519C5.44712 6.16667 3.33337 8.23253 3.33337 10.7778V35.4444C3.33337 37.9897 5.44712 40.0556 8.01519 40.0556H41.4697C44.0378 40.0556 46.1516 37.9897 46.1516 35.4444V10.7778ZM24.7425 20.4687L9.78405 11.2778H39.7009L24.7425 20.4687Z" stroke="#E2BFB3"/>
</g>
</g>
<defs>
<clipPath id="clip0_138_1898">
<rect width="46" height="40" fill="white"/>
</clipPath>
</defs>
</svg>
