<svg width="63" height="48" viewBox="0 0 63 48" fill="none" xmlns="http://www.w3.org/2000/svg">
<rect x="2" y="2" width="58.17" height="44" rx="7" stroke="#E2BFB3" stroke-width="4"/>
<rect x="2" y="2" width="58.17" height="44" rx="7" stroke="#E26C28" stroke-width="4"/>
<g style="mix-blend-mode:plus-darker">
<path d="M8.51416 31.8333H8.01416V32.3333V35.6667V36.1667H8.51416H53.6558H54.1558V35.6667V32.3333V31.8333H53.6558H8.51416ZM10.9138 26.0433L11.2681 26.1942L11.5045 25.8903L13.0283 23.9311L14.5522 25.8903L14.7886 26.1942L15.1428 26.0433L18.077 24.7933L18.6743 24.5389L18.2757 24.0264L16.9849 22.3667H19.7996H20.2996V21.8667V19.3667V18.8667H19.7996H16.9891L18.2747 17.2249L18.6764 16.712L18.077 16.4567L15.1428 15.2067L14.7898 15.0563L14.5532 15.3584L13.0283 17.3057L11.5035 15.3584L11.2669 15.0563L10.9138 15.2067L7.97964 16.4567L7.38028 16.712L7.78194 17.2249L9.06753 18.8667H6.25708H5.75708V19.3667V21.8667V22.3667H6.25708H9.0718L7.78092 24.0264L7.38231 24.5389L7.97964 24.7933L10.9138 26.0433ZM25.8376 24.0264L25.439 24.5389L26.0363 24.7933L28.9705 26.0433L29.3248 26.1942L29.5611 25.8903L31.085 23.9311L32.6088 25.8903L32.8452 26.1942L33.1995 26.0433L36.1337 24.7933L36.731 24.5389L36.3324 24.0264L35.0415 22.3667H37.8562H38.3562V21.8667V19.3667V18.8667H37.8562H35.0458L36.3314 17.2249L36.733 16.712L36.1337 16.4567L33.1995 15.2067L32.8464 15.0563L32.6099 15.3584L31.085 17.3057L29.5601 15.3584L29.3235 15.0563L28.9705 15.2067L26.0363 16.4567L25.4369 16.712L25.8386 17.2249L27.1242 18.8667H24.3137H23.8137V19.3667V21.8667V22.3667H24.3137H27.1285L25.8376 24.0264ZM56.4129 19.3667V18.8667H55.9129H53.1025L54.3881 17.2249L54.7897 16.712L54.1904 16.4567L51.2561 15.2067L50.9031 15.0563L50.6665 15.3584L49.1417 17.3057L47.6168 15.3584L47.3802 15.0563L47.0272 15.2067L44.093 16.4567L43.4936 16.712L43.8953 17.2249L45.1809 18.8667H42.3704H41.8704V19.3667V21.8667V22.3667H42.3704H45.1851L43.8943 24.0264L43.4956 24.5389L44.093 24.7933L47.0272 26.0433L47.3814 26.1942L47.6178 25.8903L49.1417 23.9311L50.6655 25.8903L50.9019 26.1942L51.2561 26.0433L54.1904 24.7933L54.7877 24.5389L54.3891 24.0264L53.0982 22.3667H55.9129H56.4129V21.8667V19.3667Z" fill="#E26C28"/>
<path d="M8.51416 31.8333H8.01416V32.3333V35.6667V36.1667H8.51416H53.6558H54.1558V35.6667V32.3333V31.8333H53.6558H8.51416ZM10.9138 26.0433L11.2681 26.1942L11.5045 25.8903L13.0283 23.9311L14.5522 25.8903L14.7886 26.1942L15.1428 26.0433L18.077 24.7933L18.6743 24.5389L18.2757 24.0264L16.9849 22.3667H19.7996H20.2996V21.8667V19.3667V18.8667H19.7996H16.9891L18.2747 17.2249L18.6764 16.712L18.077 16.4567L15.1428 15.2067L14.7898 15.0563L14.5532 15.3584L13.0283 17.3057L11.5035 15.3584L11.2669 15.0563L10.9138 15.2067L7.97964 16.4567L7.38028 16.712L7.78194 17.2249L9.06753 18.8667H6.25708H5.75708V19.3667V21.8667V22.3667H6.25708H9.0718L7.78092 24.0264L7.38231 24.5389L7.97964 24.7933L10.9138 26.0433ZM25.8376 24.0264L25.439 24.5389L26.0363 24.7933L28.9705 26.0433L29.3248 26.1942L29.5611 25.8903L31.085 23.9311L32.6088 25.8903L32.8452 26.1942L33.1995 26.0433L36.1337 24.7933L36.731 24.5389L36.3324 24.0264L35.0415 22.3667H37.8562H38.3562V21.8667V19.3667V18.8667H37.8562H35.0458L36.3314 17.2249L36.733 16.712L36.1337 16.4567L33.1995 15.2067L32.8464 15.0563L32.6099 15.3584L31.085 17.3057L29.5601 15.3584L29.3235 15.0563L28.9705 15.2067L26.0363 16.4567L25.4369 16.712L25.8386 17.2249L27.1242 18.8667H24.3137H23.8137V19.3667V21.8667V22.3667H24.3137H27.1285L25.8376 24.0264ZM56.4129 19.3667V18.8667H55.9129H53.1025L54.3881 17.2249L54.7897 16.712L54.1904 16.4567L51.2561 15.2067L50.9031 15.0563L50.6665 15.3584L49.1417 17.3057L47.6168 15.3584L47.3802 15.0563L47.0272 15.2067L44.093 16.4567L43.4936 16.712L43.8953 17.2249L45.1809 18.8667H42.3704H41.8704V19.3667V21.8667V22.3667H42.3704H45.1851L43.8943 24.0264L43.4956 24.5389L44.093 24.7933L47.0272 26.0433L47.3814 26.1942L47.6178 25.8903L49.1417 23.9311L50.6655 25.8903L50.9019 26.1942L51.2561 26.0433L54.1904 24.7933L54.7877 24.5389L54.3891 24.0264L53.0982 22.3667H55.9129H56.4129V21.8667V19.3667Z" stroke="#E26C28"/>
</g>
</svg>
