<svg width="80" height="80" viewBox="0 0 80 80" fill="none" xmlns="http://www.w3.org/2000/svg">
<circle cx="40" cy="40" r="40" fill="#E26C28"/>
<g style="mix-blend-mode:multiply">
<path fill-rule="evenodd" clip-rule="evenodd" d="M42 14.8571C39.3478 14.8571 36.8043 15.7903 34.9289 17.4513C33.0536 19.1124 32 21.3652 32 23.7143V28.1429H52V23.7143C52 21.3652 50.9464 19.1124 49.0711 17.4513C47.1957 15.7903 44.6522 14.8571 42 14.8571ZM22 23.7143V28.1429C20.0109 28.1429 18.1032 28.8427 16.6967 30.0885C15.2902 31.3343 14.5 33.0239 14.5 34.7857V61.3571C14.5 63.1189 15.2902 64.8086 16.6967 66.0544C18.1032 67.3001 20.0109 68 22 68H62C63.9891 68 65.8968 67.3001 67.3033 66.0544C68.7098 64.8086 69.5 63.1189 69.5 61.3571V34.7857C69.5 33.0239 68.7098 31.3343 67.3033 30.0885C65.8968 28.8427 63.9891 28.1429 62 28.1429V23.7143C62 19.0162 59.8929 14.5105 56.1421 11.1884C52.3914 7.86632 47.3043 6 42 6C36.6957 6 31.6086 7.86632 27.8579 11.1884C24.1071 14.5105 22 19.0162 22 23.7143ZM42 53.6071C42.8208 53.6071 43.6335 53.464 44.3918 53.1858C45.1501 52.9076 45.8391 52.4998 46.4194 51.9858C46.9998 51.4717 47.4602 50.8615 47.7742 50.1899C48.0883 49.5182 48.25 48.7984 48.25 48.0714C48.25 47.3445 48.0883 46.6246 47.7742 45.953C47.4602 45.2814 46.9998 44.6711 46.4194 44.1571C45.8391 43.6431 45.1501 43.2353 44.3918 42.9571C43.6335 42.6789 42.8208 42.5357 42 42.5357C40.3424 42.5357 38.7527 43.1189 37.5806 44.1571C36.4085 45.1952 35.75 46.6033 35.75 48.0714C35.75 49.5396 36.4085 50.9476 37.5806 51.9858C38.7527 53.0239 40.3424 53.6071 42 53.6071Z" fill="#F7DED0" fill-opacity="0.8"/>
<path fill-rule="evenodd" clip-rule="evenodd" d="M42 14.8571C39.3478 14.8571 36.8043 15.7903 34.9289 17.4513C33.0536 19.1124 32 21.3652 32 23.7143V28.1429H52V23.7143C52 21.3652 50.9464 19.1124 49.0711 17.4513C47.1957 15.7903 44.6522 14.8571 42 14.8571ZM22 23.7143V28.1429C20.0109 28.1429 18.1032 28.8427 16.6967 30.0885C15.2902 31.3343 14.5 33.0239 14.5 34.7857V61.3571C14.5 63.1189 15.2902 64.8086 16.6967 66.0544C18.1032 67.3001 20.0109 68 22 68H62C63.9891 68 65.8968 67.3001 67.3033 66.0544C68.7098 64.8086 69.5 63.1189 69.5 61.3571V34.7857C69.5 33.0239 68.7098 31.3343 67.3033 30.0885C65.8968 28.8427 63.9891 28.1429 62 28.1429V23.7143C62 19.0162 59.8929 14.5105 56.1421 11.1884C52.3914 7.86632 47.3043 6 42 6C36.6957 6 31.6086 7.86632 27.8579 11.1884C24.1071 14.5105 22 19.0162 22 23.7143ZM42 53.6071C42.8208 53.6071 43.6335 53.464 44.3918 53.1858C45.1501 52.9076 45.8391 52.4998 46.4194 51.9858C46.9998 51.4717 47.4602 50.8615 47.7742 50.1899C48.0883 49.5182 48.25 48.7984 48.25 48.0714C48.25 47.3445 48.0883 46.6246 47.7742 45.953C47.4602 45.2814 46.9998 44.6711 46.4194 44.1571C45.8391 43.6431 45.1501 43.2353 44.3918 42.9571C43.6335 42.6789 42.8208 42.5357 42 42.5357C40.3424 42.5357 38.7527 43.1189 37.5806 44.1571C36.4085 45.1952 35.75 46.6033 35.75 48.0714C35.75 49.5396 36.4085 50.9476 37.5806 51.9858C38.7527 53.0239 40.3424 53.6071 42 53.6071Z" fill="#E2BFB3"/>
<path d="M35.2605 17.8256C37.0387 16.2506 39.4622 15.3571 42 15.3571C44.5378 15.3571 46.9613 16.2506 48.7396 17.8256C50.5158 19.3989 51.5 21.5188 51.5 23.7143V27.6429H32.5V23.7143C32.5 21.5188 33.4842 19.3989 35.2605 17.8256ZM21.5 23.7143V27.6568C19.5775 27.7642 17.7493 28.4883 16.3652 29.7142C14.8596 31.0478 14 32.8704 14 34.7857V61.3571C14 63.2725 14.8596 65.0951 16.3652 66.4287C17.8688 67.7605 19.8965 68.5 22 68.5H62C64.1035 68.5 66.1312 67.7605 67.6348 66.4287C69.1404 65.0951 70 63.2725 70 61.3571V34.7857C70 32.8704 69.1404 31.0478 67.6348 29.7142C66.2507 28.4883 64.4225 27.7642 62.5 27.6568V23.7143C62.5 18.8626 60.3235 14.2239 56.4737 10.8141C52.6258 7.406 47.4187 5.5 42 5.5C36.5813 5.5 31.3742 7.406 27.5263 10.8141C23.6765 14.2239 21.5 18.8626 21.5 23.7143ZM44.2196 52.7164C43.5173 52.974 42.763 53.1071 42 53.1071C40.4567 53.1071 38.9871 52.5636 37.9121 51.6115C36.8391 50.6611 36.25 49.3861 36.25 48.0714C36.25 46.7568 36.8391 45.4818 37.9121 44.5314C38.9871 43.5793 40.4567 43.0357 42 43.0357C42.763 43.0357 43.5173 43.1689 44.2196 43.4265C44.9218 43.6841 45.5562 44.0604 46.0879 44.5314C46.6195 45.0022 47.0375 45.5579 47.3213 46.1648C47.605 46.7715 47.75 47.4192 47.75 48.0714C47.75 48.7237 47.605 49.3714 47.3213 49.978C47.0375 50.585 46.6195 51.1406 46.0879 51.6115C45.5562 52.0824 44.9218 52.4587 44.2196 52.7164Z" stroke="#3F3C3C" stroke-opacity="0.7"/>
</g>
</svg>
