<svg width="34" height="25" viewBox="0 0 34 25" fill="none" xmlns="http://www.w3.org/2000/svg">
<g style="mix-blend-mode:plus-darker">
<path d="M0 5C0 3.625 1.7 2.5 3.77778 2.5H30.2222C31.2242 2.5 32.185 2.76339 32.8935 3.23223C33.602 3.70107 34 4.33696 34 5V22.5C34 23.163 33.602 23.7989 32.8935 24.2678C32.185 24.7366 31.2242 25 30.2222 25H3.77778C2.77585 25 1.81496 24.7366 1.10649 24.2678C0.398015 23.7989 0 23.163 0 22.5V5ZM3.77778 7.5V22.5H30.2222V7.5H3.77778ZM7.55556 0H11.3333V2.5H7.55556V0ZM22.6667 0H26.4444V2.5H22.6667V0ZM7.55556 11.25H11.3333V13.75H7.55556V11.25ZM7.55556 16.25H11.3333V18.75H7.55556V16.25ZM15.1111 11.25H18.8889V13.75H15.1111V11.25ZM15.1111 16.25H18.8889V18.75H15.1111V16.25ZM22.6667 11.25H26.4444V13.75H22.6667V11.25ZM22.6667 16.25H26.4444V18.75H22.6667V16.25Z" fill="#E26C28"/>
</g>
</svg>
