<svg width="80" height="80" viewBox="0 0 80 80" fill="none" xmlns="http://www.w3.org/2000/svg">
<circle cx="40" cy="40" r="40" fill="#E26C28"/>
<g style="mix-blend-mode:multiply">
<path d="M37.9754 9.89662C39.2647 9.32562 40.7353 9.32562 42.0246 9.89662L72.0246 23.1823C73.8335 23.9834 75 25.7757 75 27.7541V52.2459C75 54.2243 73.8335 56.0166 72.0246 56.8177L42.0246 70.1034C40.7353 70.6744 39.2647 70.6744 37.9754 70.1034L7.97537 56.8177C6.16647 56.0166 5 54.2243 5 52.2459V27.7541C5 25.7757 6.16647 23.9834 7.97537 23.1823L37.9754 9.89662Z" fill="#E2BFB3"/>
<path d="M37.9754 9.89662C39.2647 9.32562 40.7353 9.32562 42.0246 9.89662L72.0246 23.1823C73.8335 23.9834 75 25.7757 75 27.7541V52.2459C75 54.2243 73.8335 56.0166 72.0246 56.8177L42.0246 70.1034C40.7353 70.6744 39.2647 70.6744 37.9754 70.1034L7.97537 56.8177C6.16647 56.0166 5 54.2243 5 52.2459V27.7541C5 25.7757 6.16647 23.9834 7.97537 23.1823L37.9754 9.89662Z" fill="#F7DED0"/>
<path d="M41.8222 10.3538L71.8222 23.6395C73.4502 24.3605 74.5 25.9736 74.5 27.7541V52.2459C74.5 54.0264 73.4502 55.6395 71.8222 56.3605L41.8222 69.6462C40.6617 70.1601 39.3383 70.1601 38.1778 69.6462L8.17783 56.3605C6.54982 55.6395 5.5 54.0264 5.5 52.2459V27.7541C5.5 25.9736 6.54982 24.3605 8.17783 23.6395L38.1778 10.3538C39.3383 9.83989 40.6617 9.83989 41.8222 10.3538Z" stroke="#3F3C3C" stroke-opacity="0.8"/>
</g>
<path d="M54.0028 30.0204C54.0028 35.189 48.8402 39.5407 42.2514 39.5407C35.6626 39.5407 30.5 35.189 30.5 30.0204C30.5 24.8517 35.6626 20.5 42.2514 20.5C48.8402 20.5 54.0028 24.8517 54.0028 30.0204Z" fill="#E2BFB3" fill-opacity="0.3" stroke="#3F3C3C"/>
<path d="M60.5812 57.4964V57.4963H60.5701H21.0062C20.6961 57.4963 20.4329 57.39 20.264 57.2441C20.0989 57.1015 20.0367 56.938 20.0544 56.7805C20.4838 53.0457 22.8873 49.6644 26.5986 47.2032C30.3077 44.7434 35.292 43.2276 40.7882 43.2276C46.2843 43.2276 51.2687 44.7434 54.9778 47.2032C58.6869 49.663 61.0898 53.0419 61.5213 56.7741C61.5276 56.8534 61.5148 56.9347 61.4807 57.0147C61.4456 57.097 61.3871 57.1795 61.3027 57.2536C61.218 57.328 61.1105 57.391 60.9847 57.4345C60.859 57.4779 60.7213 57.4995 60.5812 57.4964Z" fill="#E2BFB3" fill-opacity="0.3" stroke="#3F3C3C"/>
</svg>
