<svg width="45" height="35" viewBox="0 0 45 35" fill="none" xmlns="http://www.w3.org/2000/svg">
<g style="mix-blend-mode:plus-darker">
<path d="M5 10H4.5V10.5V31.5V32H5H40H40.5V31.5V10.5V10H40H5ZM34.5 3H30.5V0.5H34.5V3ZM10.5 3V0.5H14.5V3H10.5ZM15 4H15.5H29.5H30H35H35.5H40C41.2403 4 42.4079 4.34613 43.2488 4.93474C44.088 5.52216 44.5 6.27355 44.5 7V31.5C44.5 32.2264 44.088 32.9778 43.2488 33.5653C42.4079 34.1539 41.2403 34.5 40 34.5H5C3.75973 34.5 2.59207 34.1539 1.7512 33.5653C0.912028 32.9778 0.5 32.2264 0.5 31.5V7C0.5 6.24672 0.940091 5.50851 1.75548 4.93774C2.56859 4.36856 3.71589 4 5 4H9.5H10H15ZM10.5 16.25H14.5V18.75H10.5V16.25ZM10.5 23.25H14.5V25.75H10.5V23.25ZM20.5 16.25H24.5V18.75H20.5V16.25ZM20.5 23.25H24.5V25.75H20.5V23.25ZM30.5 16.25H34.5V18.75H30.5V16.25ZM30.5 23.25H34.5V25.75H30.5V23.25Z" fill="#E26C28"/>
<path d="M5 10H4.5V10.5V31.5V32H5H40H40.5V31.5V10.5V10H40H5ZM34.5 3H30.5V0.5H34.5V3ZM10.5 3V0.5H14.5V3H10.5ZM15 4H15.5H29.5H30H35H35.5H40C41.2403 4 42.4079 4.34613 43.2488 4.93474C44.088 5.52216 44.5 6.27355 44.5 7V31.5C44.5 32.2264 44.088 32.9778 43.2488 33.5653C42.4079 34.1539 41.2403 34.5 40 34.5H5C3.75973 34.5 2.59207 34.1539 1.7512 33.5653C0.912028 32.9778 0.5 32.2264 0.5 31.5V7C0.5 6.24672 0.940091 5.50851 1.75548 4.93774C2.56859 4.36856 3.71589 4 5 4H9.5H10H15ZM10.5 16.25H14.5V18.75H10.5V16.25ZM10.5 23.25H14.5V25.75H10.5V23.25ZM20.5 16.25H24.5V18.75H20.5V16.25ZM20.5 23.25H24.5V25.75H20.5V23.25ZM30.5 16.25H34.5V18.75H30.5V16.25ZM30.5 23.25H34.5V25.75H30.5V23.25Z" stroke="#E26C28"/>
</g>
</svg>
