<svg width="34" height="35" viewBox="0 0 34 35" fill="none" xmlns="http://www.w3.org/2000/svg">
<path d="M32.2641 8.97846L32.2642 8.97854C32.4671 9.19092 32.6293 9.44429 32.7403 9.72474C32.8513 10.0052 32.9087 10.3066 32.9087 10.6114C32.9087 10.9162 32.8513 11.2176 32.7403 11.498C32.6293 11.7785 32.4671 12.0319 32.2642 12.2442L32.2641 12.2443L11.6658 33.8036L11.6644 33.805C11.4626 34.0179 11.2237 34.1853 10.9622 34.2989C10.7008 34.4123 10.4212 34.4699 10.1397 34.469H10.138H2.67274C2.10404 34.469 1.55376 34.2328 1.14436 33.8042C0.734208 33.375 0.500014 32.7881 0.500014 32.1716L0.500016 24.3581L0.500011 24.3565C0.499082 24.0522 0.555991 23.7512 0.666916 23.4712C0.77783 23.1912 0.940231 22.9386 1.1436 22.7275L1.14499 22.726L21.7434 1.16496L21.7434 1.16493C21.9463 0.952551 22.1859 0.785356 22.4479 0.671733C22.7099 0.558137 22.9898 0.5 23.272 0.5C23.5541 0.5 23.834 0.558137 24.096 0.671733C24.358 0.785356 24.5976 0.952551 24.8005 1.16493L32.2641 8.97846ZM2.86414 23.4339L2.53403 23.7794L2.86425 24.1249L5.65224 27.0412L6.01374 27.4193L6.37515 27.0411L20.5222 12.2358L20.8523 11.8904L20.5222 11.5449L17.7343 8.62688L17.3727 8.24849L17.0112 8.62688L2.86414 23.4339ZM3.03426 26.8101L2.17274 25.9084V27.1555V32.1716V32.6716H2.67274H7.46528H8.63452L7.82679 31.8262L3.03426 26.8101ZM10.3294 31.9383L10.6909 32.3167L11.0524 31.9383L25.1995 17.1312L25.5295 16.7858L25.1995 16.4404L22.4115 13.5224L22.05 13.144L21.6885 13.5224L7.54142 28.3294L7.21141 28.6748L7.54142 29.0202L10.3294 31.9383ZM26.3658 15.1538L26.7274 15.5323L27.0889 15.1537L31.098 10.9558L31.4279 10.6104L31.0979 10.2651L23.6326 2.45329L23.2711 2.07499L22.9096 2.45333L18.9005 6.64946L18.5705 6.99486L18.9005 7.34026L26.3658 15.1538Z" fill="white" stroke="white"/>
</svg>
