<svg width="214" height="69" viewBox="0 0 214 69" fill="none" xmlns="http://www.w3.org/2000/svg">
<g style="mix-blend-mode:plus-darker">
<mask id="path-1-outside-1_138_1858" maskUnits="userSpaceOnUse" x="79" y="13" width="119" height="51" fill="black">
<rect fill="white" x="79" y="13" width="119" height="51"/>
<path d="M86.405 45.005H96.755V50H80.105V18.59H86.405V45.005ZM111.829 50.405C109.429 50.405 107.269 49.88 105.349 48.83C103.429 47.75 101.914 46.235 100.804 44.285C99.7243 42.335 99.1843 40.085 99.1843 37.535C99.1843 34.985 99.7393 32.735 100.849 30.785C101.989 28.835 103.534 27.335 105.484 26.285C107.434 25.205 109.609 24.665 112.009 24.665C114.409 24.665 116.584 25.205 118.534 26.285C120.484 27.335 122.014 28.835 123.124 30.785C124.264 32.735 124.834 34.985 124.834 37.535C124.834 40.085 124.249 42.335 123.079 44.285C121.939 46.235 120.379 47.75 118.399 48.83C116.449 49.88 114.259 50.405 111.829 50.405ZM111.829 44.915C112.969 44.915 114.034 44.645 115.024 44.105C116.044 43.535 116.854 42.695 117.454 41.585C118.054 40.475 118.354 39.125 118.354 37.535C118.354 35.165 117.724 33.35 116.464 32.09C115.234 30.8 113.719 30.155 111.919 30.155C110.119 30.155 108.604 30.8 107.374 32.09C106.174 33.35 105.574 35.165 105.574 37.535C105.574 39.905 106.159 41.735 107.329 43.025C108.529 44.285 110.029 44.915 111.829 44.915ZM139.221 24.665C141.081 24.665 142.716 25.04 144.126 25.79C145.536 26.51 146.646 27.455 147.456 28.625V25.07H153.801V50.18C153.801 52.49 153.336 54.545 152.406 56.345C151.476 58.175 150.081 59.615 148.221 60.665C146.361 61.745 144.111 62.285 141.471 62.285C137.931 62.285 135.021 61.46 132.741 59.81C130.491 58.16 129.216 55.91 128.916 53.06H135.171C135.501 54.2 136.206 55.1 137.286 55.76C138.396 56.45 139.731 56.795 141.291 56.795C143.121 56.795 144.606 56.24 145.746 55.13C146.886 54.05 147.456 52.4 147.456 50.18V46.31C146.646 47.48 145.521 48.455 144.081 49.235C142.671 50.015 141.051 50.405 139.221 50.405C137.121 50.405 135.201 49.865 133.461 48.785C131.721 47.705 130.341 46.19 129.321 44.24C128.331 42.26 127.836 39.995 127.836 37.445C127.836 34.925 128.331 32.69 129.321 30.74C130.341 28.79 131.706 27.29 133.416 26.24C135.156 25.19 137.091 24.665 139.221 24.665ZM147.456 37.535C147.456 36.005 147.156 34.7 146.556 33.62C145.956 32.51 145.146 31.67 144.126 31.1C143.106 30.5 142.011 30.2 140.841 30.2C139.671 30.2 138.591 30.485 137.601 31.055C136.611 31.625 135.801 32.465 135.171 33.575C134.571 34.655 134.271 35.945 134.271 37.445C134.271 38.945 134.571 40.265 135.171 41.405C135.801 42.515 136.611 43.37 137.601 43.97C138.621 44.57 139.701 44.87 140.841 44.87C142.011 44.87 143.106 44.585 144.126 44.015C145.146 43.415 145.956 42.575 146.556 41.495C147.156 40.385 147.456 39.065 147.456 37.535ZM163.149 22.1C162.039 22.1 161.109 21.755 160.359 21.065C159.639 20.345 159.279 19.46 159.279 18.41C159.279 17.36 159.639 16.49 160.359 15.8C161.109 15.08 162.039 14.72 163.149 14.72C164.259 14.72 165.174 15.08 165.894 15.8C166.644 16.49 167.019 17.36 167.019 18.41C167.019 19.46 166.644 20.345 165.894 21.065C165.174 21.755 164.259 22.1 163.149 22.1ZM166.254 25.07V50H159.954V25.07H166.254ZM186.293 24.71C189.263 24.71 191.663 25.655 193.493 27.545C195.323 29.405 196.238 32.015 196.238 35.375V50H189.938V36.23C189.938 34.25 189.443 32.735 188.453 31.685C187.463 30.605 186.113 30.065 184.403 30.065C182.663 30.065 181.283 30.605 180.263 31.685C179.273 32.735 178.778 34.25 178.778 36.23V50H172.478V25.07H178.778V28.175C179.618 27.095 180.683 26.255 181.973 25.655C183.293 25.025 184.733 24.71 186.293 24.71Z"/>
</mask>
<path d="M86.405 45.005H96.755V50H80.105V18.59H86.405V45.005ZM111.829 50.405C109.429 50.405 107.269 49.88 105.349 48.83C103.429 47.75 101.914 46.235 100.804 44.285C99.7243 42.335 99.1843 40.085 99.1843 37.535C99.1843 34.985 99.7393 32.735 100.849 30.785C101.989 28.835 103.534 27.335 105.484 26.285C107.434 25.205 109.609 24.665 112.009 24.665C114.409 24.665 116.584 25.205 118.534 26.285C120.484 27.335 122.014 28.835 123.124 30.785C124.264 32.735 124.834 34.985 124.834 37.535C124.834 40.085 124.249 42.335 123.079 44.285C121.939 46.235 120.379 47.75 118.399 48.83C116.449 49.88 114.259 50.405 111.829 50.405ZM111.829 44.915C112.969 44.915 114.034 44.645 115.024 44.105C116.044 43.535 116.854 42.695 117.454 41.585C118.054 40.475 118.354 39.125 118.354 37.535C118.354 35.165 117.724 33.35 116.464 32.09C115.234 30.8 113.719 30.155 111.919 30.155C110.119 30.155 108.604 30.8 107.374 32.09C106.174 33.35 105.574 35.165 105.574 37.535C105.574 39.905 106.159 41.735 107.329 43.025C108.529 44.285 110.029 44.915 111.829 44.915ZM139.221 24.665C141.081 24.665 142.716 25.04 144.126 25.79C145.536 26.51 146.646 27.455 147.456 28.625V25.07H153.801V50.18C153.801 52.49 153.336 54.545 152.406 56.345C151.476 58.175 150.081 59.615 148.221 60.665C146.361 61.745 144.111 62.285 141.471 62.285C137.931 62.285 135.021 61.46 132.741 59.81C130.491 58.16 129.216 55.91 128.916 53.06H135.171C135.501 54.2 136.206 55.1 137.286 55.76C138.396 56.45 139.731 56.795 141.291 56.795C143.121 56.795 144.606 56.24 145.746 55.13C146.886 54.05 147.456 52.4 147.456 50.18V46.31C146.646 47.48 145.521 48.455 144.081 49.235C142.671 50.015 141.051 50.405 139.221 50.405C137.121 50.405 135.201 49.865 133.461 48.785C131.721 47.705 130.341 46.19 129.321 44.24C128.331 42.26 127.836 39.995 127.836 37.445C127.836 34.925 128.331 32.69 129.321 30.74C130.341 28.79 131.706 27.29 133.416 26.24C135.156 25.19 137.091 24.665 139.221 24.665ZM147.456 37.535C147.456 36.005 147.156 34.7 146.556 33.62C145.956 32.51 145.146 31.67 144.126 31.1C143.106 30.5 142.011 30.2 140.841 30.2C139.671 30.2 138.591 30.485 137.601 31.055C136.611 31.625 135.801 32.465 135.171 33.575C134.571 34.655 134.271 35.945 134.271 37.445C134.271 38.945 134.571 40.265 135.171 41.405C135.801 42.515 136.611 43.37 137.601 43.97C138.621 44.57 139.701 44.87 140.841 44.87C142.011 44.87 143.106 44.585 144.126 44.015C145.146 43.415 145.956 42.575 146.556 41.495C147.156 40.385 147.456 39.065 147.456 37.535ZM163.149 22.1C162.039 22.1 161.109 21.755 160.359 21.065C159.639 20.345 159.279 19.46 159.279 18.41C159.279 17.36 159.639 16.49 160.359 15.8C161.109 15.08 162.039 14.72 163.149 14.72C164.259 14.72 165.174 15.08 165.894 15.8C166.644 16.49 167.019 17.36 167.019 18.41C167.019 19.46 166.644 20.345 165.894 21.065C165.174 21.755 164.259 22.1 163.149 22.1ZM166.254 25.07V50H159.954V25.07H166.254ZM186.293 24.71C189.263 24.71 191.663 25.655 193.493 27.545C195.323 29.405 196.238 32.015 196.238 35.375V50H189.938V36.23C189.938 34.25 189.443 32.735 188.453 31.685C187.463 30.605 186.113 30.065 184.403 30.065C182.663 30.065 181.283 30.605 180.263 31.685C179.273 32.735 178.778 34.25 178.778 36.23V50H172.478V25.07H178.778V28.175C179.618 27.095 180.683 26.255 181.973 25.655C183.293 25.025 184.733 24.71 186.293 24.71Z" fill="#E2661F"/>
<path d="M86.405 45.005H85.405V46.005H86.405V45.005ZM96.755 45.005H97.755V44.005H96.755V45.005ZM96.755 50V51H97.755V50H96.755ZM80.105 50H79.105V51H80.105V50ZM80.105 18.59V17.59H79.105V18.59H80.105ZM86.405 18.59H87.405V17.59H86.405V18.59ZM86.405 46.005H96.755V44.005H86.405V46.005ZM95.755 45.005V50H97.755V45.005H95.755ZM96.755 49H80.105V51H96.755V49ZM81.105 50V18.59H79.105V50H81.105ZM80.105 19.59H86.405V17.59H80.105V19.59ZM85.405 18.59V45.005H87.405V18.59H85.405ZM105.349 48.83L104.859 49.7016L104.869 49.7074L105.349 48.83ZM100.804 44.285L99.9294 44.7695L99.9352 44.7797L100.804 44.285ZM100.849 30.785L99.9859 30.2803L99.9802 30.2903L100.849 30.785ZM105.484 26.285L105.958 27.1655L105.969 27.1598L105.484 26.285ZM118.534 26.285L118.05 27.1599L118.06 27.1655L118.534 26.285ZM123.124 30.785L122.255 31.2797L122.261 31.2897L123.124 30.785ZM123.079 44.285L122.222 43.7705L122.216 43.7803L123.079 44.285ZM118.399 48.83L118.873 49.7105L118.878 49.7079L118.399 48.83ZM115.024 44.105L115.503 44.9829L115.512 44.9779L115.024 44.105ZM117.454 41.585L118.334 42.0605L118.334 42.0605L117.454 41.585ZM116.464 32.09L115.741 32.7801L115.749 32.7887L115.757 32.7971L116.464 32.09ZM107.374 32.09L106.651 31.3999L106.65 31.4003L107.374 32.09ZM107.329 43.025L106.589 43.6968L106.597 43.7058L106.605 43.7147L107.329 43.025ZM111.829 49.405C109.58 49.405 107.588 48.9146 105.829 47.9526L104.869 49.7074C106.951 50.8454 109.278 51.405 111.829 51.405V49.405ZM105.84 47.9584C104.081 46.9691 102.695 45.5857 101.673 43.7903L99.9352 44.7797C101.133 46.8843 102.778 48.5309 104.859 49.7016L105.84 47.9584ZM101.679 43.8005C100.692 42.019 100.184 39.9402 100.184 37.535H98.1843C98.1843 40.2298 98.7562 42.651 99.9295 44.7695L101.679 43.8005ZM100.184 37.535C100.184 35.1344 100.705 33.0593 101.718 31.2797L99.9802 30.2903C98.7733 32.4107 98.1843 34.8356 98.1843 37.535H100.184ZM101.713 31.2897C102.762 29.495 104.174 28.1265 105.958 27.1655L105.01 25.4045C102.895 26.5435 101.217 28.175 99.986 30.2803L101.713 31.2897ZM105.969 27.1598C107.759 26.1682 109.765 25.665 112.009 25.665V23.665C109.453 23.665 107.109 24.2418 105 25.4102L105.969 27.1598ZM112.009 25.665C114.253 25.665 116.259 26.1682 118.05 27.1598L119.019 25.4102C116.909 24.2418 114.565 23.665 112.009 23.665V25.665ZM118.06 27.1655C119.843 28.1253 121.237 29.4905 122.255 31.2797L123.993 30.2903C122.792 28.1795 121.126 26.5447 119.008 25.4045L118.06 27.1655ZM122.261 31.2897C123.3 33.0676 123.834 35.139 123.834 37.535H125.834C125.834 34.831 125.228 32.4024 123.988 30.2803L122.261 31.2897ZM123.834 37.535C123.834 39.9263 123.288 41.9942 122.222 43.7705L123.937 44.7995C125.211 42.6758 125.834 40.2437 125.834 37.535H123.834ZM122.216 43.7803C121.168 45.5735 119.74 46.9594 117.92 47.9521L118.878 49.7079C121.018 48.5406 122.711 46.8965 123.943 44.7897L122.216 43.7803ZM117.925 47.9495C116.135 48.9136 114.11 49.405 111.829 49.405V51.405C114.408 51.405 116.764 50.8464 118.873 49.7105L117.925 47.9495ZM111.829 45.915C113.135 45.915 114.365 45.6039 115.503 44.9829L114.545 43.2271C113.704 43.6861 112.804 43.915 111.829 43.915V45.915ZM115.512 44.9779C116.711 44.3079 117.651 43.3236 118.334 42.0605L116.575 41.1095C116.057 42.0664 115.378 42.7621 114.536 43.2321L115.512 44.9779ZM118.334 42.0605C119.031 40.7713 119.354 39.2487 119.354 37.535H117.354C117.354 39.0013 117.078 40.1787 116.575 41.1095L118.334 42.0605ZM119.354 37.535C119.354 34.9903 118.674 32.886 117.171 31.3829L115.757 32.7971C116.774 33.814 117.354 35.3397 117.354 37.535H119.354ZM117.188 31.3999C115.767 29.9098 113.99 29.155 111.919 29.155V31.155C113.449 31.155 114.701 31.6902 115.741 32.7801L117.188 31.3999ZM111.919 29.155C109.849 29.155 108.071 29.9098 106.651 31.3999L108.098 32.7801C109.137 31.6902 110.39 31.155 111.919 31.155V29.155ZM106.65 31.4003C105.217 32.9051 104.574 35.0028 104.574 37.535H106.574C106.574 35.3272 107.131 33.7949 108.098 32.7797L106.65 31.4003ZM104.574 37.535C104.574 40.0628 105.199 42.1653 106.589 43.6968L108.07 42.3532C107.119 41.3047 106.574 39.7472 106.574 37.535H104.574ZM106.605 43.7147C108.001 45.1804 109.766 45.915 111.829 45.915V43.915C110.292 43.915 109.057 43.3896 108.053 42.3353L106.605 43.7147ZM144.126 25.79L143.656 26.6729L143.663 26.6768L143.671 26.6806L144.126 25.79ZM147.456 28.625L146.633 29.1942L148.456 31.8263V28.625H147.456ZM147.456 25.07V24.07H146.456V25.07H147.456ZM153.801 25.07H154.801V24.07H153.801V25.07ZM152.406 56.345L151.517 55.886L151.514 55.892L152.406 56.345ZM148.221 60.665L147.729 59.7941L147.718 59.8002L148.221 60.665ZM132.741 59.81L132.149 60.6164L132.154 60.6201L132.741 59.81ZM128.916 53.06V52.06H127.805L127.921 53.1647L128.916 53.06ZM135.171 53.06L136.131 52.7819L135.922 52.06H135.171V53.06ZM137.286 55.76L137.814 54.9107L137.807 54.9067L137.286 55.76ZM145.746 55.13L145.058 54.404L145.048 54.4135L145.746 55.13ZM147.456 46.31H148.456V43.1087L146.633 45.7408L147.456 46.31ZM144.081 49.235L143.604 48.3557L143.597 48.36L144.081 49.235ZM133.461 48.785L133.988 47.9354L133.988 47.9354L133.461 48.785ZM129.321 44.24L128.426 44.6872L128.43 44.6954L128.434 44.7035L129.321 44.24ZM129.321 30.74L128.434 30.2765L128.429 30.2873L129.321 30.74ZM133.416 26.24L132.899 25.3838L132.892 25.3878L133.416 26.24ZM146.556 33.62L145.676 34.0955L145.681 34.1056L146.556 33.62ZM144.126 31.1L143.619 31.9619L143.628 31.9675L143.638 31.9729L144.126 31.1ZM137.601 31.055L137.102 30.1884L137.102 30.1884L137.601 31.055ZM135.171 33.575L134.301 33.0814L134.296 33.0894L135.171 33.575ZM135.171 41.405L134.286 41.8707L134.293 41.8848L134.301 41.8986L135.171 41.405ZM137.601 43.97L137.082 44.8253L137.094 44.8319L137.601 43.97ZM144.126 44.015L144.613 44.8879L144.623 44.8825L144.633 44.8769L144.126 44.015ZM146.556 41.495L147.43 41.9807L147.435 41.9705L146.556 41.495ZM139.221 25.665C140.944 25.665 142.413 26.0116 143.656 26.6729L144.595 24.9071C143.018 24.0684 141.217 23.665 139.221 23.665V25.665ZM143.671 26.6806C144.951 27.3341 145.928 28.1748 146.633 29.1942L148.278 28.0558C147.364 26.7352 146.121 25.6859 144.58 24.8994L143.671 26.6806ZM148.456 28.625V25.07H146.456V28.625H148.456ZM147.456 26.07H153.801V24.07H147.456V26.07ZM152.801 25.07V50.18H154.801V25.07H152.801ZM152.801 50.18C152.801 52.3528 152.364 54.2466 151.517 55.886L153.294 56.804C154.307 54.8434 154.801 52.6272 154.801 50.18H152.801ZM151.514 55.892C150.677 57.539 149.425 58.8369 147.729 59.7942L148.712 61.5358C150.736 60.3931 152.274 58.811 153.297 56.7981L151.514 55.892ZM147.718 59.8002C146.042 60.7736 143.974 61.285 141.471 61.285V63.285C144.247 63.285 146.679 62.7164 148.723 61.5298L147.718 59.8002ZM141.471 61.285C138.086 61.285 135.397 60.4978 133.327 58.9999L132.154 60.6201C134.644 62.4222 137.775 63.285 141.471 63.285V61.285ZM133.332 59.0036C131.316 57.5253 130.181 55.5337 129.91 52.9553L127.921 53.1647C128.25 56.2863 129.665 58.7947 132.149 60.6164L133.332 59.0036ZM128.916 54.06H135.171V52.06H128.916V54.06ZM134.21 53.3381C134.614 54.7348 135.487 55.8325 136.764 56.6133L137.807 54.9067C136.925 54.3675 136.387 53.6652 136.131 52.7819L134.21 53.3381ZM136.758 56.6093C138.054 57.4154 139.58 57.795 141.291 57.795V55.795C139.881 55.795 138.737 55.4846 137.814 54.9107L136.758 56.6093ZM141.291 57.795C143.339 57.795 145.088 57.1658 146.443 55.8465L145.048 54.4135C144.123 55.3142 142.902 55.795 141.291 55.795V57.795ZM146.433 55.856C147.844 54.52 148.456 52.5587 148.456 50.18H146.456C146.456 52.2413 145.928 53.58 145.058 54.404L146.433 55.856ZM148.456 50.18V46.31H146.456V50.18H148.456ZM146.633 45.7408C145.925 46.7635 144.927 47.6392 143.604 48.3557L144.557 50.1143C146.114 49.2708 147.366 48.1965 148.278 46.8792L146.633 45.7408ZM143.597 48.36C142.354 49.0474 140.905 49.405 139.221 49.405V51.405C141.197 51.405 142.987 50.9826 144.565 50.11L143.597 48.36ZM139.221 49.405C137.302 49.405 135.565 48.9145 133.988 47.9354L132.933 49.6346C134.836 50.8155 136.939 51.405 139.221 51.405V49.405ZM133.988 47.9354C132.411 46.9567 131.15 45.5803 130.207 43.7765L128.434 44.7035C129.531 46.7997 131.03 48.4533 132.933 49.6346L133.988 47.9354ZM130.215 43.7928C129.304 41.9713 128.836 39.8634 128.836 37.445H126.836C126.836 40.1266 127.357 42.5487 128.426 44.6872L130.215 43.7928ZM128.836 37.445C128.836 35.0583 129.304 32.9824 130.212 31.1927L128.429 30.2873C127.358 32.3975 126.836 34.7917 126.836 37.445H128.836ZM130.207 31.2035C131.151 29.3975 132.397 28.0387 133.939 27.0922L132.892 25.3878C131.014 26.5413 129.53 28.1825 128.434 30.2765L130.207 31.2035ZM133.932 27.0962C135.509 26.1449 137.264 25.665 139.221 25.665V23.665C136.918 23.665 134.802 24.2351 132.899 25.3838L133.932 27.0962ZM148.456 37.535C148.456 35.8751 148.13 34.3944 147.43 33.1344L145.681 34.1056C146.181 35.0056 146.456 36.1349 146.456 37.535H148.456ZM147.435 33.1445C146.753 31.8814 145.812 30.8971 144.613 30.2271L143.638 31.9729C144.479 32.4429 145.159 33.1386 145.676 34.0955L147.435 33.1445ZM144.633 30.2381C143.461 29.5488 142.191 29.2 140.841 29.2V31.2C141.83 31.2 142.75 31.4512 143.619 31.9619L144.633 30.2381ZM140.841 29.2C139.5 29.2 138.247 29.5288 137.102 30.1884L138.1 31.9216C138.934 31.4412 139.841 31.2 140.841 31.2V29.2ZM137.102 30.1884C135.939 30.8575 135.008 31.8348 134.301 33.0814L136.04 34.0686C136.593 33.0952 137.282 32.3925 138.1 31.9216L137.102 30.1884ZM134.296 33.0894C133.598 34.3466 133.271 35.8112 133.271 37.445H135.271C135.271 36.0788 135.543 34.9634 136.045 34.0606L134.296 33.0894ZM133.271 37.445C133.271 39.0805 133.599 40.5652 134.286 41.8707L136.056 40.9393C135.543 39.9648 135.271 38.8095 135.271 37.445H133.271ZM134.301 41.8986C135.006 43.1416 135.932 44.1278 137.082 44.8252L138.119 43.1148C137.29 42.6122 136.595 41.8884 136.04 40.9114L134.301 41.8986ZM137.094 44.8319C138.261 45.5187 139.515 45.87 140.841 45.87V43.87C139.886 43.87 138.98 43.6213 138.108 43.1081L137.094 44.8319ZM140.841 45.87C142.181 45.87 143.444 45.5414 144.613 44.8879L143.638 43.1421C142.767 43.6286 141.84 43.87 140.841 43.87V45.87ZM144.633 44.8769C145.813 44.1824 146.747 43.2094 147.43 41.9806L145.681 41.0094C145.164 41.9406 144.478 42.6476 143.619 43.1531L144.633 44.8769ZM147.435 41.9705C148.129 40.6865 148.456 39.196 148.456 37.535H146.456C146.456 38.934 146.182 40.0835 145.676 41.0195L147.435 41.9705ZM160.359 21.065L159.652 21.7721L159.666 21.7868L159.682 21.8009L160.359 21.065ZM160.359 15.8L161.051 16.522L161.051 16.5214L160.359 15.8ZM165.894 15.8L165.187 16.5071L165.201 16.5218L165.217 16.5359L165.894 15.8ZM165.894 21.065L166.586 21.787L166.586 21.7864L165.894 21.065ZM166.254 25.07H167.254V24.07H166.254V25.07ZM166.254 50V51H167.254V50H166.254ZM159.954 50H158.954V51H159.954V50ZM159.954 25.07V24.07H158.954V25.07H159.954ZM163.149 21.1C162.265 21.1 161.584 20.8335 161.036 20.3291L159.682 21.8009C160.633 22.6765 161.812 23.1 163.149 23.1V21.1ZM161.066 20.3579C160.54 19.8319 160.279 19.204 160.279 18.41H158.279C158.279 19.716 158.738 20.8581 159.652 21.7721L161.066 20.3579ZM160.279 18.41C160.279 17.6164 160.539 17.0125 161.051 16.522L159.667 15.078C158.739 15.9675 158.279 17.1035 158.279 18.41H160.279ZM161.051 16.5214C161.602 15.9931 162.278 15.72 163.149 15.72V13.72C161.8 13.72 160.616 14.1669 159.666 15.0786L161.051 16.5214ZM163.149 15.72C164.02 15.72 164.672 15.9925 165.187 16.5071L166.601 15.0929C165.675 14.1675 164.498 13.72 163.149 13.72V15.72ZM165.217 16.5359C165.754 17.0302 166.019 17.6301 166.019 18.41H168.019C168.019 17.0899 167.533 15.9498 166.571 15.0641L165.217 16.5359ZM166.019 18.41C166.019 19.1908 165.752 19.8143 165.201 20.3436L166.586 21.7864C167.535 20.8757 168.019 19.7292 168.019 18.41H166.019ZM165.202 20.343C164.69 20.8338 164.032 21.1 163.149 21.1V23.1C164.485 23.1 165.658 22.6762 166.586 21.787L165.202 20.343ZM165.254 25.07V50H167.254V25.07H165.254ZM166.254 49H159.954V51H166.254V49ZM160.954 50V25.07H158.954V50H160.954ZM159.954 26.07H166.254V24.07H159.954V26.07ZM193.493 27.545L192.775 28.2406L192.78 28.2463L193.493 27.545ZM196.238 50V51H197.238V50H196.238ZM189.938 50H188.938V51H189.938V50ZM188.453 31.685L187.716 32.3608L187.725 32.371L188.453 31.685ZM180.263 31.685L179.536 30.9984L179.535 30.999L180.263 31.685ZM178.778 50V51H179.778V50H178.778ZM172.478 50H171.478V51H172.478V50ZM172.478 25.07V24.07H171.478V25.07H172.478ZM178.778 25.07H179.778V24.07H178.778V25.07ZM178.778 28.175H177.778V31.0895L179.567 28.7889L178.778 28.175ZM181.973 25.655L182.395 26.5618L182.404 26.5575L181.973 25.655ZM186.293 25.71C189.031 25.71 191.158 26.571 192.775 28.2406L194.211 26.8494C192.168 24.739 189.496 23.71 186.293 23.71V25.71ZM192.78 28.2463C194.377 29.8698 195.238 32.1987 195.238 35.375H197.238C197.238 31.8313 196.269 28.9402 194.206 26.8437L192.78 28.2463ZM195.238 35.375V50H197.238V35.375H195.238ZM196.238 49H189.938V51H196.238V49ZM190.938 50V36.23H188.938V50H190.938ZM190.938 36.23C190.938 34.0911 190.402 32.2944 189.181 30.999L187.725 32.371C188.484 33.1756 188.938 34.4089 188.938 36.23H190.938ZM189.19 31.0093C187.979 29.6876 186.342 29.065 184.403 29.065V31.065C185.884 31.065 186.947 31.5224 187.716 32.3607L189.19 31.0093ZM184.403 29.065C182.439 29.065 180.777 29.6839 179.536 30.9984L180.99 32.3716C181.789 31.5261 182.887 31.065 184.403 31.065V29.065ZM179.535 30.999C178.314 32.2944 177.778 34.0911 177.778 36.23H179.778C179.778 34.4089 180.232 33.1756 180.991 32.371L179.535 30.999ZM177.778 36.23V50H179.778V36.23H177.778ZM178.778 49H172.478V51H178.778V49ZM173.478 50V25.07H171.478V50H173.478ZM172.478 26.07H178.778V24.07H172.478V26.07ZM177.778 25.07V28.175H179.778V25.07H177.778ZM179.567 28.7889C180.306 27.8394 181.243 27.0975 182.395 26.5617L181.551 24.7483C180.123 25.4125 178.93 26.3506 177.989 27.5611L179.567 28.7889ZM182.404 26.5575C183.58 25.9959 184.872 25.71 186.293 25.71V23.71C184.594 23.71 183.006 24.0541 181.542 24.7525L182.404 26.5575Z" fill="#F59A64" mask="url(#path-1-outside-1_138_1858)"/>
</g>
<g clip-path="url(#clip0_138_1858)">
<g style="mix-blend-mode:multiply">
<path d="M28.2234 18.8238C30.0013 17.5284 32.4379 16.7857 35 16.7857C37.5621 16.7857 39.9987 17.5284 41.7766 18.8238C43.5521 20.1173 44.5 21.8321 44.5 23.5714V26.7143H25.5V23.5714C25.5 21.8321 26.4479 20.1173 28.2234 18.8238ZM14.5 23.5714V26.7259C12.6002 26.8141 10.7853 27.403 9.40227 28.4106C7.89588 29.5081 7 31.0364 7 32.6786V54.5357C7 56.1778 7.89588 57.7062 9.40227 58.8037C10.9062 59.8994 12.9208 60.5 15 60.5H55C57.0792 60.5 59.0938 59.8994 60.5977 58.8037C62.1041 57.7062 63 56.1778 63 54.5357V32.6786C63 31.0364 62.1041 29.5081 60.5977 28.4106C59.2147 27.403 57.3998 26.8141 55.5 26.7259V23.5714C55.5 19.5139 53.2872 15.6692 49.4366 12.8638C45.5884 10.0601 40.3944 8.5 35 8.5C29.6056 8.5 24.4116 10.0601 20.5634 12.8638C16.7128 15.6692 14.5 19.5139 14.5 23.5714ZM37.2473 47.3354C36.5376 47.5496 35.7736 47.6607 35 47.6607C33.4325 47.6607 31.9497 47.2059 30.875 46.4229C29.8028 45.6417 29.25 44.6219 29.25 43.6071C29.25 42.5924 29.8028 41.5726 30.875 40.7914C31.9497 40.0084 33.4325 39.5536 35 39.5536C35.7736 39.5536 36.5376 39.6647 37.2473 39.8789C37.9573 40.0931 38.5945 40.4049 39.125 40.7914C39.6555 41.1779 40.0649 41.6285 40.3396 42.1117C40.6136 42.5937 40.75 43.1013 40.75 43.6071C40.75 44.113 40.6136 44.6206 40.3396 45.1026C40.0649 45.5858 39.6555 46.0364 39.125 46.4229C38.5945 46.8094 37.9573 47.1212 37.2473 47.3354Z" fill="#D9BFB1"/>
<path d="M28.2234 18.8238C30.0013 17.5284 32.4379 16.7857 35 16.7857C37.5621 16.7857 39.9987 17.5284 41.7766 18.8238C43.5521 20.1173 44.5 21.8321 44.5 23.5714V26.7143H25.5V23.5714C25.5 21.8321 26.4479 20.1173 28.2234 18.8238ZM14.5 23.5714V26.7259C12.6002 26.8141 10.7853 27.403 9.40227 28.4106C7.89588 29.5081 7 31.0364 7 32.6786V54.5357C7 56.1778 7.89588 57.7062 9.40227 58.8037C10.9062 59.8994 12.9208 60.5 15 60.5H55C57.0792 60.5 59.0938 59.8994 60.5977 58.8037C62.1041 57.7062 63 56.1778 63 54.5357V32.6786C63 31.0364 62.1041 29.5081 60.5977 28.4106C59.2147 27.403 57.3998 26.8141 55.5 26.7259V23.5714C55.5 19.5139 53.2872 15.6692 49.4366 12.8638C45.5884 10.0601 40.3944 8.5 35 8.5C29.6056 8.5 24.4116 10.0601 20.5634 12.8638C16.7128 15.6692 14.5 19.5139 14.5 23.5714ZM37.2473 47.3354C36.5376 47.5496 35.7736 47.6607 35 47.6607C33.4325 47.6607 31.9497 47.2059 30.875 46.4229C29.8028 45.6417 29.25 44.6219 29.25 43.6071C29.25 42.5924 29.8028 41.5726 30.875 40.7914C31.9497 40.0084 33.4325 39.5536 35 39.5536C35.7736 39.5536 36.5376 39.6647 37.2473 39.8789C37.9573 40.0931 38.5945 40.4049 39.125 40.7914C39.6555 41.1779 40.0649 41.6285 40.3396 42.1117C40.6136 42.5937 40.75 43.1013 40.75 43.6071C40.75 44.113 40.6136 44.6206 40.3396 45.1026C40.0649 45.5858 39.6555 46.0364 39.125 46.4229C38.5945 46.8094 37.9573 47.1212 37.2473 47.3354Z" fill="#B69B91"/>
<path d="M28.2234 18.8238C30.0013 17.5284 32.4379 16.7857 35 16.7857C37.5621 16.7857 39.9987 17.5284 41.7766 18.8238C43.5521 20.1173 44.5 21.8321 44.5 23.5714V26.7143H25.5V23.5714C25.5 21.8321 26.4479 20.1173 28.2234 18.8238ZM14.5 23.5714V26.7259C12.6002 26.8141 10.7853 27.403 9.40227 28.4106C7.89588 29.5081 7 31.0364 7 32.6786V54.5357C7 56.1778 7.89588 57.7062 9.40227 58.8037C10.9062 59.8994 12.9208 60.5 15 60.5H55C57.0792 60.5 59.0938 59.8994 60.5977 58.8037C62.1041 57.7062 63 56.1778 63 54.5357V32.6786C63 31.0364 62.1041 29.5081 60.5977 28.4106C59.2147 27.403 57.3998 26.8141 55.5 26.7259V23.5714C55.5 19.5139 53.2872 15.6692 49.4366 12.8638C45.5884 10.0601 40.3944 8.5 35 8.5C29.6056 8.5 24.4116 10.0601 20.5634 12.8638C16.7128 15.6692 14.5 19.5139 14.5 23.5714ZM37.2473 47.3354C36.5376 47.5496 35.7736 47.6607 35 47.6607C33.4325 47.6607 31.9497 47.2059 30.875 46.4229C29.8028 45.6417 29.25 44.6219 29.25 43.6071C29.25 42.5924 29.8028 41.5726 30.875 40.7914C31.9497 40.0084 33.4325 39.5536 35 39.5536C35.7736 39.5536 36.5376 39.6647 37.2473 39.8789C37.9573 40.0931 38.5945 40.4049 39.125 40.7914C39.6555 41.1779 40.0649 41.6285 40.3396 42.1117C40.6136 42.5937 40.75 43.1013 40.75 43.6071C40.75 44.113 40.6136 44.6206 40.3396 45.1026C40.0649 45.5858 39.6555 46.0364 39.125 46.4229C38.5945 46.8094 37.9573 47.1212 37.2473 47.3354Z" stroke="#B69B91"/>
</g>
</g>
<defs>
<clipPath id="clip0_138_1858">
<rect width="70" height="51" fill="white" transform="translate(0 9)"/>
</clipPath>
</defs>
</svg>
