<svg width="115" height="36" viewBox="0 0 115 36" fill="none" xmlns="http://www.w3.org/2000/svg">
<g style="mix-blend-mode:multiply">
<g style="mix-blend-mode:plus-darker">
<path d="M1.33292 6.33292C1.86622 5.79961 2.58954 5.5 3.34375 5.5H7.80208C8.55629 5.5 9.27961 5.79961 9.81292 6.33292C10.3462 6.86622 10.6458 7.58954 10.6458 8.34375V12.8021C10.6458 13.5563 10.3462 14.2796 9.81292 14.8129C9.27961 15.3462 8.55629 15.6458 7.80208 15.6458H3.34375C2.58954 15.6458 1.86622 15.3462 1.33292 14.8129C0.799609 14.2796 0.5 13.5563 0.5 12.8021V8.34375C0.5 7.58954 0.799609 6.86622 1.33292 6.33292ZM1.33292 21.9371C1.86622 21.4038 2.58954 21.1042 3.34375 21.1042H7.80208C8.55629 21.1042 9.27961 21.4038 9.81292 21.9371C10.3462 22.4704 10.6458 23.1937 10.6458 23.9479V28.4062C10.6458 29.1605 10.3462 29.8838 9.81292 30.4171C9.27961 30.9504 8.55629 31.25 7.80208 31.25H3.34375C2.58954 31.25 1.86622 30.9504 1.33292 30.4171C0.799609 29.8838 0.5 29.1605 0.5 28.4062V23.9479C0.5 23.1937 0.799609 22.4704 1.33292 21.9371ZM16.1042 8.34375C16.1042 7.58954 16.4038 6.86622 16.9371 6.33292C17.4704 5.79961 18.1937 5.5 18.9479 5.5H23.4062C24.1605 5.5 24.8838 5.79961 25.4171 6.33292C25.9504 6.86622 26.25 7.58954 26.25 8.34375V12.8021C26.25 13.5563 25.9504 14.2796 25.4171 14.8129C24.8838 15.3462 24.1605 15.6458 23.4062 15.6458H18.9479C18.1937 15.6458 17.4704 15.3462 16.9371 14.8129C16.4038 14.2796 16.1042 13.5563 16.1042 12.8021V8.34375ZM16.9371 21.9371C17.4704 21.4038 18.1937 21.1042 18.9479 21.1042H23.4062C24.1605 21.1042 24.8838 21.4038 25.4171 21.9371C25.9504 22.4704 26.25 23.1937 26.25 23.9479V28.4062C26.25 29.1605 25.9504 29.8838 25.4171 30.4171C24.8838 30.9504 24.1605 31.25 23.4062 31.25H18.9479C18.1937 31.25 17.4704 30.9504 16.9371 30.4171C16.4038 29.8838 16.1042 29.1605 16.1042 28.4062V23.9479C16.1042 23.1937 16.4038 22.4704 16.9371 21.9371Z" fill="#E26C28"/>
<path d="M1.33292 6.33292C1.86622 5.79961 2.58954 5.5 3.34375 5.5H7.80208C8.55629 5.5 9.27961 5.79961 9.81292 6.33292C10.3462 6.86622 10.6458 7.58954 10.6458 8.34375V12.8021C10.6458 13.5563 10.3462 14.2796 9.81292 14.8129C9.27961 15.3462 8.55629 15.6458 7.80208 15.6458H3.34375C2.58954 15.6458 1.86622 15.3462 1.33292 14.8129C0.799609 14.2796 0.5 13.5563 0.5 12.8021V8.34375C0.5 7.58954 0.799609 6.86622 1.33292 6.33292ZM1.33292 21.9371C1.86622 21.4038 2.58954 21.1042 3.34375 21.1042H7.80208C8.55629 21.1042 9.27961 21.4038 9.81292 21.9371C10.3462 22.4704 10.6458 23.1937 10.6458 23.9479V28.4062C10.6458 29.1605 10.3462 29.8838 9.81292 30.4171C9.27961 30.9504 8.55629 31.25 7.80208 31.25H3.34375C2.58954 31.25 1.86622 30.9504 1.33292 30.4171C0.799609 29.8838 0.5 29.1605 0.5 28.4062V23.9479C0.5 23.1937 0.799609 22.4704 1.33292 21.9371ZM16.1042 8.34375C16.1042 7.58954 16.4038 6.86622 16.9371 6.33292C17.4704 5.79961 18.1937 5.5 18.9479 5.5H23.4062C24.1605 5.5 24.8838 5.79961 25.4171 6.33292C25.9504 6.86622 26.25 7.58954 26.25 8.34375V12.8021C26.25 13.5563 25.9504 14.2796 25.4171 14.8129C24.8838 15.3462 24.1605 15.6458 23.4062 15.6458H18.9479C18.1937 15.6458 17.4704 15.3462 16.9371 14.8129C16.4038 14.2796 16.1042 13.5563 16.1042 12.8021V8.34375ZM16.9371 21.9371C17.4704 21.4038 18.1937 21.1042 18.9479 21.1042H23.4062C24.1605 21.1042 24.8838 21.4038 25.4171 21.9371C25.9504 22.4704 26.25 23.1937 26.25 23.9479V28.4062C26.25 29.1605 25.9504 29.8838 25.4171 30.4171C24.8838 30.9504 24.1605 31.25 23.4062 31.25H18.9479C18.1937 31.25 17.4704 30.9504 16.9371 30.4171C16.4038 29.8838 16.1042 29.1605 16.1042 28.4062V23.9479C16.1042 23.1937 16.4038 22.4704 16.9371 21.9371Z" stroke="#E26C28"/>
</g>
<g style="mix-blend-mode:multiply">
<mask id="path-2-outside-1_234_196" maskUnits="userSpaceOnUse" x="47" y="5" width="67" height="23" fill="black">
<rect fill="white" x="47" y="5" width="67" height="23"/>
<path d="M66.368 9.32V26H63.632V14.576L58.544 26H56.648L51.536 14.576V26H48.8V9.32H51.752L57.608 22.4L63.44 9.32H66.368ZM82.0841 19.064C82.0841 19.56 82.0521 20.008 81.9881 20.408H71.8841C71.9641 21.464 72.3561 22.312 73.0601 22.952C73.7641 23.592 74.6281 23.912 75.6521 23.912C77.1241 23.912 78.1641 23.296 78.7721 22.064H81.7241C81.3241 23.28 80.5961 24.28 79.5401 25.064C78.5001 25.832 77.2041 26.216 75.6521 26.216C74.3881 26.216 73.2521 25.936 72.2441 25.376C71.2521 24.8 70.4681 24 69.8921 22.976C69.3321 21.936 69.0521 20.736 69.0521 19.376C69.0521 18.016 69.3241 16.824 69.8681 15.8C70.4281 14.76 71.2041 13.96 72.1961 13.4C73.2041 12.84 74.3561 12.56 75.6521 12.56C76.9001 12.56 78.0121 12.832 78.9881 13.376C79.9641 13.92 80.7241 14.688 81.2681 15.68C81.8121 16.656 82.0841 17.784 82.0841 19.064ZM79.2281 18.2C79.2121 17.192 78.8521 16.384 78.1481 15.776C77.4441 15.168 76.5721 14.864 75.5321 14.864C74.5881 14.864 73.7801 15.168 73.1081 15.776C72.4361 16.368 72.0361 17.176 71.9081 18.2H79.2281ZM91.4486 12.56C92.4886 12.56 93.4166 12.776 94.2326 13.208C95.0646 13.64 95.7126 14.28 96.1766 15.128C96.6406 15.976 96.8726 17 96.8726 18.2V26H94.1606V18.608C94.1606 17.424 93.8646 16.52 93.2726 15.896C92.6806 15.256 91.8726 14.936 90.8486 14.936C89.8246 14.936 89.0086 15.256 88.4006 15.896C87.8086 16.52 87.5126 17.424 87.5126 18.608V26H84.7766V12.776H87.5126V14.288C87.9606 13.744 88.5286 13.32 89.2166 13.016C89.9206 12.712 90.6646 12.56 91.4486 12.56ZM112.339 12.776V26H109.603V24.44C109.171 24.984 108.603 25.416 107.899 25.736C107.211 26.04 106.475 26.192 105.691 26.192C104.651 26.192 103.715 25.976 102.883 25.544C102.067 25.112 101.419 24.472 100.939 23.624C100.475 22.776 100.243 21.752 100.243 20.552V12.776H102.955V20.144C102.955 21.328 103.251 22.24 103.843 22.88C104.435 23.504 105.243 23.816 106.267 23.816C107.291 23.816 108.099 23.504 108.691 22.88C109.299 22.24 109.603 21.328 109.603 20.144V12.776H112.339ZM108.835 9.224L103.531 11.84V9.824L108.835 6.896V9.224Z"/>
</mask>
<path d="M66.368 9.32V26H63.632V14.576L58.544 26H56.648L51.536 14.576V26H48.8V9.32H51.752L57.608 22.4L63.44 9.32H66.368ZM82.0841 19.064C82.0841 19.56 82.0521 20.008 81.9881 20.408H71.8841C71.9641 21.464 72.3561 22.312 73.0601 22.952C73.7641 23.592 74.6281 23.912 75.6521 23.912C77.1241 23.912 78.1641 23.296 78.7721 22.064H81.7241C81.3241 23.28 80.5961 24.28 79.5401 25.064C78.5001 25.832 77.2041 26.216 75.6521 26.216C74.3881 26.216 73.2521 25.936 72.2441 25.376C71.2521 24.8 70.4681 24 69.8921 22.976C69.3321 21.936 69.0521 20.736 69.0521 19.376C69.0521 18.016 69.3241 16.824 69.8681 15.8C70.4281 14.76 71.2041 13.96 72.1961 13.4C73.2041 12.84 74.3561 12.56 75.6521 12.56C76.9001 12.56 78.0121 12.832 78.9881 13.376C79.9641 13.92 80.7241 14.688 81.2681 15.68C81.8121 16.656 82.0841 17.784 82.0841 19.064ZM79.2281 18.2C79.2121 17.192 78.8521 16.384 78.1481 15.776C77.4441 15.168 76.5721 14.864 75.5321 14.864C74.5881 14.864 73.7801 15.168 73.1081 15.776C72.4361 16.368 72.0361 17.176 71.9081 18.2H79.2281ZM91.4486 12.56C92.4886 12.56 93.4166 12.776 94.2326 13.208C95.0646 13.64 95.7126 14.28 96.1766 15.128C96.6406 15.976 96.8726 17 96.8726 18.2V26H94.1606V18.608C94.1606 17.424 93.8646 16.52 93.2726 15.896C92.6806 15.256 91.8726 14.936 90.8486 14.936C89.8246 14.936 89.0086 15.256 88.4006 15.896C87.8086 16.52 87.5126 17.424 87.5126 18.608V26H84.7766V12.776H87.5126V14.288C87.9606 13.744 88.5286 13.32 89.2166 13.016C89.9206 12.712 90.6646 12.56 91.4486 12.56ZM112.339 12.776V26H109.603V24.44C109.171 24.984 108.603 25.416 107.899 25.736C107.211 26.04 106.475 26.192 105.691 26.192C104.651 26.192 103.715 25.976 102.883 25.544C102.067 25.112 101.419 24.472 100.939 23.624C100.475 22.776 100.243 21.752 100.243 20.552V12.776H102.955V20.144C102.955 21.328 103.251 22.24 103.843 22.88C104.435 23.504 105.243 23.816 106.267 23.816C107.291 23.816 108.099 23.504 108.691 22.88C109.299 22.24 109.603 21.328 109.603 20.144V12.776H112.339ZM108.835 9.224L103.531 11.84V9.824L108.835 6.896V9.224Z" fill="#E26C28"/>
<path d="M66.368 9.32H67.368V8.32H66.368V9.32ZM66.368 26V27H67.368V26H66.368ZM63.632 26H62.632V27H63.632V26ZM63.632 14.576H64.632L62.7185 14.1691L63.632 14.576ZM58.544 26V27H59.1933L59.4575 26.4069L58.544 26ZM56.648 26L55.7352 26.4085L55.9999 27H56.648V26ZM51.536 14.576L52.4488 14.1675L50.536 14.576H51.536ZM51.536 26V27H52.536V26H51.536ZM48.8 26H47.8V27H48.8V26ZM48.8 9.32V8.32H47.8V9.32H48.8ZM51.752 9.32L52.6647 8.91138L52.3999 8.32H51.752V9.32ZM57.608 22.4L56.6953 22.8086L57.6099 24.8514L58.5213 22.8072L57.608 22.4ZM63.44 9.32V8.32H62.791L62.5267 8.91277L63.44 9.32ZM65.368 9.32V26H67.368V9.32H65.368ZM66.368 25H63.632V27H66.368V25ZM64.632 26V14.576H62.632V26H64.632ZM62.7185 14.1691L57.6305 25.5931L59.4575 26.4069L64.5455 14.9829L62.7185 14.1691ZM58.544 25H56.648V27H58.544V25ZM57.5608 25.5915L52.4488 14.1675L50.6232 14.9844L55.7352 26.4085L57.5608 25.5915ZM50.536 14.576V26H52.536V14.576H50.536ZM51.536 25H48.8V27H51.536V25ZM49.8 26V9.32H47.8V26H49.8ZM48.8 10.32H51.752V8.32H48.8V10.32ZM50.8393 9.72862L56.6953 22.8086L58.5207 21.9914L52.6647 8.91138L50.8393 9.72862ZM58.5213 22.8072L64.3533 9.72723L62.5267 8.91277L56.6947 21.9928L58.5213 22.8072ZM63.44 10.32H66.368V8.32H63.44V10.32ZM81.9881 20.408V21.408H82.8408L82.9755 20.566L81.9881 20.408ZM71.8841 20.408V19.408H70.8054L70.8869 20.4835L71.8841 20.408ZM73.0601 22.952L72.3874 23.6919L72.3874 23.6919L73.0601 22.952ZM78.7721 22.064V21.064H78.1504L77.8753 21.6215L78.7721 22.064ZM81.7241 22.064L82.674 22.3765L83.1057 21.064H81.7241V22.064ZM79.5401 25.064L80.1341 25.8684L80.1362 25.8669L79.5401 25.064ZM72.2441 25.376L71.7419 26.2408L71.7501 26.2456L71.7584 26.2502L72.2441 25.376ZM69.8921 22.976L69.0116 23.4501L69.016 23.4582L69.0205 23.4663L69.8921 22.976ZM69.8681 15.8L68.9876 15.3259L68.9849 15.3308L69.8681 15.8ZM72.1961 13.4L71.7104 12.5258L71.7045 12.5292L72.1961 13.4ZM78.9881 13.376L79.4749 12.5025L79.4749 12.5025L78.9881 13.376ZM81.2681 15.68L80.3912 16.1608L80.3946 16.1669L81.2681 15.68ZM79.2281 18.2V19.2H80.2441L80.2279 18.1841L79.2281 18.2ZM78.1481 15.776L78.8017 15.0192L78.8017 15.0192L78.1481 15.776ZM73.1081 15.776L73.7692 16.5264L73.779 16.5175L73.1081 15.776ZM71.9081 18.2L70.9158 18.076L70.7753 19.2H71.9081V18.2ZM81.0841 19.064C81.0841 19.5184 81.0547 19.9123 81.0006 20.25L82.9755 20.566C83.0495 20.1037 83.0841 19.6016 83.0841 19.064H81.0841ZM81.9881 19.408H71.8841V21.408H81.9881V19.408ZM70.8869 20.4835C70.9839 21.763 71.4723 22.8601 72.3874 23.6919L73.7327 22.2121C73.2398 21.7639 72.9443 21.165 72.8812 20.3325L70.8869 20.4835ZM72.3874 23.6919C73.2902 24.5127 74.4 24.912 75.6521 24.912V22.912C74.8562 22.912 74.2379 22.6713 73.7327 22.2121L72.3874 23.6919ZM75.6521 24.912C76.5284 24.912 77.341 24.7278 78.0457 24.3104C78.7545 23.8906 79.2911 23.272 79.6688 22.5065L77.8753 21.6215C77.6451 22.088 77.3576 22.3934 77.0264 22.5896C76.6911 22.7882 76.2477 22.912 75.6521 22.912V24.912ZM78.7721 23.064H81.7241V21.064H78.7721V23.064ZM80.7741 21.7515C80.4405 22.7658 79.8391 23.5965 78.944 24.2611L80.1362 25.8669C81.353 24.9635 82.2076 23.7942 82.674 22.3765L80.7741 21.7515ZM78.946 24.2596C78.1103 24.8767 77.0342 25.216 75.6521 25.216V27.216C77.3739 27.216 78.8898 26.7873 80.1341 25.8684L78.946 24.2596ZM75.6521 25.216C74.5413 25.216 73.5752 24.9715 72.7297 24.5018L71.7584 26.2502C72.929 26.9005 74.2349 27.216 75.6521 27.216V25.216ZM72.7462 24.5112C71.9124 24.0271 71.2543 23.3581 70.7636 22.4857L69.0205 23.4663C69.6818 24.6419 70.5917 25.5729 71.7419 26.2408L72.7462 24.5112ZM70.7725 22.5019C70.3021 21.6283 70.0521 20.5958 70.0521 19.376H68.0521C68.0521 20.8762 68.362 22.2437 69.0116 23.4501L70.7725 22.5019ZM70.0521 19.376C70.0521 18.1513 70.2962 17.1256 70.7512 16.2692L68.9849 15.3308C68.3519 16.5224 68.0521 17.8807 68.0521 19.376H70.0521ZM70.7485 16.2741C71.2225 15.394 71.8664 14.7344 72.6877 14.2708L71.7045 12.5292C70.5417 13.1856 69.6337 14.126 68.9876 15.3259L70.7485 16.2741ZM72.6817 14.2742C73.5235 13.8065 74.5046 13.56 75.6521 13.56V11.56C74.2075 11.56 72.8846 11.8735 71.7104 12.5258L72.6817 14.2742ZM75.6521 13.56C76.75 13.56 77.6909 13.7978 78.5012 14.2495L79.4749 12.5025C78.3333 11.8662 77.0502 11.56 75.6521 11.56V13.56ZM78.5012 14.2495C79.3107 14.7007 79.9365 15.3316 80.3913 16.1608L82.1449 15.1992C81.5116 14.0444 80.6174 13.1393 79.4749 12.5025L78.5012 14.2495ZM80.3946 16.1669C80.8442 16.9735 81.0841 17.9293 81.0841 19.064H83.0841C83.0841 17.6387 82.7799 16.3385 82.1415 15.1931L80.3946 16.1669ZM80.2279 18.1841C80.2078 16.9179 79.741 15.8304 78.8017 15.0192L77.4944 16.5328C77.9632 16.9376 78.2163 17.4661 78.2282 18.2159L80.2279 18.1841ZM78.8017 15.0192C77.8944 14.2356 76.7817 13.864 75.5321 13.864V15.864C76.3624 15.864 76.9938 16.1004 77.4944 16.5328L78.8017 15.0192ZM75.5321 13.864C74.3515 13.864 73.3013 14.2527 72.4371 15.0345L73.779 16.5175C74.2589 16.0833 74.8247 15.864 75.5321 15.864V13.864ZM72.447 15.0256C71.5642 15.8034 71.0692 16.849 70.9158 18.076L72.9003 18.324C73.003 17.503 73.3079 16.9326 73.7691 16.5264L72.447 15.0256ZM71.9081 19.2H79.2281V17.2H71.9081V19.2ZM94.2326 13.208L93.7647 14.0918L93.7717 14.0955L94.2326 13.208ZM96.1766 15.128L95.2993 15.608L95.2993 15.608L96.1766 15.128ZM96.8726 26V27H97.8726V26H96.8726ZM94.1606 26H93.1606V27H94.1606V26ZM93.2726 15.896L92.5384 16.5751L92.5471 16.5843L93.2726 15.896ZM88.4006 15.896L87.6756 15.2072L87.6751 15.2077L88.4006 15.896ZM87.5126 26V27H88.5126V26H87.5126ZM84.7766 26H83.7766V27H84.7766V26ZM84.7766 12.776V11.776H83.7766V12.776H84.7766ZM87.5126 12.776H88.5126V11.776H87.5126V12.776ZM87.5126 14.288H86.5126V17.0753L88.2845 14.9237L87.5126 14.288ZM89.2166 13.016L88.8201 12.0979L88.8124 12.1013L89.2166 13.016ZM91.4486 13.56C92.3463 13.56 93.1102 13.7453 93.7647 14.0918L94.7004 12.3242C93.7229 11.8067 92.6308 11.56 91.4486 11.56V13.56ZM93.7717 14.0955C94.4218 14.433 94.9274 14.9284 95.2993 15.608L97.0538 14.648C96.4977 13.6316 95.7073 12.847 94.6934 12.3205L93.7717 14.0955ZM95.2993 15.608C95.6656 16.2774 95.8726 17.1278 95.8726 18.2H97.8726C97.8726 16.8722 97.6156 15.6746 97.0538 14.648L95.2993 15.608ZM95.8726 18.2V26H97.8726V18.2H95.8726ZM96.8726 25H94.1606V27H96.8726V25ZM95.1606 26V18.608H93.1606V26H95.1606ZM95.1606 18.608C95.1606 17.2656 94.8237 16.078 93.998 15.2077L92.5471 16.5843C92.9054 16.962 93.1606 17.5824 93.1606 18.608H95.1606ZM94.0067 15.217C93.1921 14.3364 92.0982 13.936 90.8486 13.936V15.936C91.6469 15.936 92.169 16.1756 92.5385 16.575L94.0067 15.217ZM90.8486 13.936C89.5983 13.936 88.5029 14.3363 87.6756 15.2072L89.1256 16.5847C89.5142 16.1757 90.0508 15.936 90.8486 15.936V13.936ZM87.6751 15.2077C86.8494 16.078 86.5126 17.2656 86.5126 18.608H88.5126C88.5126 17.5824 88.7677 16.962 89.126 16.5843L87.6751 15.2077ZM86.5126 18.608V26H88.5126V18.608H86.5126ZM87.5126 25H84.7766V27H87.5126V25ZM85.7766 26V12.776H83.7766V26H85.7766ZM84.7766 13.776H87.5126V11.776H84.7766V13.776ZM86.5126 12.776V14.288H88.5126V12.776H86.5126ZM88.2845 14.9237C88.6267 14.5081 89.0656 14.176 89.6207 13.9307L88.8124 12.1013C87.9916 12.464 87.2944 12.9799 86.7406 13.6523L88.2845 14.9237ZM89.613 13.9341C90.189 13.6853 90.7978 13.56 91.4486 13.56V11.56C90.5313 11.56 89.6521 11.7387 88.8201 12.0979L89.613 13.9341ZM112.339 12.776H113.339V11.776H112.339V12.776ZM112.339 26V27H113.339V26H112.339ZM109.603 26H108.603V27H109.603V26ZM109.603 24.44H110.603V21.5727L108.819 23.8181L109.603 24.44ZM107.899 25.736L108.303 26.6507L108.312 26.6464L107.899 25.736ZM102.883 25.544L102.415 26.4278L102.422 26.4315L102.883 25.544ZM100.939 23.624L100.061 24.104L100.065 24.1103L100.068 24.1166L100.939 23.624ZM100.243 12.776V11.776H99.2425V12.776H100.243ZM102.955 12.776H103.955V11.776H102.955V12.776ZM103.843 22.88L103.108 23.5591L103.117 23.5683L103.843 22.88ZM108.691 22.88L107.966 22.1913L107.965 22.1917L108.691 22.88ZM109.603 12.776V11.776H108.603V12.776H109.603ZM108.835 9.224L109.277 10.1208L109.835 9.8458V9.224H108.835ZM103.531 11.84H102.531V13.4482L103.973 12.7368L103.531 11.84ZM103.531 9.824L103.047 8.94854L102.531 9.23378V9.824H103.531ZM108.835 6.896H109.835V5.20171L108.351 6.02054L108.835 6.896ZM111.339 12.776V26H113.339V12.776H111.339ZM112.339 25H109.603V27H112.339V25ZM110.603 26V24.44H108.603V26H110.603ZM108.819 23.8181C108.497 24.2246 108.061 24.5637 107.485 24.8256L108.312 26.6464C109.144 26.2683 109.844 25.7434 110.386 25.0619L108.819 23.8181ZM107.494 24.8213C106.939 25.0667 106.341 25.192 105.691 25.192V27.192C106.608 27.192 107.482 27.0133 108.303 26.6507L107.494 24.8213ZM105.691 25.192C104.793 25.192 104.018 25.0068 103.343 24.6565L102.422 26.4315C103.411 26.9452 104.508 27.192 105.691 27.192V25.192ZM103.35 24.6602C102.713 24.3226 102.2 23.8229 101.809 23.1314L100.068 24.1166C100.637 25.1211 101.42 25.9014 102.415 26.4278L103.35 24.6602ZM101.816 23.144C101.449 22.4746 101.243 21.6242 101.243 20.552H99.2425C99.2425 21.8798 99.4995 23.0774 100.061 24.104L101.816 23.144ZM101.243 20.552V12.776H99.2425V20.552H101.243ZM100.243 13.776H102.955V11.776H100.243V13.776ZM101.955 12.776V20.144H103.955V12.776H101.955ZM101.955 20.144C101.955 21.4883 102.292 22.6766 103.108 23.559L104.577 22.201C104.209 21.8034 103.955 21.1677 103.955 20.144H101.955ZM103.117 23.5683C103.934 24.4289 105.025 24.816 106.267 24.816V22.816C105.46 22.816 104.935 22.5791 104.568 22.1917L103.117 23.5683ZM106.267 24.816C107.508 24.816 108.599 24.4289 109.416 23.5683L107.965 22.1917C107.598 22.5791 107.073 22.816 106.267 22.816V24.816ZM109.415 23.5687C110.253 22.6868 110.603 21.4949 110.603 20.144H108.603C108.603 21.1611 108.344 21.7932 107.966 22.1913L109.415 23.5687ZM110.603 20.144V12.776H108.603V20.144H110.603ZM109.603 13.776H112.339V11.776H109.603V13.776ZM108.392 8.32715L103.088 10.9432L103.973 12.7368L109.277 10.1208L108.392 8.32715ZM104.531 11.84V9.824H102.531V11.84H104.531ZM104.014 10.6995L109.318 7.77146L108.351 6.02054L103.047 8.94854L104.014 10.6995ZM107.835 6.896V9.224H109.835V6.896H107.835Z" fill="#E26C28" mask="url(#path-2-outside-1_234_196)"/>
</g>
</g>
</svg>
