<svg width="79" height="76" viewBox="0 0 79 76" fill="none" xmlns="http://www.w3.org/2000/svg">
<path d="M50.9493 70.1251C51.1965 70.6984 51.3367 71.362 51.3551 72.0458C51.3736 72.7296 51.2695 73.4083 51.054 74.0101C50.8385 74.6119 50.5194 75.1144 50.1307 75.4647C49.7419 75.815 49.2978 75.9999 48.8452 76H2.512C2.05946 75.9999 1.61533 75.815 1.22655 75.4647C0.837761 75.1144 0.518753 74.6119 0.303225 74.0101C0.0876968 73.4083 -0.0163472 72.7296 0.00208523 72.0458C0.0205176 71.362 0.160742 70.6984 0.407943 70.1251C3.94435 61.8929 9.14603 55.6106 15.2368 52.2156C11.8697 48.8255 9.31335 43.8867 7.9458 38.1295C6.57824 32.3723 6.47209 26.1023 7.64304 20.2468C8.81399 14.3913 11.1999 9.26111 14.4479 5.61489C17.6959 1.96867 21.6335 0 25.6786 0C29.7237 0 33.6613 1.96867 36.9093 5.61489C40.1573 9.26111 42.5432 14.3913 43.7142 20.2468C44.8851 26.1023 44.779 32.3723 43.4114 38.1295C42.0439 43.8867 39.4875 48.8255 36.1204 52.2156C42.2112 55.6106 47.4129 61.8929 50.9493 70.1251ZM78.5564 70.0539C75.019 61.8563 69.8289 55.601 63.7557 52.2156C67.7308 48.1662 70.5361 41.9781 71.6006 34.9109C72.6651 27.8437 71.9088 20.4286 69.4857 14.175C67.0626 7.92134 63.1548 3.29919 58.5576 1.24936C53.9605 -0.800469 49.0196 -0.123907 44.7407 3.14134C44.5771 3.2691 44.4341 3.4497 44.3217 3.67035C44.2094 3.89101 44.1305 4.14632 44.0906 4.4182C44.0508 4.69008 44.051 4.97189 44.0911 5.24367C44.1313 5.51544 44.2105 5.77054 44.3231 5.9909C47.5048 11.9931 49.3321 19.3783 49.5372 27.0649C49.7423 34.7515 48.3146 42.3355 45.463 48.7059C45.2787 49.1222 45.2106 49.6318 45.2735 50.1237C45.3365 50.6156 45.5253 51.05 45.799 51.3322C49.5169 55.2565 52.6997 60.2278 55.1731 65.9743C56.1706 68.2846 56.578 71.065 56.3193 73.7963C56.2902 74.068 56.3005 74.3461 56.3494 74.6112C56.3984 74.8763 56.4848 75.1221 56.6028 75.3317C56.7208 75.5413 56.8675 75.7096 57.0327 75.825C57.1979 75.9404 57.3778 76.0001 57.5598 76H76.4963C77.0495 76.0002 77.5873 75.7244 78.0262 75.2151C78.4651 74.7059 78.7807 73.9918 78.9238 73.1837C79.0111 72.6522 79.0236 72.0989 78.9603 71.5597C78.897 71.0205 78.7593 70.5074 78.5564 70.0539Z" fill="#E2BFB3"/>
</svg>
