<svg width="278" height="67" viewBox="0 0 278 67" fill="none" xmlns="http://www.w3.org/2000/svg">
<rect y="4" width="278" height="60" rx="30" fill="url(#paint0_linear_460_123)" fill-opacity="0.8"/>
<g style="mix-blend-mode:plus-darker">
<mask id="path-2-outside-1_460_123" maskUnits="userSpaceOnUse" x="81" y="12" width="86" height="38" fill="black">
<rect fill="white" x="81" y="12" width="86" height="38"/>
<path d="M106.284 35.616C106.284 36.304 106.241 37.0207 106.155 37.766H89.514C89.6287 39.2567 90.1017 40.4033 90.933 41.206C91.793 41.98 92.8393 42.367 94.072 42.367C95.9067 42.367 97.1823 41.593 97.899 40.045H105.725C105.324 41.6217 104.593 43.0407 103.532 44.302C102.5 45.5633 101.196 46.5523 99.619 47.269C98.0423 47.9857 96.2793 48.344 94.33 48.344C91.9793 48.344 89.8867 47.8423 88.052 46.839C86.2173 45.8357 84.784 44.4023 83.752 42.539C82.72 40.6757 82.204 38.497 82.204 36.003C82.204 33.509 82.7057 31.3303 83.709 29.467C84.741 27.6037 86.1743 26.1703 88.009 25.167C89.8437 24.1637 91.9507 23.662 94.33 23.662C96.652 23.662 98.716 24.1493 100.522 25.124C102.328 26.0987 103.733 27.489 104.736 29.295C105.768 31.101 106.284 33.208 106.284 35.616ZM98.759 33.681C98.759 32.4197 98.329 31.4163 97.469 30.671C96.609 29.9257 95.534 29.553 94.244 29.553C93.0113 29.553 91.965 29.9113 91.105 30.628C90.2737 31.3447 89.7577 32.3623 89.557 33.681H98.759ZM108.701 35.96C108.701 33.4947 109.16 31.3303 110.077 29.467C111.023 27.6037 112.299 26.1703 113.904 25.167C115.509 24.1637 117.301 23.662 119.279 23.662C120.856 23.662 122.289 23.9917 123.579 24.651C124.898 25.3103 125.93 26.199 126.675 27.317V16.18H134.028V48H126.675V44.56C125.987 45.7067 124.998 46.624 123.708 47.312C122.447 48 120.97 48.344 119.279 48.344C117.301 48.344 115.509 47.8423 113.904 46.839C112.299 45.807 111.023 44.3593 110.077 42.496C109.16 40.604 108.701 38.4253 108.701 35.96ZM126.675 36.003C126.675 34.1683 126.159 32.7207 125.127 31.66C124.124 30.5993 122.891 30.069 121.429 30.069C119.967 30.069 118.72 30.5993 117.688 31.66C116.685 32.692 116.183 34.1253 116.183 35.96C116.183 37.7947 116.685 39.2567 117.688 40.346C118.72 41.4067 119.967 41.937 121.429 41.937C122.891 41.937 124.124 41.4067 125.127 40.346C126.159 39.2853 126.675 37.8377 126.675 36.003ZM143.046 21.512C141.756 21.512 140.695 21.1393 139.864 20.394C139.061 19.62 138.66 18.674 138.66 17.556C138.66 16.4093 139.061 15.4633 139.864 14.718C140.695 13.944 141.756 13.557 143.046 13.557C144.307 13.557 145.339 13.944 146.142 14.718C146.973 15.4633 147.389 16.4093 147.389 17.556C147.389 18.674 146.973 19.62 146.142 20.394C145.339 21.1393 144.307 21.512 143.046 21.512ZM146.701 24.006V48H139.348V24.006H146.701ZM165.402 41.765V48H161.661C158.995 48 156.917 47.355 155.426 46.065C153.936 44.7463 153.19 42.6107 153.19 39.658V30.112H150.266V24.006H153.19V18.158H160.543V24.006H165.359V30.112H160.543V39.744C160.543 40.4607 160.715 40.9767 161.059 41.292C161.403 41.6073 161.977 41.765 162.779 41.765H165.402Z"/>
</mask>
<path d="M106.284 35.616C106.284 36.304 106.241 37.0207 106.155 37.766H89.514C89.6287 39.2567 90.1017 40.4033 90.933 41.206C91.793 41.98 92.8393 42.367 94.072 42.367C95.9067 42.367 97.1823 41.593 97.899 40.045H105.725C105.324 41.6217 104.593 43.0407 103.532 44.302C102.5 45.5633 101.196 46.5523 99.619 47.269C98.0423 47.9857 96.2793 48.344 94.33 48.344C91.9793 48.344 89.8867 47.8423 88.052 46.839C86.2173 45.8357 84.784 44.4023 83.752 42.539C82.72 40.6757 82.204 38.497 82.204 36.003C82.204 33.509 82.7057 31.3303 83.709 29.467C84.741 27.6037 86.1743 26.1703 88.009 25.167C89.8437 24.1637 91.9507 23.662 94.33 23.662C96.652 23.662 98.716 24.1493 100.522 25.124C102.328 26.0987 103.733 27.489 104.736 29.295C105.768 31.101 106.284 33.208 106.284 35.616ZM98.759 33.681C98.759 32.4197 98.329 31.4163 97.469 30.671C96.609 29.9257 95.534 29.553 94.244 29.553C93.0113 29.553 91.965 29.9113 91.105 30.628C90.2737 31.3447 89.7577 32.3623 89.557 33.681H98.759ZM108.701 35.96C108.701 33.4947 109.16 31.3303 110.077 29.467C111.023 27.6037 112.299 26.1703 113.904 25.167C115.509 24.1637 117.301 23.662 119.279 23.662C120.856 23.662 122.289 23.9917 123.579 24.651C124.898 25.3103 125.93 26.199 126.675 27.317V16.18H134.028V48H126.675V44.56C125.987 45.7067 124.998 46.624 123.708 47.312C122.447 48 120.97 48.344 119.279 48.344C117.301 48.344 115.509 47.8423 113.904 46.839C112.299 45.807 111.023 44.3593 110.077 42.496C109.16 40.604 108.701 38.4253 108.701 35.96ZM126.675 36.003C126.675 34.1683 126.159 32.7207 125.127 31.66C124.124 30.5993 122.891 30.069 121.429 30.069C119.967 30.069 118.72 30.5993 117.688 31.66C116.685 32.692 116.183 34.1253 116.183 35.96C116.183 37.7947 116.685 39.2567 117.688 40.346C118.72 41.4067 119.967 41.937 121.429 41.937C122.891 41.937 124.124 41.4067 125.127 40.346C126.159 39.2853 126.675 37.8377 126.675 36.003ZM143.046 21.512C141.756 21.512 140.695 21.1393 139.864 20.394C139.061 19.62 138.66 18.674 138.66 17.556C138.66 16.4093 139.061 15.4633 139.864 14.718C140.695 13.944 141.756 13.557 143.046 13.557C144.307 13.557 145.339 13.944 146.142 14.718C146.973 15.4633 147.389 16.4093 147.389 17.556C147.389 18.674 146.973 19.62 146.142 20.394C145.339 21.1393 144.307 21.512 143.046 21.512ZM146.701 24.006V48H139.348V24.006H146.701ZM165.402 41.765V48H161.661C158.995 48 156.917 47.355 155.426 46.065C153.936 44.7463 153.19 42.6107 153.19 39.658V30.112H150.266V24.006H153.19V18.158H160.543V24.006H165.359V30.112H160.543V39.744C160.543 40.4607 160.715 40.9767 161.059 41.292C161.403 41.6073 161.977 41.765 162.779 41.765H165.402Z" fill="#E26C28"/>
<path d="M106.155 37.766V38.766H107.046L107.148 37.8806L106.155 37.766ZM89.514 37.766V36.766H88.4341L88.5169 37.8427L89.514 37.766ZM90.933 41.206L90.2384 41.9254L90.251 41.9376L90.264 41.9493L90.933 41.206ZM97.899 40.045V39.045H97.26L96.9915 39.6249L97.899 40.045ZM105.725 40.045L106.694 40.2917L107.011 39.045H105.725V40.045ZM103.532 44.302L102.767 43.6583L102.758 43.6688L103.532 44.302ZM99.619 47.269L100.033 48.1794L99.619 47.269ZM88.052 46.839L87.5722 47.7164L87.5722 47.7164L88.052 46.839ZM83.752 42.539L84.6268 42.0545L84.6268 42.0545L83.752 42.539ZM83.709 29.467L82.8341 28.9825L82.8285 28.9929L83.709 29.467ZM88.009 25.167L88.4888 26.0444L88.4888 26.0444L88.009 25.167ZM100.522 25.124L100.047 26.004L100.047 26.004L100.522 25.124ZM104.736 29.295L103.862 29.7807L103.868 29.7911L104.736 29.295ZM98.759 33.681V34.681H99.759V33.681H98.759ZM97.469 30.671L98.1239 29.9153L98.1239 29.9153L97.469 30.671ZM91.105 30.628L90.4648 29.8598L90.4584 29.8651L90.4521 29.8706L91.105 30.628ZM89.557 33.681L88.5684 33.5306L88.3933 34.681H89.557V33.681ZM105.284 35.616C105.284 36.2624 105.244 36.9407 105.162 37.6514L107.148 37.8806C107.238 37.1006 107.284 36.3456 107.284 35.616H105.284ZM106.155 36.766H89.514V38.766H106.155V36.766ZM88.5169 37.8427C88.6447 39.5039 89.1843 40.9077 90.2384 41.9254L91.6276 40.4866C91.019 39.899 90.6126 39.0095 90.5111 37.6893L88.5169 37.8427ZM90.264 41.9493C91.3204 42.9 92.6099 43.367 94.072 43.367V41.367C93.0688 41.367 92.2656 41.06 91.602 40.4627L90.264 41.9493ZM94.072 43.367C95.1304 43.367 96.0969 43.1429 96.9235 42.6414C97.7547 42.1371 98.377 41.3928 98.8065 40.4651L96.9915 39.6249C96.7044 40.2452 96.3305 40.6619 95.886 40.9316C95.4369 41.2041 94.8483 41.367 94.072 41.367V43.367ZM97.899 41.045H105.725V39.045H97.899V41.045ZM104.756 39.7983C104.392 41.2271 103.732 42.5108 102.767 43.6584L104.297 44.9456C105.454 43.5705 106.255 42.0163 106.694 40.2917L104.756 39.7983ZM102.758 43.6688C101.829 44.8039 100.651 45.7014 99.2052 46.3586L100.033 48.1794C101.74 47.4033 103.171 46.3228 104.306 44.9352L102.758 43.6688ZM99.2052 46.3586C97.7739 47.0092 96.1546 47.344 94.33 47.344V49.344C96.4041 49.344 98.3108 48.9621 100.033 48.1794L99.2052 46.3586ZM94.33 47.344C92.1259 47.344 90.2018 46.8749 88.5318 45.9616L87.5722 47.7164C89.5715 48.8097 91.8328 49.344 94.33 49.344V47.344ZM88.5318 45.9616C86.8666 45.051 85.5688 43.7554 84.6268 42.0545L82.8772 43.0235C83.9992 45.0493 85.5681 46.6204 87.5722 47.7164L88.5318 45.9616ZM84.6268 42.0545C83.69 40.363 83.204 38.3566 83.204 36.003H81.204C81.204 38.6374 81.75 40.9884 82.8772 43.0235L84.6268 42.0545ZM83.204 36.003C83.204 33.6449 83.6775 31.6347 84.5895 29.9411L82.8285 28.9929C81.7338 31.0259 81.204 33.3731 81.204 36.003H83.204ZM84.5838 29.9515C85.5258 28.2506 86.8236 26.955 88.4888 26.0444L87.5292 24.2896C85.5251 25.3856 83.9562 26.9567 82.8342 28.9825L84.5838 29.9515ZM88.4888 26.0444C90.1571 25.132 92.095 24.662 94.33 24.662V22.662C91.8064 22.662 89.5302 23.1953 87.5292 24.2896L88.4888 26.0444ZM94.33 24.662C96.5083 24.662 98.4053 25.118 100.047 26.004L100.997 24.244C99.0267 23.1807 96.7957 22.662 94.33 22.662V24.662ZM100.047 26.004C101.684 26.8874 102.951 28.1403 103.862 29.7806L105.61 28.8094C104.515 26.8377 102.972 25.3099 100.997 24.244L100.047 26.004ZM103.868 29.7911C104.801 31.4237 105.284 33.3543 105.284 35.616H107.284C107.284 33.0617 106.735 30.7783 105.604 28.7989L103.868 29.7911ZM99.759 33.681C99.759 32.1649 99.2284 30.8725 98.1239 29.9153L96.8141 31.4267C97.4296 31.9601 97.759 32.6744 97.759 33.681H99.759ZM98.1239 29.9153C97.0578 28.9913 95.7403 28.553 94.244 28.553V30.553C95.3277 30.553 96.1602 30.86 96.8141 31.4267L98.1239 29.9153ZM94.244 28.553C92.8027 28.553 91.5231 28.9779 90.4648 29.8598L91.7452 31.3962C92.4069 30.8448 93.22 30.553 94.244 30.553V28.553ZM90.4521 29.8706C89.4032 30.7748 88.7969 32.0289 88.5684 33.5306L90.5456 33.8314C90.7184 32.6958 91.1441 31.9146 91.7579 31.3854L90.4521 29.8706ZM89.557 34.681H98.759V32.681H89.557V34.681ZM110.077 29.467L109.185 29.0143L109.18 29.0253L110.077 29.467ZM113.904 25.167L114.434 26.015L114.434 26.015L113.904 25.167ZM123.579 24.651L123.124 25.5415L123.132 25.5454L123.579 24.651ZM126.675 27.317L125.843 27.8717L127.675 30.6198V27.317H126.675ZM126.675 16.18V15.18H125.675V16.18H126.675ZM134.028 16.18H135.028V15.18H134.028V16.18ZM134.028 48V49H135.028V48H134.028ZM126.675 48H125.675V49H126.675V48ZM126.675 44.56H127.675V40.9497L125.818 44.0455L126.675 44.56ZM123.708 47.312L123.237 46.4296L123.229 46.4341L123.708 47.312ZM113.904 46.839L113.363 47.6802L113.374 47.687L113.904 46.839ZM110.077 42.496L109.177 42.9323L109.181 42.9405L109.185 42.9487L110.077 42.496ZM125.127 31.66L124.401 32.3473L124.41 32.3574L125.127 31.66ZM117.688 31.66L116.971 30.9626L116.971 30.9629L117.688 31.66ZM117.688 40.346L116.953 41.0235L116.962 41.0335L116.971 41.0434L117.688 40.346ZM125.127 40.346L124.41 39.6486L124.401 39.6588L125.127 40.346ZM109.701 35.96C109.701 33.6194 110.136 31.6112 110.974 29.9087L109.18 29.0253C108.183 31.0495 107.701 33.3699 107.701 35.96H109.701ZM110.969 29.9197C111.841 28.2012 112.999 26.9121 114.434 26.015L113.374 24.319C111.599 25.4286 110.205 27.0061 109.185 29.0143L110.969 29.9197ZM114.434 26.015C115.873 25.1156 117.48 24.662 119.279 24.662V22.662C117.122 22.662 115.146 23.2118 113.374 24.319L114.434 26.015ZM119.279 24.662C120.712 24.662 121.987 24.9603 123.124 25.5414L124.034 23.7606C122.591 23.023 121 22.662 119.279 22.662V24.662ZM123.132 25.5454C124.31 26.1347 125.203 26.9123 125.843 27.8717L127.507 26.7623C126.656 25.4857 125.485 24.486 124.026 23.7566L123.132 25.5454ZM127.675 27.317V16.18H125.675V27.317H127.675ZM126.675 17.18H134.028V15.18H126.675V17.18ZM133.028 16.18V48H135.028V16.18H133.028ZM134.028 47H126.675V49H134.028V47ZM127.675 48V44.56H125.675V48H127.675ZM125.818 44.0455C125.231 45.0224 124.383 45.8187 123.237 46.4296L124.179 48.1944C125.613 47.4293 126.743 46.3909 127.533 45.0745L125.818 44.0455ZM123.229 46.4341C122.139 47.0289 120.833 47.344 119.279 47.344V49.344C121.108 49.344 122.755 48.9711 124.187 48.1899L123.229 46.4341ZM119.279 47.344C117.48 47.344 115.873 46.8904 114.434 45.991L113.374 47.687C115.146 48.7942 117.122 49.344 119.279 49.344V47.344ZM114.445 45.9978C113.003 45.0708 111.842 43.7638 110.969 42.0433L109.185 42.9487C110.204 44.9549 111.595 46.5432 113.363 47.6802L114.445 45.9978ZM110.977 42.0597C110.136 40.3253 109.701 38.3001 109.701 35.96H107.701C107.701 38.5505 108.184 40.8827 109.177 42.9323L110.977 42.0597ZM127.675 36.003C127.675 33.9737 127.099 32.2524 125.844 30.9626L124.41 32.3574C125.219 33.1889 125.675 34.3629 125.675 36.003H127.675ZM125.854 30.9728C124.661 29.7122 123.166 29.069 121.429 29.069V31.069C122.617 31.069 123.586 31.4865 124.401 32.3472L125.854 30.9728ZM121.429 29.069C119.693 29.069 118.189 29.7112 116.971 30.9626L118.405 32.3574C119.251 31.4875 120.241 31.069 121.429 31.069V29.069ZM116.971 30.9629C115.74 32.2291 115.183 33.9397 115.183 35.96H117.183C117.183 34.311 117.629 33.1549 118.405 32.3571L116.971 30.9629ZM115.183 35.96C115.183 37.983 115.741 39.708 116.953 41.0235L118.424 39.6685C117.629 38.8053 117.183 37.6064 117.183 35.96H115.183ZM116.971 41.0434C118.189 42.2948 119.693 42.937 121.429 42.937V40.937C120.241 40.937 119.251 40.5185 118.405 39.6486L116.971 41.0434ZM121.429 42.937C123.166 42.937 124.661 42.2938 125.854 41.0332L124.401 39.6588C123.586 40.5195 122.617 40.937 121.429 40.937V42.937ZM125.844 41.0434C127.099 39.7536 127.675 38.0323 127.675 36.003H125.675C125.675 37.6431 125.219 38.8171 124.41 39.6486L125.844 41.0434ZM139.864 20.394L139.17 21.1138L139.183 21.1264L139.196 21.1386L139.864 20.394ZM139.864 14.718L140.544 15.4508L140.545 15.4499L139.864 14.718ZM146.142 14.718L145.448 15.4378L145.461 15.4504L145.474 15.4626L146.142 14.718ZM146.142 20.394L146.822 21.1268L146.823 21.1259L146.142 20.394ZM146.701 24.006H147.701V23.006H146.701V24.006ZM146.701 48V49H147.701V48H146.701ZM139.348 48H138.348V49H139.348V48ZM139.348 24.006V23.006H138.348V24.006H139.348ZM143.046 20.512C141.961 20.512 141.151 20.205 140.531 19.6494L139.196 21.1386C140.239 22.0737 141.55 22.512 143.046 22.512V20.512ZM140.558 19.6742C139.951 19.0892 139.66 18.4033 139.66 17.556H137.66C137.66 18.9447 138.171 20.1508 139.17 21.1138L140.558 19.6742ZM139.66 17.556C139.66 16.6727 139.956 15.9971 140.544 15.4508L139.183 13.9852C138.166 14.9295 137.66 16.1459 137.66 17.556H139.66ZM140.545 15.4499C141.166 14.8718 141.972 14.557 143.046 14.557V12.557C141.54 12.557 140.224 13.0162 139.182 13.9861L140.545 15.4499ZM143.046 14.557C144.085 14.557 144.856 14.8676 145.448 15.4378L146.836 13.9982C145.822 13.0204 144.529 12.557 143.046 12.557V14.557ZM145.474 15.4626C146.087 16.0125 146.389 16.6847 146.389 17.556H148.389C148.389 16.1339 147.859 14.9142 146.809 13.9734L145.474 15.4626ZM146.389 17.556C146.389 18.3914 146.092 19.0738 145.46 19.6621L146.823 21.1259C147.854 20.1662 148.389 18.9566 148.389 17.556H146.389ZM145.461 19.6612C144.871 20.2088 144.096 20.512 143.046 20.512V22.512C144.518 22.512 145.806 22.0699 146.822 21.1268L145.461 19.6612ZM145.701 24.006V48H147.701V24.006H145.701ZM146.701 47H139.348V49H146.701V47ZM140.348 48V24.006H138.348V48H140.348ZM139.348 25.006H146.701V23.006H139.348V25.006ZM165.402 41.765H166.402V40.765H165.402V41.765ZM165.402 48V49H166.402V48H165.402ZM155.426 46.065L154.764 46.814L154.772 46.8212L155.426 46.065ZM153.19 30.112H154.19V29.112H153.19V30.112ZM150.266 30.112H149.266V31.112H150.266V30.112ZM150.266 24.006V23.006H149.266V24.006H150.266ZM153.19 24.006V25.006H154.19V24.006H153.19ZM153.19 18.158V17.158H152.19V18.158H153.19ZM160.543 18.158H161.543V17.158H160.543V18.158ZM160.543 24.006H159.543V25.006H160.543V24.006ZM165.359 24.006H166.359V23.006H165.359V24.006ZM165.359 30.112V31.112H166.359V30.112H165.359ZM160.543 30.112V29.112H159.543V30.112H160.543ZM161.059 41.292L160.384 42.0292L160.384 42.0292L161.059 41.292ZM164.402 41.765V48H166.402V41.765H164.402ZM165.402 47H161.661V49H165.402V47ZM161.661 47C159.15 47 157.334 46.3936 156.081 45.3088L154.772 46.8212C156.5 48.3164 158.84 49 161.661 49V47ZM156.089 45.316C154.899 44.2636 154.19 42.4644 154.19 39.658H152.19C152.19 42.7569 152.972 45.2291 154.764 46.814L156.089 45.316ZM154.19 39.658V30.112H152.19V39.658H154.19ZM153.19 29.112H150.266V31.112H153.19V29.112ZM151.266 30.112V24.006H149.266V30.112H151.266ZM150.266 25.006H153.19V23.006H150.266V25.006ZM154.19 24.006V18.158H152.19V24.006H154.19ZM153.19 19.158H160.543V17.158H153.19V19.158ZM159.543 18.158V24.006H161.543V18.158H159.543ZM160.543 25.006H165.359V23.006H160.543V25.006ZM164.359 24.006V30.112H166.359V24.006H164.359ZM165.359 29.112H160.543V31.112H165.359V29.112ZM159.543 30.112V39.744H161.543V30.112H159.543ZM159.543 39.744C159.543 40.592 159.744 41.4429 160.384 42.0292L161.735 40.5548C161.687 40.5104 161.543 40.3294 161.543 39.744H159.543ZM160.384 42.0292C161.006 42.5995 161.892 42.765 162.779 42.765V40.765C162.061 40.765 161.801 40.6152 161.735 40.5548L160.384 42.0292ZM162.779 42.765H165.402V40.765H162.779V42.765Z" fill="#FFBE98" mask="url(#path-2-outside-1_460_123)"/>
</g>
<defs>
<linearGradient id="paint0_linear_460_123" x1="0" y1="34" x2="278" y2="34" gradientUnits="userSpaceOnUse">
<stop stop-color="#FFBE98"/>
<stop offset="1" stop-color="#E2BFB3"/>
</linearGradient>
</defs>
</svg>
