<svg width="278" height="67" viewBox="0 0 278 67" fill="none" xmlns="http://www.w3.org/2000/svg">
<rect y="4" width="278" height="60" rx="30" fill="url(#paint0_linear_462_125)" fill-opacity="0.8"/>
<g style="mix-blend-mode:plus-darker">
<mask id="path-2-outside-1_462_125" maskUnits="userSpaceOnUse" x="92" y="15" width="86" height="35" fill="black">
<rect fill="white" x="92" y="15" width="86" height="35"/>
<path d="M93.204 35.96C93.204 33.4947 93.6627 31.3303 94.58 29.467C95.526 27.6037 96.8017 26.1703 98.407 25.167C100.012 24.1637 101.804 23.662 103.782 23.662C105.473 23.662 106.95 24.006 108.211 24.694C109.501 25.382 110.49 26.285 111.178 27.403V24.006H118.531V48H111.178V44.603C110.461 45.721 109.458 46.624 108.168 47.312C106.907 48 105.43 48.344 103.739 48.344C101.79 48.344 100.012 47.8423 98.407 46.839C96.8017 45.807 95.526 44.3593 94.58 42.496C93.6627 40.604 93.204 38.4253 93.204 35.96ZM111.178 36.003C111.178 34.1683 110.662 32.7207 109.63 31.66C108.627 30.5993 107.394 30.069 105.932 30.069C104.47 30.069 103.223 30.5993 102.191 31.66C101.188 32.692 100.686 34.1253 100.686 35.96C100.686 37.7947 101.188 39.2567 102.191 40.346C103.223 41.4067 104.47 41.937 105.932 41.937C107.394 41.937 108.627 41.4067 109.63 40.346C110.662 39.2853 111.178 37.8377 111.178 36.003ZM122.389 35.96C122.389 33.4947 122.847 31.3303 123.765 29.467C124.711 27.6037 125.986 26.1703 127.592 25.167C129.197 24.1637 130.989 23.662 132.967 23.662C134.543 23.662 135.977 23.9917 137.267 24.651C138.585 25.3103 139.617 26.199 140.363 27.317V16.18H147.716V48H140.363V44.56C139.675 45.7067 138.686 46.624 137.396 47.312C136.134 48 134.658 48.344 132.967 48.344C130.989 48.344 129.197 47.8423 127.592 46.839C125.986 45.807 124.711 44.3593 123.765 42.496C122.847 40.604 122.389 38.4253 122.389 35.96ZM140.363 36.003C140.363 34.1683 139.847 32.7207 138.815 31.66C137.811 30.5993 136.579 30.069 135.117 30.069C133.655 30.069 132.408 30.5993 131.376 31.66C130.372 32.692 129.871 34.1253 129.871 35.96C129.871 37.7947 130.372 39.2567 131.376 40.346C132.408 41.4067 133.655 41.937 135.117 41.937C136.579 41.937 137.811 41.4067 138.815 40.346C139.847 39.2853 140.363 37.8377 140.363 36.003ZM151.573 35.96C151.573 33.4947 152.032 31.3303 152.949 29.467C153.895 27.6037 155.171 26.1703 156.776 25.167C158.381 24.1637 160.173 23.662 162.151 23.662C163.728 23.662 165.161 23.9917 166.451 24.651C167.77 25.3103 168.802 26.199 169.547 27.317V16.18H176.9V48H169.547V44.56C168.859 45.7067 167.87 46.624 166.58 47.312C165.319 48 163.842 48.344 162.151 48.344C160.173 48.344 158.381 47.8423 156.776 46.839C155.171 45.807 153.895 44.3593 152.949 42.496C152.032 40.604 151.573 38.4253 151.573 35.96ZM169.547 36.003C169.547 34.1683 169.031 32.7207 167.999 31.66C166.996 30.5993 165.763 30.069 164.301 30.069C162.839 30.069 161.592 30.5993 160.56 31.66C159.557 32.692 159.055 34.1253 159.055 35.96C159.055 37.7947 159.557 39.2567 160.56 40.346C161.592 41.4067 162.839 41.937 164.301 41.937C165.763 41.937 166.996 41.4067 167.999 40.346C169.031 39.2853 169.547 37.8377 169.547 36.003Z"/>
</mask>
<path d="M93.204 35.96C93.204 33.4947 93.6627 31.3303 94.58 29.467C95.526 27.6037 96.8017 26.1703 98.407 25.167C100.012 24.1637 101.804 23.662 103.782 23.662C105.473 23.662 106.95 24.006 108.211 24.694C109.501 25.382 110.49 26.285 111.178 27.403V24.006H118.531V48H111.178V44.603C110.461 45.721 109.458 46.624 108.168 47.312C106.907 48 105.43 48.344 103.739 48.344C101.79 48.344 100.012 47.8423 98.407 46.839C96.8017 45.807 95.526 44.3593 94.58 42.496C93.6627 40.604 93.204 38.4253 93.204 35.96ZM111.178 36.003C111.178 34.1683 110.662 32.7207 109.63 31.66C108.627 30.5993 107.394 30.069 105.932 30.069C104.47 30.069 103.223 30.5993 102.191 31.66C101.188 32.692 100.686 34.1253 100.686 35.96C100.686 37.7947 101.188 39.2567 102.191 40.346C103.223 41.4067 104.47 41.937 105.932 41.937C107.394 41.937 108.627 41.4067 109.63 40.346C110.662 39.2853 111.178 37.8377 111.178 36.003ZM122.389 35.96C122.389 33.4947 122.847 31.3303 123.765 29.467C124.711 27.6037 125.986 26.1703 127.592 25.167C129.197 24.1637 130.989 23.662 132.967 23.662C134.543 23.662 135.977 23.9917 137.267 24.651C138.585 25.3103 139.617 26.199 140.363 27.317V16.18H147.716V48H140.363V44.56C139.675 45.7067 138.686 46.624 137.396 47.312C136.134 48 134.658 48.344 132.967 48.344C130.989 48.344 129.197 47.8423 127.592 46.839C125.986 45.807 124.711 44.3593 123.765 42.496C122.847 40.604 122.389 38.4253 122.389 35.96ZM140.363 36.003C140.363 34.1683 139.847 32.7207 138.815 31.66C137.811 30.5993 136.579 30.069 135.117 30.069C133.655 30.069 132.408 30.5993 131.376 31.66C130.372 32.692 129.871 34.1253 129.871 35.96C129.871 37.7947 130.372 39.2567 131.376 40.346C132.408 41.4067 133.655 41.937 135.117 41.937C136.579 41.937 137.811 41.4067 138.815 40.346C139.847 39.2853 140.363 37.8377 140.363 36.003ZM151.573 35.96C151.573 33.4947 152.032 31.3303 152.949 29.467C153.895 27.6037 155.171 26.1703 156.776 25.167C158.381 24.1637 160.173 23.662 162.151 23.662C163.728 23.662 165.161 23.9917 166.451 24.651C167.77 25.3103 168.802 26.199 169.547 27.317V16.18H176.9V48H169.547V44.56C168.859 45.7067 167.87 46.624 166.58 47.312C165.319 48 163.842 48.344 162.151 48.344C160.173 48.344 158.381 47.8423 156.776 46.839C155.171 45.807 153.895 44.3593 152.949 42.496C152.032 40.604 151.573 38.4253 151.573 35.96ZM169.547 36.003C169.547 34.1683 169.031 32.7207 167.999 31.66C166.996 30.5993 165.763 30.069 164.301 30.069C162.839 30.069 161.592 30.5993 160.56 31.66C159.557 32.692 159.055 34.1253 159.055 35.96C159.055 37.7947 159.557 39.2567 160.56 40.346C161.592 41.4067 162.839 41.937 164.301 41.937C165.763 41.937 166.996 41.4067 167.999 40.346C169.031 39.2853 169.547 37.8377 169.547 36.003Z" fill="#E26C28"/>
<path d="M94.58 29.467L93.6883 29.0143L93.6828 29.0253L94.58 29.467ZM98.407 25.167L98.937 26.015L98.937 26.015L98.407 25.167ZM108.211 24.694L107.732 25.5719L107.74 25.5764L108.211 24.694ZM111.178 27.403L110.326 27.9271L112.178 30.936V27.403H111.178ZM111.178 24.006V23.006H110.178V24.006H111.178ZM118.531 24.006H119.531V23.006H118.531V24.006ZM118.531 48V49H119.531V48H118.531ZM111.178 48H110.178V49H111.178V48ZM111.178 44.603H112.178V41.19L110.336 44.0633L111.178 44.603ZM108.168 47.312L107.697 46.4296L107.689 46.4341L108.168 47.312ZM98.407 46.839L97.8662 47.6802L97.877 47.687L98.407 46.839ZM94.58 42.496L93.6802 42.9323L93.6842 42.9405L93.6883 42.9487L94.58 42.496ZM109.63 31.66L108.903 32.3473L108.913 32.3574L109.63 31.66ZM102.191 31.66L101.474 30.9626L101.474 30.9629L102.191 31.66ZM102.191 40.346L101.455 41.0235L101.465 41.0335L101.474 41.0434L102.191 40.346ZM109.63 40.346L108.913 39.6486L108.904 39.6588L109.63 40.346ZM94.204 35.96C94.204 33.6194 94.639 31.6112 95.4772 29.9087L93.6828 29.0253C92.6863 31.0495 92.204 33.3699 92.204 35.96H94.204ZM95.4717 29.9197C96.3441 28.2012 97.5016 26.9121 98.937 26.015L97.877 24.319C96.1017 25.4286 94.7079 27.0061 93.6883 29.0143L95.4717 29.9197ZM98.937 26.015C100.376 25.1156 101.983 24.662 103.782 24.662V22.662C101.625 22.662 99.6486 23.2118 97.877 24.319L98.937 26.015ZM103.782 24.662C105.336 24.662 106.642 24.9771 107.732 25.5719L108.69 23.8161C107.258 23.0349 105.611 22.662 103.782 22.662V24.662ZM107.74 25.5764C108.892 26.1906 109.742 26.9769 110.326 27.9271L112.03 26.8789C111.238 25.5931 110.11 24.5734 108.682 23.8116L107.74 25.5764ZM112.178 27.403V24.006H110.178V27.403H112.178ZM111.178 25.006H118.531V23.006H111.178V25.006ZM117.531 24.006V48H119.531V24.006H117.531ZM118.531 47H111.178V49H118.531V47ZM112.178 48V44.603H110.178V48H112.178ZM110.336 44.0633C109.721 45.023 108.852 45.8139 107.697 46.4296L108.639 48.1944C110.064 47.4341 111.202 46.419 112.02 45.1427L110.336 44.0633ZM107.689 46.4341C106.599 47.0289 105.293 47.344 103.739 47.344V49.344C105.568 49.344 107.215 48.9711 108.647 48.1899L107.689 46.4341ZM103.739 47.344C101.971 47.344 100.378 46.8919 98.937 45.991L97.877 47.687C99.6462 48.7927 101.608 49.344 103.739 49.344V47.344ZM98.9478 45.9978C97.5058 45.0708 96.3451 43.7638 95.4717 42.0433L93.6883 42.9487C94.7069 44.9549 96.0976 46.5432 97.8662 47.6802L98.9478 45.9978ZM95.4798 42.0597C94.6389 40.3253 94.204 38.3001 94.204 35.96H92.204C92.204 38.5505 92.6865 40.8827 93.6802 42.9323L95.4798 42.0597ZM112.178 36.003C112.178 33.9737 111.602 32.2524 110.347 30.9626L108.913 32.3574C109.722 33.1889 110.178 34.3629 110.178 36.003H112.178ZM110.356 30.9728C109.164 29.7122 107.668 29.069 105.932 29.069V31.069C107.12 31.069 108.089 31.4865 108.904 32.3472L110.356 30.9728ZM105.932 29.069C104.196 29.069 102.692 29.7112 101.474 30.9626L102.908 32.3574C103.754 31.4875 104.744 31.069 105.932 31.069V29.069ZM101.474 30.9629C100.243 32.2291 99.686 33.9397 99.686 35.96H101.686C101.686 34.311 102.132 33.1549 102.908 32.3571L101.474 30.9629ZM99.686 35.96C99.686 37.983 100.244 39.708 101.455 41.0235L102.927 39.6685C102.131 38.8053 101.686 37.6064 101.686 35.96H99.686ZM101.474 41.0434C102.692 42.2948 104.196 42.937 105.932 42.937V40.937C104.744 40.937 103.754 40.5185 102.908 39.6486L101.474 41.0434ZM105.932 42.937C107.668 42.937 109.164 42.2938 110.356 41.0332L108.904 39.6588C108.089 40.5195 107.12 40.937 105.932 40.937V42.937ZM110.347 41.0434C111.602 39.7536 112.178 38.0323 112.178 36.003H110.178C110.178 37.6431 109.722 38.8171 108.913 39.6486L110.347 41.0434ZM123.765 29.467L122.873 29.0143L122.867 29.0253L123.765 29.467ZM127.592 25.167L128.122 26.015L128.122 26.015L127.592 25.167ZM137.267 24.651L136.811 25.5415L136.819 25.5454L137.267 24.651ZM140.363 27.317L139.531 27.8717L141.363 30.6198V27.317H140.363ZM140.363 16.18V15.18H139.363V16.18H140.363ZM147.716 16.18H148.716V15.18H147.716V16.18ZM147.716 48V49H148.716V48H147.716ZM140.363 48H139.363V49H140.363V48ZM140.363 44.56H141.363V40.9497L139.505 44.0455L140.363 44.56ZM137.396 47.312L136.925 46.4296L136.917 46.4341L137.396 47.312ZM127.592 46.839L127.051 47.6802L127.062 47.687L127.592 46.839ZM123.765 42.496L122.865 42.9323L122.869 42.9405L122.873 42.9487L123.765 42.496ZM138.815 31.66L138.088 32.3473L138.098 32.3574L138.815 31.66ZM131.376 31.66L130.659 30.9626L130.659 30.9629L131.376 31.66ZM131.376 40.346L130.64 41.0235L130.649 41.0335L130.659 41.0434L131.376 40.346ZM138.815 40.346L138.098 39.6486L138.088 39.6588L138.815 40.346ZM123.389 35.96C123.389 33.6194 123.824 31.6112 124.662 29.9087L122.867 29.0253C121.871 31.0495 121.389 33.3699 121.389 35.96H123.389ZM124.656 29.9197C125.529 28.2012 126.686 26.9121 128.122 26.015L127.062 24.319C125.286 25.4286 123.892 27.0061 122.873 29.0143L124.656 29.9197ZM128.122 26.015C129.561 25.1156 131.167 24.662 132.967 24.662V22.662C130.81 22.662 128.833 23.2118 127.062 24.319L128.122 26.015ZM132.967 24.662C134.399 24.662 135.675 24.9603 136.811 25.5414L137.722 23.7606C136.279 23.023 134.687 22.662 132.967 22.662V24.662ZM136.819 25.5454C137.998 26.1347 138.891 26.9123 139.531 27.8717L141.195 26.7623C140.344 25.4857 139.173 24.486 137.714 23.7566L136.819 25.5454ZM141.363 27.317V16.18H139.363V27.317H141.363ZM140.363 17.18H147.716V15.18H140.363V17.18ZM146.716 16.18V48H148.716V16.18H146.716ZM147.716 47H140.363V49H147.716V47ZM141.363 48V44.56H139.363V48H141.363ZM139.505 44.0455C138.919 45.0224 138.07 45.8187 136.925 46.4296L137.866 48.1944C139.301 47.4293 140.43 46.3909 141.22 45.0745L139.505 44.0455ZM136.917 46.4341C135.826 47.0289 134.52 47.344 132.967 47.344V49.344C134.796 49.344 136.442 48.9711 137.874 48.1899L136.917 46.4341ZM132.967 47.344C131.167 47.344 129.561 46.8904 128.122 45.991L127.062 47.687C128.833 48.7942 130.81 49.344 132.967 49.344V47.344ZM128.132 45.9978C126.69 45.0708 125.53 43.7638 124.656 42.0433L122.873 42.9487C123.891 44.9549 125.282 46.5432 127.051 47.6802L128.132 45.9978ZM124.664 42.0597C123.823 40.3253 123.389 38.3001 123.389 35.96H121.389C121.389 38.5505 121.871 40.8827 122.865 42.9323L124.664 42.0597ZM141.363 36.003C141.363 33.9737 140.786 32.2524 139.531 30.9626L138.098 32.3574C138.907 33.1889 139.363 34.3629 139.363 36.003H141.363ZM139.541 30.9728C138.349 29.7122 136.853 29.069 135.117 29.069V31.069C136.304 31.069 137.274 31.4865 138.088 32.3472L139.541 30.9728ZM135.117 29.069C133.381 29.069 131.877 29.7112 130.659 30.9626L132.092 32.3574C132.939 31.4875 133.928 31.069 135.117 31.069V29.069ZM130.659 30.9629C129.428 32.2291 128.871 33.9397 128.871 35.96H130.871C130.871 34.311 131.317 33.1549 132.093 32.3571L130.659 30.9629ZM128.871 35.96C128.871 37.983 129.428 39.708 130.64 41.0235L132.111 39.6685C131.316 38.8053 130.871 37.6064 130.871 35.96H128.871ZM130.659 41.0434C131.877 42.2948 133.381 42.937 135.117 42.937V40.937C133.928 40.937 132.939 40.5185 132.092 39.6486L130.659 41.0434ZM135.117 42.937C136.853 42.937 138.349 42.2938 139.541 41.0332L138.088 39.6588C137.274 40.5195 136.304 40.937 135.117 40.937V42.937ZM139.531 41.0434C140.786 39.7536 141.363 38.0323 141.363 36.003H139.363C139.363 37.6431 138.907 38.8171 138.098 39.6486L139.531 41.0434ZM152.949 29.467L152.057 29.0143L152.052 29.0253L152.949 29.467ZM156.776 25.167L157.306 26.015L157.306 26.015L156.776 25.167ZM166.451 24.651L165.996 25.5415L166.004 25.5454L166.451 24.651ZM169.547 27.317L168.715 27.8717L170.547 30.6198V27.317H169.547ZM169.547 16.18V15.18H168.547V16.18H169.547ZM176.9 16.18H177.9V15.18H176.9V16.18ZM176.9 48V49H177.9V48H176.9ZM169.547 48H168.547V49H169.547V48ZM169.547 44.56H170.547V40.9497L168.69 44.0455L169.547 44.56ZM166.58 47.312L166.11 46.4296L166.101 46.4341L166.58 47.312ZM156.776 46.839L156.235 47.6802L156.246 47.687L156.776 46.839ZM152.949 42.496L152.049 42.9323L152.053 42.9405L152.057 42.9487L152.949 42.496ZM167.999 31.66L167.273 32.3473L167.282 32.3574L167.999 31.66ZM160.56 31.66L159.843 30.9626L159.843 30.9629L160.56 31.66ZM160.56 40.346L159.825 41.0235L159.834 41.0335L159.843 41.0434L160.56 40.346ZM167.999 40.346L167.282 39.6486L167.273 39.6588L167.999 40.346ZM152.573 35.96C152.573 33.6194 153.008 31.6112 153.846 29.9087L152.052 29.0253C151.055 31.0495 150.573 33.3699 150.573 35.96H152.573ZM153.841 29.9197C154.713 28.2012 155.871 26.9121 157.306 26.015L156.246 24.319C154.471 25.4286 153.077 27.0061 152.057 29.0143L153.841 29.9197ZM157.306 26.015C158.745 25.1156 160.352 24.662 162.151 24.662V22.662C159.995 22.662 158.018 23.2118 156.246 24.319L157.306 26.015ZM162.151 24.662C163.584 24.662 164.859 24.9603 165.996 25.5414L166.906 23.7606C165.463 23.023 163.872 22.662 162.151 22.662V24.662ZM166.004 25.5454C167.182 26.1347 168.075 26.9123 168.715 27.8717L170.379 26.7623C169.528 25.4857 168.357 24.486 166.898 23.7566L166.004 25.5454ZM170.547 27.317V16.18H168.547V27.317H170.547ZM169.547 17.18H176.9V15.18H169.547V17.18ZM175.9 16.18V48H177.9V16.18H175.9ZM176.9 47H169.547V49H176.9V47ZM170.547 48V44.56H168.547V48H170.547ZM168.69 44.0455C168.103 45.0224 167.255 45.8187 166.11 46.4296L167.051 48.1944C168.485 47.4293 169.615 46.3909 170.405 45.0745L168.69 44.0455ZM166.101 46.4341C165.011 47.0289 163.705 47.344 162.151 47.344V49.344C163.98 49.344 165.627 48.9711 167.059 48.1899L166.101 46.4341ZM162.151 47.344C160.352 47.344 158.745 46.8904 157.306 45.991L156.246 47.687C158.018 48.7942 159.995 49.344 162.151 49.344V47.344ZM157.317 45.9978C155.875 45.0708 154.714 43.7638 153.841 42.0433L152.057 42.9487C153.076 44.9549 154.467 46.5432 156.235 47.6802L157.317 45.9978ZM153.849 42.0597C153.008 40.3253 152.573 38.3001 152.573 35.96H150.573C150.573 38.5505 151.056 40.8827 152.049 42.9323L153.849 42.0597ZM170.547 36.003C170.547 33.9737 169.971 32.2524 168.716 30.9626L167.282 32.3574C168.092 33.1889 168.547 34.3629 168.547 36.003H170.547ZM168.726 30.9728C167.533 29.7122 166.038 29.069 164.301 29.069V31.069C165.489 31.069 166.459 31.4865 167.273 32.3472L168.726 30.9728ZM164.301 29.069C162.565 29.069 161.061 29.7112 159.843 30.9626L161.277 32.3574C162.123 31.4875 163.113 31.069 164.301 31.069V29.069ZM159.843 30.9629C158.612 32.2291 158.055 33.9397 158.055 35.96H160.055C160.055 34.311 160.501 33.1549 161.277 32.3571L159.843 30.9629ZM158.055 35.96C158.055 37.983 158.613 39.708 159.825 41.0235L161.296 39.6685C160.501 38.8053 160.055 37.6064 160.055 35.96H158.055ZM159.843 41.0434C161.061 42.2948 162.565 42.937 164.301 42.937V40.937C163.113 40.937 162.123 40.5185 161.277 39.6486L159.843 41.0434ZM164.301 42.937C166.038 42.937 167.533 42.2938 168.726 41.0332L167.273 39.6588C166.459 40.5195 165.489 40.937 164.301 40.937V42.937ZM168.716 41.0434C169.971 39.7536 170.547 38.0323 170.547 36.003H168.547C168.547 37.6431 168.092 38.8171 167.282 39.6486L168.716 41.0434Z" fill="#FFBE98" mask="url(#path-2-outside-1_462_125)"/>
</g>
<defs>
<linearGradient id="paint0_linear_462_125" x1="0" y1="34" x2="278" y2="34" gradientUnits="userSpaceOnUse">
<stop stop-color="#FFBE98"/>
<stop offset="1" stop-color="#E2BFB3"/>
</linearGradient>
</defs>
</svg>
